{
.appVersion = "3260";
.formatVersion = 3;
customParameters = (
{
name = macintoshFONDFamilyID;
value = 128;
},
{
name = macintoshFONDName;
value = "Libre Baskerville";
},
{
name = openTypeHeadLowestRecPPEM;
value = 9;
},
{
name = compatibleFullNames;
value = "Libre Baskerville Italic";
},
{
name = descriptions;
value = "Libre Baskerville is webfont optimized for web body text (typically 16px). It's based on 1941 ATF Specimens, but it has a taller x height, wider counters and minor contrast that allow it to work on small sizes in any screen.";
},
{
name = licenses;
value = "This Font Software is licensed under the SIL Open Font License, Version 1.1. This license is available with a FAQ at: http://scripts.sil.org/OFL";
},
{
name = licenseURL;
value = "http://scripts.sil.org/OFL";
},
{
name = preferredFamilyNames;
value = "Libre Baskerville";
},
{
name = uniqueID;
value = "PabloImpallari,RodrigoFuenzalida: Libre Baskerville Italic: 2012";
},
{
name = codePageRanges;
value = (
"1252",
"1250",
"1254",
"1257"
);
},
{
name = openTypeOS2FamilyClass;
value = (
0,
0
);
},
{
name = panose;
value = (
2,
0,
0,
0,
0,
0,
0,
0,
0,
0
);
},
{
name = fsType;
value = (
);
},
{
name = unicodeRanges;
value = (
0,
1,
2,
3,
4,
5,
7,
29,
31,
32,
33,
35,
36,
38,
60,
62
);
},
{
name = vendorID;
value = pyrs;
},
{
name = blueFuzz;
value = 0;
},
{
name = blueScale;
value = 0.016667;
},
{
name = blueShift;
value = 10;
},
{
name = postscriptDefaultWidthX;
value = 500;
},
{
name = postscriptForceBold;
value = 0;
},
{
name = postscriptIsFixedPitch;
value = 0;
},
{
name = postscriptSlantAngle;
value = 0;
},
{
name = postscriptUniqueID;
value = -1;
},
{
name = postscriptWindowsCharacterSet;
value = 1;
},
{
name = trademarks;
value = "Libre Baskerville is a trademark of Pablo Impallari";
},
{
name = year;
value = 2012;
}
);
date = "2012-11-30 02:57:57 +0000";
familyName = "Libre Baskerville";
features = (
{
code = "	sub f f i by f_f_i;
	sub f f l by f_f_l;
	sub f f b by f_f_b;
	sub f f h by f_f_h;

glyphs = (
{
color = 0;
glyphname = A;
kernLeft = KERN_A;
kernRight = KERN_A;
lastChange = "2024-09-11 02:58:02 +0000";
layers = (
{
anchors = (
{
name = bottom;
pos = (464,0);
},
{
name = top;
pos = (662,830);
}
);
layerId = m001;
shapes = (
{
closed = 1;
nodes = (
(606,780,l),
(145,231,ls),
(22,85,o),
(-35,40,o),
(-98,40,c),
(-108,0,l),
(151,0,l),
(161,40,l),
(106,40,o),
(86,49,o),
(86,74,cs),
(86,90,o),
(95,110,o),
(204,224,cs),
(267,290,l),
(482,290,l),
(455,167,ls),
(431,58,o),
(414,40,o),
(336,40,c),
(326,0,l),
(622,0,l),
(632,40,l),
(559,40,o),
(539,50,o),
(539,89,cs),
(539,105,o),
(543,131,o),
(551,166,cs),
(690,780,l)
);
},
{
closed = 1;
nodes = (
(569,650,l),
(573,650,l),
(491,340,l),
(310,340,l)
);
}
);
width = 763;
}
);
unicode = 65;
},
{
color = 0;
glyphname = Aringacute;
kernLeft = KERN_A;
kernRight = KERN_A;
lastChange = "2024-09-10 23:20:37 +0000";
layers = (
{
layerId = m001;
shapes = (
{
closed = 1;
nodes = (
(577,850,l),
(623,858,l),
(630,841,o),
(646,830,o),
(669,830,cs),
(706,830,o),
(741,857,o),
(752,891,c),
(797,900,o),
(823,915,o),
(823,935,cs),
(823,948,o),
(812,955,o),
(793,955,cs),
(777,955,o),
(763,950,o),
(745,942,c),
(736,953,o),
(722,960,o),
(705,960,cs),
(667,960,o),
(631,930,o),
(622,894,c),
(517,850,l)
);
},
{
closed = 1;
nodes = (
(712,928,o),
(722,918,o),
(722,903,cs),
(722,881,o),
(700,861,o),
(677,861,cs),
(662,861,o),
(652,870,o),
(652,885,cs),
(652,907,o),
(673,928,o),
(696,928,cs)
);
},
{
ref = A;
}
);
width = 763;
}
);
unicode = 506;
},
{
color = 0;
glyphname = AE;
kernLeft = KERN_AE_2ND;
kernRight = KERN_E_1ST;
lastChange = "2024-09-11 03:01:48 +0000";
layers = (
{
anchors = (
{
name = top;
pos = (733,830);
}
);
layerId = m001;
shapes = (
{
closed = 1;
nodes = (
(1006,211,l),
(959,211,l),
(904,87,o),
(839,43,o),
(686,43,cs),
(592,43,o),
(562,57,o),
(562,89,cs),
(562,105,o),
(566,131,o),
(574,166,cs),
(623,385,l),
(685,385,ls),
(746,385,o),
(765,358,o),
(765,299,cs),
(765,284,o),
(764,267,o),
(762,247,c),
(802,247,l),
(862,543,l),
(825,543,l),
(783,451,o),
(757,429,o),
(686,429,cs),
(633,429,l),
(701,726,l),
(831,726,ls),
(915,726,o),
(965,695,o),
(999,568,c),
(1037,568,l),
(1037,770,l),
(461,770,l),
(450,730,l),
(527,730,o),
(558,723,o),
(558,706,cs),
(558,698,o),
(552,689,o),
(542,677,cs),
(168,231,ls),
(45,85,o),
(-12,40,o),
(-75,40,c),
(-85,0,l),
(174,0,l),
(184,40,l),
(129,40,o),
(109,49,o),
(109,74,cs),
(109,90,o),
(118,110,o),
(227,224,cs),
(290,290,l),
(505,290,l),
(478,167,ls),
(454,58,o),
(437,40,o),
(359,40,c),
(349,0,l),
(928,0,l)
);
},
{
closed = 1;
nodes = (
(592,650,l),
(596,650,l),
(514,340,l),
(333,340,l)
);
}
);
width = 1071;
}
);
unicode = 198;
},
{
color = 0;
glyphname = B;
kernLeft = KERN_I_2ND;
lastChange = "2024-09-10 23:20:37 +0000";
layers = (
{
layerId = m001;
shapes = (
{
closed = 1;
nodes = (
(337,385,ls),
(472,385,o),
(537,340,o),
(537,239,cs),
(537,128,o),
(451,45,o),
(304,45,cs),
(262,45,o),
(210,51,o),
(210,105,cs),
(210,130,o),
(224,182,o),
(231,207,cs),
(280,385,l)
);
},
{
closed = 1;
nodes = (
(337,0,ls),
(520,0,o),
(654,85,o),
(654,221,cs),
(654,318,o),
(590,383,o),
(474,407,c),
(474,411,l),
(567,425,o),
(686,467,o),
(686,597,cs),
(686,735,o),
(548,770,o),
(433,770,cs),
(165,770,l),
(154,730,l),
(220,730,o),
(246,714,o),
(246,669,cs),
(246,651,o),
(242,628,o),
(235,600,cs),
(117,159,ls),
(89,55,o),
(63,40,o),
(-18,40,c),
(-29,0,l)
);
},
{
closed = 1;
nodes = (
(364,702,o),
(384,725,o),
(420,725,cs),
(535,725,o),
(580,688,o),
(580,602,cs),
(580,503,o),
(493,436,o),
(367,436,cs),
(293,436,l),
(349,645,ls)
);
}
);
width = 736;
}
);
unicode = 66;
},
{
color = 0;
glyphname = C;
kernLeft = KERN_C;
kernRight = KERN_C;
lastChange = "2024-09-11 02:58:10 +0000";
layers = (
{
anchors = (
{
name = bottom;
pos = (354,0);
},
{
name = top;
pos = (523,830);
}
);
layerId = m001;
shapes = (
{
closed = 1;
nodes = (
(629,213,l),
(558,102,o),
(483,52,o),
(387,52,cs),
(260,52,o),
(194,136,o),
(194,300,cs),
(194,540,o),
(331,728,o),
(506,728,cs),
(608,728,o),
(658,663,o),
(668,519,c),
(706,519,l),
(752,770,l),
(715,770,l),
(678,720,l),
(619,761,o),
(562,780,o),
(498,780,cs),
(273,780,o),
(73,554,o),
(73,301,cs),
(73,110,o),
(185,-10,o),
(365,-10,cs),
(488,-10,o),
(573,47,o),
(665,189,c)
);
}
);
width = 728;
}
);
unicode = 67;
},
{
color = 0;
glyphname = D;
kernLeft = KERN_I_2ND;
kernRight = KERN_D_1ST;
lastChange = "2024-09-11 02:58:15 +0000";
layers = (
{
anchors = (
{
name = bottom;
pos = (241,-2);
},
{
name = top;
pos = (461,830);
}
);
layerId = m001;
shapes = (
{
closed = 1;
nodes = (
(171,730,ls),
(204,730,o),
(254,727,o),
(254,688,cs),
(254,665,o),
(237,618,o),
(232,600,cs),
(117,158,ls),
(90,55,o),
(68,40,o),
(-18,40,c),
(-29,0,l),
(321,0,ls),
(450,0,o),
(565,29,o),
(658,121,cs),
(739,201,o),
(797,326,o),
(797,447,cs),
(797,540,o),
(763,631,o),
(688,693,cs),
(618,751,o),
(527,770,o),
(436,770,cs),
(165,770,l),
(152,730,l)
);
},
{
closed = 1;
nodes = (
(367,714,o),
(389,720,o),
(428,720,cs),
(585,720,o),
(681,624,o),
(681,457,cs),
(681,279,o),
(573,44,o),
(312,44,cs),
(283,44,o),
(212,47,o),
(212,118,cs),
(212,132,o),
(215,150,o),
(237,231,cs),
(355,669,ls)
);
}
);
width = 836;
}
);
unicode = 68;
},
{
color = 0;
glyphname = Dcroat;
kernLeft = KERN_I_2ND;
kernRight = KERN_D_1ST;
lastChange = "2024-09-10 23:20:37 +0000";
layers = (
{
layerId = m001;
shapes = (
{
closed = 1;
nodes = (
(404,416,l),
(94,416,l),
(81,366,l),
(391,366,l)
);
},
{
pos = (3,0);
ref = D;
}
);
width = 839;
}
);
unicode = 272;
},
{
color = 0;
glyphname = Eth;
kernLeft = KERN_I_2ND;
kernRight = KERN_D_1ST;
lastChange = "2024-09-10 23:20:37 +0000";
layers = (
{
layerId = m001;
shapes = (
{
closed = 1;
nodes = (
(404,416,l),
(94,416,l),
(81,366,l),
(391,366,l)
);
},
{
pos = (3,0);
ref = D;
}
);
width = 839;
}
);
unicode = 208;
},
{
color = 0;
glyphname = E;
kernLeft = KERN_I_2ND;
kernRight = KERN_E_1ST;
lastChange = "2024-09-11 02:58:21 +0000";
layers = (
{
anchors = (
{
name = bottom;
pos = (302,0);
},
{
name = top;
pos = (493,830);
}
);
layerId = m001;
shapes = (
{
closed = 1;
nodes = (
(597,0,l),
(675,211,l),
(628,211,l),
(573,87,o),
(508,43,o),
(355,43,cs),
(251,43,o),
(213,66,o),
(213,114,cs),
(213,130,o),
(216,148,o),
(222,170,cs),
(279,385,l),
(354,385,ls),
(415,385,o),
(434,358,o),
(434,299,cs),
(434,284,o),
(433,267,o),
(431,247,c),
(471,247,l),
(531,543,l),
(494,543,l),
(452,451,o),
(426,429,o),
(355,429,cs),
(292,429,l),
(370,726,l),
(500,726,ls),
(584,726,o),
(634,695,o),
(668,568,c),
(706,568,l),
(706,770,l),
(160,770,l),
(149,730,l),
(221,730,o),
(249,721,o),
(249,677,cs),
(249,658,o),
(244,633,o),
(235,599,cs),
(119,158,ls),
(94,63,o),
(73,40,o),
(-15,40,c),
(-26,0,l)
);
}
);
width = 740;
}
);
unicode = 69;
},
{
color = 0;
glyphname = Schwa;
lastChange = "2024-09-10 23:20:37 +0000";
layers = (
{
layerId = m001;
shapes = (
{
closed = 1;
nodes = (
(240,662,o),
(321,717,o),
(391,717,cs),
(466,717,o),
(507,656,o),
(507,545,cs),
(507,519,o),
(506,493,o),
(501,466,c),
(237,409,o),
(16,249,o),
(16,115,cs),
(16,42,o),
(81,-10,o),
(173,-10,cs),
(389,-10,o),
(628,282,o),
(628,547,cs),
(628,695,o),
(555,781,o),
(427,781,cs),
(312,781,o),
(210,719,o),
(130,600,c),
(176,570,l)
);
},
{
closed = 1;
nodes = (
(165,48,o),
(141,68,o),
(141,108,cs),
(141,227,o),
(288,349,o),
(487,401,c),
(433,220,o),
(309,48,o),
(199,48,cs)
);
}
);
width = 644;
}
);
unicode = 399;
},
{
color = 0;
glyphname = F;
kernLeft = KERN_I_2ND;
lastChange = "2024-09-10 23:20:37 +0000";
layers = (
{
layerId = m001;
shapes = (
{
closed = 1;
nodes = (
(324,0,l),
(335,43,l),
(245,43,o),
(213,66,o),
(213,114,cs),
(213,130,o),
(216,148,o),
(222,170,cs),
(279,385,l),
(359,385,ls),
(412,385,o),
(429,355,o),
(429,289,cs),
(429,271,o),
(428,251,o),
(426,227,c),
(466,227,l),
(536,543,l),
(499,543,l),
(457,451,o),
(431,429,o),
(360,429,cs),
(292,429,l),
(370,726,l),
(500,726,ls),
(584,726,o),
(634,695,o),
(668,568,c),
(706,568,l),
(706,770,l),
(160,770,l),
(149,730,l),
(221,730,o),
(249,721,o),
(249,677,cs),
(249,658,o),
(244,633,o),
(235,599,cs),
(119,158,ls),
(94,63,o),
(73,40,o),
(-15,40,c),
(-26,0,l)
);
}
);
width = 659;
}
);
unicode = 70;
},
{
color = 0;
glyphname = G;
kernLeft = KERN_G;
kernRight = KERN_G;
lastChange = "2024-09-11 02:58:29 +0000";
layers = (
{
anchors = (
{
name = bottom;
pos = (361,0);
},
{
name = top;
pos = (564,830);
}
);
layerId = m001;
shapes = (
{
closed = 1;
nodes = (
(260,44,o),
(194,130,o),
(194,300,cs),
(194,540,o),
(339,728,o),
(526,728,cs),
(646,728,o),
(705,672,o),
(718,550,c),
(756,550,l),
(792,770,l),
(755,770,l),
(718,720,l),
(653,761,o),
(590,780,o),
(518,780,cs),
(283,780,o),
(73,554,o),
(73,301,cs),
(73,110,o),
(185,-10,o),
(365,-10,cs),
(512,-10,o),
(582,39,o),
(643,49,c),
(644,88,o),
(656,127,o),
(666,166,cs),
(699,292,o),
(713,300,o),
(770,300,c),
(780,339,l),
(506,339,l),
(497,300,l),
(563,300,o),
(582,275,o),
(582,222,cs),
(582,106,o),
(499,44,o),
(387,44,cs)
);
}
);
width = 809;
}
);
unicode = 71;
},
{
color = 0;
glyphname = H;
kernLeft = KERN_I_2ND;
kernRight = KERN_I_1ST;
lastChange = "2024-09-11 02:58:34 +0000";
layers = (
{
anchors = (
{
name = bottom;
pos = (377,0);
},
{
name = top;
pos = (599,830);
}
);
layerId = m001;
shapes = (
{
closed = 1;
nodes = (
(856,702,o),
(879,730,o),
(967,730,c),
(978,770,l),
(653,770,l),
(642,730,l),
(714,730,o),
(741,723,o),
(741,682,cs),
(741,663,o),
(736,637,o),
(726,600,cs),
(678,418,l),
(290,418,l),
(329,566,ls),
(365,702,o),
(388,730,o),
(476,730,c),
(487,770,l),
(162,770,l),
(151,730,l),
(223,730,o),
(250,723,o),
(250,682,cs),
(250,663,o),
(245,637,o),
(235,600,cs),
(118,158,ls),
(92,60,o),
(62,40,o),
(-17,40,c),
(-28,0,l),
(291,0,l),
(303,40,l),
(239,40,o),
(212,53,o),
(212,98,cs),
(212,116,o),
(216,139,o),
(224,168,cs),
(276,367,l),
(664,367,l),
(609,158,ls),
(583,60,o),
(553,40,o),
(474,40,c),
(463,0,l),
(782,0,l),
(794,40,l),
(730,40,o),
(703,53,o),
(703,98,cs),
(703,116,o),
(707,139,o),
(715,168,cs),
(820,566,ls)
);
}
);
width = 911;
}
);
unicode = 72;
},
{
color = 0;
glyphname = Hbar;
kernLeft = KERN_I_2ND;
kernRight = KERN_I_1ST;
lastChange = "2024-09-10 23:20:37 +0000";
layers = (
{
layerId = m001;
shapes = (
{
closed = 1;
nodes = (
(942,591,l),
(128,591,l),
(115,541,l),
(929,541,l)
);
},
{
pos = (2,0);
ref = H;
}
);
width = 913;
}
);
unicode = 294;
},
{
color = 0;
glyphname = I;
kernLeft = KERN_I_2ND;
kernRight = KERN_I_1ST;
lastChange = "2024-09-11 02:58:39 +0000";
layers = (
{
anchors = (
{
name = bottom;
pos = (124,0);
},
{
name = top;
pos = (351,830);
}
);
layerId = m001;
shapes = (
{
closed = 1;
nodes = (
(365,702,o),
(388,730,o),
(476,730,c),
(487,770,l),
(162,770,l),
(151,730,l),
(223,730,o),
(250,723,o),
(250,682,cs),
(250,663,o),
(245,637,o),
(235,600,cs),
(118,158,ls),
(92,60,o),
(62,40,o),
(-17,40,c),
(-28,0,l),
(291,0,l),
(303,40,l),
(239,40,o),
(212,53,o),
(212,98,cs),
(212,116,o),
(216,139,o),
(224,168,cs),
(329,566,ls)
);
}
);
width = 420;
}
);
unicode = 73;
},
{
color = 0;
glyphname = J;
kernLeft = KERN_J_2ND;
kernRight = KERN_J_1ST;
lastChange = "2024-09-11 02:58:45 +0000";
layers = (
{
anchors = (
{
name = top;
pos = (484,830);
}
);
layerId = m001;
shapes = (
{
closed = 1;
nodes = (
(100,43,o),
(75,61,o),
(75,87,cs),
(75,122,o),
(127,123,o),
(127,173,cs),
(127,207,o),
(101,231,o),
(65,231,cs),
(15,231,o),
(-23,184,o),
(-23,121,cs),
(-23,38,o),
(34,-10,o),
(135,-10,cs),
(254,-10,o),
(342,60,o),
(375,186,cs),
(475,566,ls),
(511,704,o),
(531,730,o),
(612,730,c),
(623,770,l),
(298,770,l),
(287,730,l),
(374,730,o),
(396,720,o),
(396,682,cs),
(396,664,o),
(391,637,o),
(381,600,cs),
(282,222,ls),
(252,109,o),
(199,43,o),
(134,43,cs)
);
}
);
width = 543;
}
);
unicode = 74;
},
{
color = 0;
glyphname = K;
kernLeft = KERN_I_2ND;
kernRight = KERN_K_1ST;
lastChange = "2024-09-10 23:20:37 +0000";
layers = (
{
anchors = (
{
name = bottom;
pos = (358,0);
}
);
layerId = m001;
shapes = (
{
closed = 1;
nodes = (
(364,702,o),
(387,730,o),
(475,730,c),
(486,770,l),
(161,770,l),
(150,730,l),
(222,730,o),
(249,723,o),
(249,682,cs),
(249,663,o),
(244,637,o),
(234,600,cs),
(117,158,ls),
(91,60,o),
(66,40,o),
(-8,40,c),
(-19,0,l),
(300,0,l),
(312,40,l),
(241,40,o),
(211,53,o),
(211,98,cs),
(211,116,o),
(215,139,o),
(223,168,cs),
(273,357,l),
(313,385,l),
(471,173,ls),
(510,120,o),
(528,87,o),
(528,68,cs),
(528,45,o),
(501,40,o),
(454,40,c),
(443,0,l),
(757,0,l),
(768,40,l),
(714,40,o),
(701,45,o),
(594,187,cs),
(398,445,l),
(552,553,ls),
(762,701,o),
(793,730,o),
(836,730,c),
(846,770,l),
(562,770,l),
(552,730,l),
(595,730,o),
(619,721,o),
(619,702,cs),
(619,677,o),
(582,635,o),
(498,575,cs),
(291,427,l),
(328,566,ls)
);
}
);
width = 825;
}
);
unicode = 75;
},
{
color = 0;
glyphname = L;
kernLeft = KERN_I_2ND;
kernRight = KERN_L_1ST;
lastChange = "2024-09-11 02:58:53 +0000";
layers = (
{
anchors = (
{
name = bottom;
pos = (247,0);
},
{
name = top;
pos = (339,830);
}
);
layerId = m001;
shapes = (
{
closed = 1;
nodes = (
(568,0,l),
(656,231,l),
(609,231,l),
(552,93,o),
(485,43,o),
(326,43,cs),
(243,43,o),
(214,66,o),
(214,114,cs),
(214,130,o),
(217,148,o),
(223,170,cs),
(327,566,ls),
(363,702,o),
(386,730,o),
(474,730,c),
(485,770,l),
(160,770,l),
(149,730,l),
(221,730,o),
(248,723,o),
(248,682,cs),
(248,663,o),
(242,637,o),
(233,600,cs),
(120,158,ls),
(96,63,o),
(73,40,o),
(-14,40,c),
(-25,0,l)
);
}
);
width = 702;
}
);
unicode = 76;
},
{
color = 0;
glyphname = Lslash;
kernLeft = KERN_I_2ND;
kernRight = KERN_L_1ST;
lastChange = "2024-09-10 23:20:37 +0000";
layers = (
{
layerId = m001;
shapes = (
{
closed = 1;
nodes = (
(411,528,l),
(100,363,l),
(83,298,l),
(394,463,l)
);
},
{
pos = (2,0);
ref = L;
}
);
width = 704;
}
);
unicode = 321;
},
{
color = 0;
glyphname = M;
kernRight = KERN_I_1ST;
lastChange = "2024-09-10 23:20:37 +0000";
layers = (
{
layerId = m001;
shapes = (
{
closed = 1;
nodes = (
(435,0,l),
(392,0,l),
(314,655,l),
(310,655,l),
(182,168,ls),
(178,152,o),
(175,137,o),
(175,124,cs),
(175,70,o),
(209,41,o),
(261,40,c),
(249,0,l),
(-27,0,l),
(-16,40,l),
(46,40,o),
(101,90,o),
(119,158,cs),
(236,600,ls),
(246,637,o),
(251,663,o),
(251,682,cs),
(251,723,o),
(224,730,o),
(152,730,c),
(163,770,l),
(403,770,l),
(474,174,l),
(478,174,l),
(855,770,l),
(1066,770,l),
(1055,730,l),
(979,730,o),
(964,701,o),
(928,566,cs),
(823,168,ls),
(815,139,o),
(811,116,o),
(811,98,cs),
(811,53,o),
(841,40,o),
(912,40,c),
(900,0,l),
(581,0,l),
(592,40,l),
(666,40,o),
(691,60,o),
(717,158,cs),
(849,655,l),
(845,655,l)
);
}
);
width = 1020;
}
);
unicode = 77;
},
{
color = 0;
glyphname = N;
kernLeft = KERN_N;
kernRight = KERN_N;
lastChange = "2024-09-11 02:59:06 +0000";
layers = (
{
anchors = (
{
name = bottom;
pos = (384,0);
},
{
name = top;
pos = (557,830);
}
);
layerId = m001;
shapes = (
{
closed = 1;
nodes = (
(782,612,ls),
(800,680,o),
(846,730,o),
(897,730,c),
(908,770,l),
(652,770,l),
(640,730,l),
(687,729,o),
(724,696,o),
(724,639,cs),
(724,628,o),
(722,615,o),
(719,602,cs),
(613,197,l),
(609,197,l),
(359,770,l),
(124,770,l),
(112,730,l),
(200,729,o),
(259,696,o),
(259,633,cs),
(259,623,o),
(258,613,o),
(255,602,cs),
(137,158,ls),
(119,90,o),
(64,40,o),
(2,40,c),
(-9,0,l),
(277,0,l),
(289,40,l),
(230,41,o),
(194,70,o),
(194,125,cs),
(194,138,o),
(196,152,o),
(200,168,cs),
(314,602,l),
(318,602,l),
(580,0,l),
(620,0,l)
);
}
);
width = 842;
}
);
unicode = 78;
},
{
color = 0;
glyphname = Eng;
kernLeft = KERN_N;
kernRight = KERN_N;
lastChange = "2024-09-10 23:20:37 +0000";
layers = (
{
layerId = m001;
shapes = (
{
closed = 1;
nodes = (
(379,-207,o),
(358,-189,o),
(358,-164,cs),
(358,-131,o),
(400,-131,o),
(400,-87,cs),
(400,-56,o),
(378,-34,o),
(347,-34,cs),
(298,-34,o),
(260,-82,o),
(260,-143,cs),
(260,-215,o),
(314,-260,o),
(400,-260,cs),
(503,-260,o),
(571,-196,o),
(605,-64,cs),
(703,316,l),
(654,350,l),
(555,-28,ls),
(525,-141,o),
(471,-207,o),
(410,-207,cs)
);
},
{
ref = N;
}
);
width = 842;
}
);
unicode = 330;
},
{
color = 0;
glyphname = O;
kernLeft = KERN_O_2ND;
kernRight = KERN_O_1ST;
lastChange = "2024-09-11 02:59:12 +0000";
layers = (
{
anchors = (
{
name = bottom;
pos = (324,0);
},
{
name = top;
pos = (534,830);
}
);
layerId = m001;
shapes = (
{
closed = 1;
nodes = (
(275,780,o),
(74,558,o),
(74,303,cs),
(74,114,o),
(185,-10,o),
(356,-10,cs),
(585,-10,o),
(784,212,o),
(784,469,cs),
(784,659,o),
(675,780,o),
(505,780,cs)
);
},
{
closed = 1;
nodes = (
(613,728,o),
(663,655,o),
(663,496,cs),
(663,234,o),
(538,44,o),
(370,44,cs),
(256,44,o),
(195,131,o),
(195,300,cs),
(195,540,o),
(331,728,o),
(505,728,cs)
);
}
);
width = 820;
}
);
unicode = 79;
},
{
color = 0;
glyphname = Oslash;
kernLeft = KERN_O_2ND;
kernRight = KERN_O_1ST;
lastChange = "2024-09-10 23:20:37 +0000";
layers = (
{
layerId = m001;
shapes = (
{
closed = 1;
nodes = (
(115,-62,l),
(818,828,l),
(749,828,l),
(47,-62,l)
);
},
{
ref = O;
}
);
width = 820;
}
);
unicode = 216;
},
{
color = 0;
glyphname = Oslashacute;
kernLeft = KERN_O_2ND;
kernRight = KERN_O_1ST;
lastChange = "2024-09-10 23:20:37 +0000";
layers = (
{
layerId = m001;
shapes = (
{
closed = 1;
nodes = (
(115,-62,l),
(818,828,l),
(749,828,l),
(47,-62,l)
);
},
{
ref = O;
},
{
pos = (427,0);
ref = acute.case;
}
);
width = 820;
}
);
unicode = 510;
},
{
color = 0;
glyphname = OE;
kernLeft = KERN_O_2ND;
kernRight = KERN_E_1ST;
lastChange = "2024-09-10 23:20:37 +0000";
layers = (
{
layerId = m001;
shapes = (
{
closed = 1;
nodes = (
(329,770,o),
(68,555,o),
(68,299,cs),
(68,127,o),
(198,0,o),
(401,0,cs),
(1015,0,l),
(1093,211,l),
(1046,211,l),
(993,93,o),
(934,43,o),
(793,43,cs),
(691,43,o),
(648,60,o),
(647,113,cs),
(647,125,o),
(648,140,o),
(652,157,cs),
(707,387,l),
(828,386,o),
(851,371,o),
(851,302,cs),
(851,286,o),
(850,268,o),
(849,247,c),
(889,247,l),
(949,542,l),
(911,542,l),
(873,442,o),
(839,427,o),
(716,427,c),
(784,710,l),
(784,720,o),
(792,727,o),
(803,727,cs),
(884,727,ls),
(1008,727,o),
(1050,700,o),
(1086,568,c),
(1124,568,l),
(1124,770,l),
(585,770,ls)
);
},
{
closed = 1;
nodes = (
(639,730,o),
(665,719,o),
(665,674,cs),
(665,660,o),
(661,641,o),
(657,618,c),
(546,152,ls),
(524,58,o),
(509,42,o),
(415,42,cs),
(275,42,o),
(192,125,o),
(192,263,cs),
(192,298,o),
(197,334,o),
(207,376,cs),
(257,595,o),
(398,730,o),
(575,730,cs)
);
}
);
width = 1158;
}
);
unicode = 338;
},
{
color = 0;
glyphname = P;
kernLeft = KERN_I_2ND;
lastChange = "2024-09-10 23:20:37 +0000";
layers = (
{
layerId = m001;
shapes = (
{
closed = 1;
nodes = (
(347,358,ls),
(556,358,o),
(708,459,o),
(708,598,cs),
(708,706,o),
(606,770,o),
(435,770,cs),
(157,770,l),
(146,730,l),
(227,728,o),
(250,715,o),
(250,675,cs),
(250,658,o),
(246,633,o),
(237,600,cs),
(119,159,ls),
(97,77,o),
(58,40,o),
(-6,40,c),
(-17,0,l),
(315,0,l),
(326,45,l),
(250,45,o),
(212,65,o),
(212,105,cs),
(212,122,o),
(220,160,o),
(233,207,cs),
(275,358,l)
);
},
{
closed = 1;
nodes = (
(368,709,o),
(383,725,o),
(437,725,cs),
(543,725,o),
(597,684,o),
(597,604,cs),
(597,490,o),
(488,409,o),
(337,409,cs),
(288,409,l),
(351,645,ls)
);
}
);
width = 667;
}
);
unicode = 80;
},
{
color = 0;
glyphname = Thorn;
kernLeft = KERN_I_2ND;
lastChange = "2024-09-10 23:20:37 +0000";
layers = (
{
layerId = m001;
shapes = (
{
closed = 1;
nodes = (
(373,718,o),
(393,732,o),
(512,732,c),
(523,770,l),
(170,770,l),
(159,732,l),
(230,730,o),
(250,719,o),
(250,682,cs),
(250,667,o),
(247,647,o),
(239,618,cs),
(114,152,ls),
(89,58,o),
(68,41,o),
(-25,38,c),
(-36,0,l),
(316,0,l),
(327,38,l),
(236,38,o),
(209,50,o),
(209,93,cs),
(209,108,o),
(212,127,o),
(220,157,cs),
(225,176,l),
(315,176,ls),
(543,176,o),
(688,273,o),
(688,425,cs),
(688,539,o),
(607,596,o),
(447,596,cs),
(338,596,l),
(343,613,ls)
);
},
{
closed = 1;
nodes = (
(324,543,o),
(332,549,o),
(342,549,cs),
(434,549,ls),
(525,549,o),
(561,520,o),
(561,446,cs),
(561,312,o),
(463,226,o),
(310,226,cs),
(239,226,l),
(321,532,ls)
);
}
);
width = 705;
}
);
unicode = 222;
},
{
color = 0;
glyphname = Q;
kernRight = KERN_O_1ST;
lastChange = "2024-09-10 23:20:37 +0000";
layers = (
{
layerId = m001;
shapes = (
{
closed = 1;
nodes = (
(278,780,o),
(74,558,o),
(74,304,cs),
(74,119,o),
(181,-3,o),
(347,-10,c),
(155,-91,ls),
(84,-121,o),
(62,-142,o),
(62,-176,cs),
(62,-207,o),
(81,-226,o),
(113,-226,cs),
(186,-226,o),
(185,-129,o),
(258,-129,cs),
(342,-129,o),
(414,-260,o),
(565,-260,cs),
(677,-260,o),
(767,-188,o),
(791,-79,c),
(758,-64,l),
(738,-133,o),
(681,-168,o),
(614,-168,cs),
(507,-168,o),
(456,-77,o),
(344,-77,c),
(342,-74,l),
(559,44,ls),
(699,120,o),
(798,287,o),
(798,467,cs),
(798,658,o),
(687,780,o),
(513,780,cs)
);
},
{
closed = 1;
nodes = (
(625,728,o),
(677,654,o),
(677,494,cs),
(677,241,o),
(548,52,o),
(375,52,cs),
(258,52,o),
(195,139,o),
(195,301,cs),
(195,541,o),
(335,728,o),
(513,728,cs)
);
}
);
width = 834;
}
);
unicode = 81;
},
{
color = 0;
glyphname = R;
kernLeft = KERN_I_2ND;
kernRight = KERN_R_1ST;
lastChange = "2024-09-11 02:59:23 +0000";
layers = (
{
anchors = (
{
name = bottom;
pos = (337,0);
},
{
name = top;
pos = (464,830);
}
);
layerId = m001;
shapes = (
{
closed = 1;
nodes = (
(368,375,l),
(515,0,l),
(705,0,l),
(716,40,l),
(629,40,o),
(603,68,o),
(548,204,cs),
(474,387,l),
(606,414,o),
(693,489,o),
(693,598,cs),
(693,706,o),
(595,770,o),
(435,770,cs),
(157,770,l),
(146,730,l),
(227,728,o),
(250,715,o),
(250,675,cs),
(250,658,o),
(246,633,o),
(237,600,cs),
(119,159,ls),
(97,77,o),
(58,40,o),
(-6,40,c),
(-17,0,l),
(315,0,l),
(326,45,l),
(250,45,o),
(212,65,o),
(212,105,cs),
(212,122,o),
(220,160,o),
(233,207,cs),
(280,375,l)
);
},
{
closed = 1;
nodes = (
(368,709,o),
(383,725,o),
(437,725,cs),
(531,725,o),
(582,684,o),
(582,604,cs),
(582,490,o),
(482,426,o),
(342,426,cs),
(293,426,l),
(351,645,ls)
);
}
);
width = 763;
}
);
unicode = 82;
},
{
color = 0;
glyphname = S;
kernLeft = KERN_S;
kernRight = KERN_S;
lastChange = "2024-09-11 02:59:29 +0000";
layers = (
{
anchors = (
{
name = bottom;
pos = (251,0);
},
{
name = top;
pos = (410,830);
}
);
layerId = m001;
shapes = (
{
closed = 1;
nodes = (
(492,759,o),
(444,780,o),
(382,780,cs),
(251,780,o),
(146,687,o),
(146,572,cs),
(146,387,o),
(428,349,o),
(428,182,cs),
(428,102,o),
(359,43,o),
(264,43,cs),
(161,43,o),
(100,117,o),
(91,254,c),
(58,254,l),
(16,0,l),
(51,0,l),
(72,76,l),
(127,18,o),
(189,-10,o),
(263,-10,cs),
(404,-10,o),
(517,99,o),
(517,234,cs),
(517,439,o),
(244,468,o),
(244,612,cs),
(244,680,o),
(303,729,o),
(385,729,cs),
(470,729,o),
(508,678,o),
(512,558,c),
(546,558,l),
(588,755,l),
(558,755,l),
(538,713,l)
);
}
);
width = 598;
}
);
unicode = 83;
},
{
color = 0;
glyphname = T;
kernLeft = KERN_T;
kernRight = KERN_T;
lastChange = "2024-09-11 02:59:35 +0000";
layers = (
{
anchors = (
{
name = bottom;
pos = (308,0);
},
{
name = top;
pos = (539,830);
}
);
layerId = m001;
shapes = (
{
closed = 1;
nodes = (
(550,706,o),
(576,728,o),
(642,728,cs),
(735,728,o),
(783,685,o),
(783,557,c),
(821,557,l),
(841,770,l),
(173,770,l),
(78,557,l),
(118,557,l),
(175,665,o),
(261,728,o),
(378,728,cs),
(416,728,o),
(433,712,o),
(433,674,cs),
(433,658,o),
(430,638,o),
(424,614,cs),
(302,158,ls),
(274,54,o),
(236,40,o),
(157,40,c),
(146,0,l),
(494,0,l),
(506,40,l),
(422,40,o),
(391,55,o),
(391,98,cs),
(391,116,o),
(399,138,o),
(407,168,cs),
(525,610,ls)
);
}
);
width = 780;
}
);
unicode = 84;
},
{
color = 0;
glyphname = Tbar;
kernLeft = KERN_T;
kernRight = KERN_T;
lastChange = "2024-09-10 23:20:37 +0000";
layers = (
{
layerId = m001;
shapes = (
{
closed = 1;
nodes = (
(757,449,l),
(123,449,l),
(110,399,l),
(744,399,l)
);
},
{
pos = (4,0);
ref = T;
}
);
width = 797;
}
);
unicode = 358;
},
{
color = 0;
glyphname = U;
kernLeft = KERN_U;
kernRight = KERN_U;
lastChange = "2024-09-11 02:59:42 +0000";
layers = (
{
anchors = (
{
name = bottom;
pos = (345,0);
},
{
name = top;
pos = (543,830);
}
);
layerId = m001;
shapes = (
{
closed = 1;
nodes = (
(121,304,o),
(114,261,o),
(114,219,cs),
(114,73,o),
(198,-10,o),
(367,-10,cs),
(539,-10,o),
(653,128,o),
(710,392,cs),
(753,592,ls),
(779,712,o),
(798,730,o),
(863,730,c),
(875,770,l),
(612,770,l),
(600,730,l),
(662,727,o),
(702,710,o),
(702,670,cs),
(702,624,o),
(663,418,o),
(622,290,cs),
(577,150,o),
(507,46,o),
(375,46,cs),
(270,46,o),
(214,114,o),
(214,220,cs),
(214,248,o),
(218,280,o),
(227,314,cs),
(292,565,ls),
(329,710,o),
(345,730,o),
(440,730,c),
(451,770,l),
(132,770,l),
(119,730,l),
(188,730,o),
(213,716,o),
(213,676,cs),
(213,657,o),
(207,626,o),
(200,599,cs),
(134,353,ls)
);
}
);
width = 808;
}
);
unicode = 85;
},
{
color = 0;
glyphname = V;
lastChange = "2024-09-10 23:20:37 +0000";
layers = (
{
layerId = m001;
shapes = (
{
closed = 1;
nodes = (
(244,142,l),
(345,603,ls),
(369,712,o),
(386,730,o),
(464,730,c),
(474,770,l),
(178,770,l),
(168,730,l),
(241,730,o),
(261,720,o),
(261,681,cs),
(261,665,o),
(257,639,o),
(249,604,cs),
(110,-10,l),
(194,-10,l),
(645,539,ls),
(766,687,o),
(825,730,o),
(888,730,c),
(898,770,l),
(639,770,l),
(629,730,l),
(675,730,o),
(698,725,o),
(698,705,cs),
(698,681,o),
(660,634,o),
(586,546,cs),
(248,142,l)
);
}
);
width = 752;
}
);
unicode = 86;
},
{
color = 0;
glyphname = W;
kernLeft = KERN_W;
kernRight = KERN_W;
lastChange = "2024-09-11 02:59:49 +0000";
layers = (
{
anchors = (
{
name = top;
pos = (683,830);
}
);
layerId = m001;
shapes = (
{
closed = 1;
nodes = (
(584,152,l),
(685,603,ls),
(709,712,o),
(726,730,o),
(804,730,c),
(814,770,l),
(528,770,l),
(518,730,l),
(583,730,o),
(601,720,o),
(601,681,cs),
(601,665,o),
(597,639,o),
(589,604,cs),
(585,587,l),
(246,152,l),
(242,152,l),
(343,603,ls),
(367,711,o),
(386,730,o),
(442,730,c),
(452,770,l),
(176,770,l),
(166,730,l),
(239,730,o),
(259,720,o),
(259,681,cs),
(259,665,o),
(255,639,o),
(247,604,cs),
(108,-10,l),
(192,-10,l),
(558,467,l),
(450,-10,l),
(534,-10,l),
(955,539,ls),
(1071,691,o),
(1135,730,o),
(1198,730,c),
(1208,770,l),
(949,770,l),
(939,730,l),
(981,730,o),
(1002,726,o),
(1002,707,cs),
(1002,684,o),
(967,637,o),
(896,546,cs),
(588,152,l)
);
}
);
width = 1064;
}
);
unicode = 87;
},
{
color = 0;
glyphname = X;
lastChange = "2024-09-10 23:20:37 +0000";
layers = (
{
layerId = m001;
shapes = (
{
closed = 1;
nodes = (
(629,614,ls),
(709,702,o),
(749,730,o),
(807,730,c),
(818,770,l),
(560,770,l),
(548,730,l),
(587,730,o),
(606,720,o),
(606,700,cs),
(606,676,o),
(579,635,o),
(518,567,cs),
(432,471,l),
(383,579,ls),
(362,626,o),
(352,657,o),
(352,680,cs),
(352,714,o),
(373,730,o),
(419,730,c),
(430,770,l),
(119,770,l),
(108,730,l),
(175,730,o),
(203,709,o),
(245,622,cs),
(353,395,l),
(122,129,ls),
(55,52,o),
(46,47,o),
(-29,40,c),
(-39,0,l),
(250,0,l),
(259,40,l),
(205,40,o),
(181,51,o),
(181,76,cs),
(181,105,o),
(215,159,o),
(294,246,cs),
(377,338,l),
(458,159,ls),
(469,134,o),
(476,107,o),
(476,90,cs),
(476,56,o),
(449,40,o),
(392,40,c),
(383,0,l),
(713,0,l),
(722,40,l),
(649,40,o),
(617,67,o),
(571,167,cs),
(454,422,l)
);
}
);
width = 781;
}
);
unicode = 88;
},
{
color = 0;
glyphname = Y;
kernLeft = KERN_Y;
kernRight = KERN_Y;
lastChange = "2024-09-11 02:59:56 +0000";
layers = (
{
anchors = (
{
name = top;
pos = (480,830);
}
);
layerId = m001;
shapes = (
{
closed = 1;
nodes = (
(654,649,ls),
(701,716,o),
(714,730,o),
(768,730,c),
(779,770,l),
(532,770,l),
(521,730,l),
(567,730,o),
(595,715,o),
(595,687,cs),
(595,663,o),
(583,646,o),
(554,604,cs),
(415,401,l),
(308,659,ls),
(302,673,o),
(300,686,o),
(300,695,cs),
(300,721,o),
(321,730,o),
(371,730,c),
(382,770,l),
(101,770,l),
(90,730,l),
(156,730,o),
(173,720,o),
(213,624,cs),
(333,336,l),
(287,158,ls),
(261,59,o),
(228,40,o),
(142,40,c),
(131,0,l),
(470,0,l),
(482,40,l),
(411,40,o),
(381,53,o),
(381,98,cs),
(381,116,o),
(385,139,o),
(393,168,cs),
(440,348,l)
);
}
);
width = 689;
}
);
unicode = 89;
},
{
color = 0;
glyphname = Z;
kernLeft = KERN_Z_2ND;
kernRight = KERN_Z_1ST;
lastChange = "2024-09-11 03:00:01 +0000";
layers = (
{
anchors = (
{
name = bottom;
pos = (259,0);
},
{
name = top;
pos = (468,830);
}
);
layerId = m001;
shapes = (
{
closed = 1;
nodes = (
(696,770,l),
(211,770,l),
(110,572,l),
(153,572,l),
(230,698,o),
(276,722,o),
(435,722,cs),
(536,722,l),
(-7,21,l),
(-7,0,l),
(524,0,l),
(608,221,l),
(565,221,l),
(507,96,o),
(409,50,o),
(283,50,cs),
(158,50,l),
(696,751,l)
);
}
);
width = 672;
}
);
unicode = 90;
},
{
color = 4;
glyphname = A.ss01;
lastChange = "2024-09-10 23:17:39 +0000";
layers = (
{
layerId = m001;
shapes = (
{
closed = 1;
nodes = (
(466,780,l),
(126,231,ls),
(36,85,o),
(-10,40,o),
(-73,40,c),
(-75,0,l),
(183,0,l),
(185,40,l),
(133,40,o),
(102,49,o),
(102,78,cs),
(102,89,o),
(106,107,o),
(184,224,cs),
(228,290,l),
(451,290,l),
(451,167,ls),
(451,58,o),
(438,40,o),
(360,40,c),
(358,0,l),
(654,0,l),
(656,40,l),
(587,40,o),
(561,49,o),
(552,89,cs),
(548,105,o),
(547,134,o),
(547,166,cs),
(550,780,l)
);
},
{
closed = 1;
nodes = (
(458,673,l),
(462,673,l),
(449,340,l),
(258,340,l)
);
}
);
width = 728;
}
);
},
{
color = 4;
glyphname = V.ss01;
lastChange = "2024-09-10 23:17:39 +0000";
layers = (
{
layerId = m001;
shapes = (
{
closed = 1;
nodes = (
(304,116,l),
(306,257,o),
(306,252,o),
(313,603,cs),
(315,712,o),
(326,730,o),
(404,730,c),
(406,770,l),
(110,770,l),
(108,730,l),
(210,730,o),
(217,711,o),
(217,608,cs),
(217,541,o),
(214,220,o),
(214,-10,c),
(298,-10,l),
(638,539,ls),
(728,685,o),
(774,730,o),
(837,730,c),
(839,770,l),
(581,770,l),
(579,730,l),
(633,730,o),
(658,720,o),
(658,691,cs),
(658,679,o),
(654,671,o),
(576,546,cs),
(308,116,l)
);
}
);
width = 723;
}
);
},
{
color = 4;
glyphname = W.ss01;
lastChange = "2024-09-10 23:17:39 +0000";
layers = (
{
layerId = m001;
shapes = (
{
closed = 1;
nodes = (
(651,142,l),
(651,296,o),
(652,449,o),
(653,603,cs),
(654,712,o),
(666,730,o),
(744,730,c),
(746,770,l),
(460,770,l),
(458,730,l),
(523,730,o),
(543,720,o),
(552,681,cs),
(556,665,o),
(557,639,o),
(557,604,cs),
(557,579,l),
(313,144,l),
(309,144,l),
(309,297,o),
(310,450,o),
(311,603,cs),
(312,711,o),
(326,730,o),
(382,730,c),
(384,770,l),
(108,770,l),
(106,730,l),
(179,730,o),
(201,720,o),
(210,681,cs),
(214,665,o),
(215,639,o),
(215,604,cs),
(213,399,o),
(211,195,o),
(210,-10,c),
(294,-10,l),
(555,467,l),
(555,-10,l),
(636,-10,l),
(938,539,ls),
(1021,690,o),
(1075,730,o),
(1138,730,c),
(1140,770,l),
(881,770,l),
(879,730,l),
(921,730,o),
(948,726,o),
(948,707,cs),
(948,684,o),
(927,637,o),
(877,546,cs),
(655,142,l)
);
}
);
width = 1028;
}
);
},
{
color = 0;
glyphname = a;
kernLeft = KERN_a_2ND;
kernRight = KERN_a_1ST;
lastChange = "2024-09-10 23:20:37 +0000";
layers = (
{
anchors = (
{
name = bottom;
pos = (350,0);
},
{
name = top;
pos = (370,651);
}
);
layerId = m001;
shapes = (
{
closed = 1;
nodes = (
(357,488,o),
(373,467,o),
(373,432,cs),
(373,303,o),
(254,61,o),
(161,61,cs),
(127,61,o),
(105,92,o),
(105,140,cs),
(105,278,o),
(230,488,o),
(332,488,cs)
);
},
{
closed = 1;
nodes = (
(397,520,o),
(370,540,o),
(326,540,cs),
(182,540,o),
(10,319,o),
(10,135,cs),
(10,45,o),
(51,-10,o),
(118,-10,cs),
(184,-10,o),
(260,45,o),
(299,119,c),
(303,118,l),
(301,92,o),
(300,77,o),
(300,65,cs),
(300,12,o),
(317,-10,o),
(348,-10,cs),
(408,-10,o),
(477,47,o),
(532,145,c),
(506,166,l),
(462,105,o),
(425,62,o),
(406,62,cs),
(394,62,o),
(387,72,o),
(387,91,cs),
(387,135,o),
(423,276,o),
(461,377,cs),
(518,530,l),
(435,530,l),
(414,474,l)
);
}
);
width = 570;
}
);
unicode = 97;
},
{
color = 0;
glyphname = ae;
kernLeft = KERN_a_2ND;
kernRight = KERN_e_1ST;
lastChange = "2024-09-10 23:20:37 +0000";
layers = (
{
anchors = (
{
name = top;
pos = (505,651);
}
);
layerId = m001;
shapes = (
{
closed = 1;
nodes = (
(594,86,o),
(538,45,o),
(489,45,cs),
(439,45,o),
(412,83,o),
(412,154,cs),
(412,172,o),
(413,190,o),
(416,209,c),
(594,249,o),
(743,360,o),
(743,453,cs),
(743,504,o),
(698,540,o),
(634,540,cs),
(586,540,o),
(534,522,o),
(498,474,c),
(495,476,l),
(525,550,l),
(442,550,l),
(414,474,l),
(397,520,o),
(370,540,o),
(326,540,cs),
(182,540,o),
(10,319,o),
(10,135,cs),
(10,45,o),
(51,-10,o),
(117,-10,cs),
(184,-10,o),
(269,48,o),
(315,124,c),
(324,39,o),
(375,-10,o),
(457,-10,cs),
(540,-10,o),
(614,39,o),
(671,133,c),
(639,154,l)
);
},
{
closed = 1;
nodes = (
(359,488,o),
(373,468,o),
(373,427,cs),
(373,271,o),
(255,61,o),
(160,61,cs),
(126,61,o),
(105,92,o),
(105,144,cs),
(105,284,o),
(238,488,o),
(329,488,cs)
);
},
{
closed = 1;
nodes = (
(637,493,o),
(649,479,o),
(649,451,cs),
(649,371,o),
(554,289,o),
(426,254,c),
(460,376,o),
(544,493,o),
(614,493,cs)
);
}
);
width = 756;
}
);
unicode = 230;
},
{
color = 0;
glyphname = b;
kernRight = KERN_b_1ST;
lastChange = "2024-09-10 23:20:37 +0000";
layers = (
{
layerId = m001;
shapes = (
{
closed = 1;
nodes = (
(139,820,l),
(131,790,l),
(183,790,o),
(207,779,o),
(207,755,cs),
(207,743,o),
(199,715,o),
(192,691,cs),
(71,301,ls),
(43,213,o),
(28,149,o),
(28,114,cs),
(28,41,o),
(82,-10,o),
(158,-10,cs),
(320,-10,o),
(499,207,o),
(499,397,cs),
(499,484,o),
(453,539,o),
(372,539,cs),
(307,539,o),
(246,503,o),
(207,442,c),
(204,444,l),
(331,829,l)
);
},
{
closed = 1;
nodes = (
(140,41,o),
(123,69,o),
(123,123,cs),
(123,270,o),
(255,486,o),
(345,486,cs),
(376,486,o),
(400,451,o),
(400,405,cs),
(400,256,o),
(267,41,o),
(174,41,cs)
);
}
);
width = 534;
}
);
unicode = 98;
},
{
color = 0;
glyphname = c;
kernLeft = KERN_c_2ND;
kernRight = KERN_c_1ST;
lastChange = "2024-09-11 03:04:53 +0000";
layers = (
{
anchors = (
{
name = bottom;
pos = (148,0);
},
{
name = top;
pos = (356,651);
}
);
layerId = m001;
shapes = (
{
closed = 1;
nodes = (
(298,105,o),
(236,49,o),
(189,49,cs),
(145,49,o),
(119,88,o),
(119,152,cs),
(119,311,o),
(221,493,o),
(310,493,cs),
(326,493,o),
(334,488,o),
(334,479,cs),
(334,470,o),
(326,460,o),
(326,443,cs),
(326,415,o),
(348,393,o),
(378,393,cs),
(408,393,o),
(430,416,o),
(430,449,cs),
(430,501,o),
(383,540,o),
(320,540,cs),
(179,540,o),
(14,331,o),
(14,153,cs),
(14,55,o),
(71,-10,o),
(157,-10,cs),
(241,-10,o),
(318,51,o),
(373,161,c),
(338,181,l)
);
}
);
width = 441;
}
);
unicode = 99;
},
{
color = 0;
glyphname = d;
kernLeft = KERN_d_2ND;
kernRight = KERN_d_1ST;
lastChange = "2024-09-10 23:20:37 +0000";
layers = (
{
anchors = (
{
name = bottom;
pos = (136,0);
}
);
layerId = m001;
shapes = (
{
closed = 1;
nodes = (
(387,523,o),
(370,540,o),
(324,540,cs),
(186,540,o),
(11,320,o),
(11,146,cs),
(11,53,o),
(64,-10,o),
(132,-10,cs),
(197,-10,o),
(277,39,o),
(327,127,c),
(335,125,l),
(331,110,o),
(328,93,o),
(328,79,cs),
(328,22,o),
(355,-10,o),
(403,-10,cs),
(471,-10,o),
(524,51,o),
(569,182,c),
(531,191,l),
(505,111,o),
(467,57,o),
(438,57,cs),
(424,57,o),
(413,68,o),
(413,98,cs),
(413,141,o),
(428,216,o),
(485,425,cs),
(596,830,l),
(403,830,l),
(392,790,l),
(461,790,o),
(484,783,o),
(484,763,cs),
(484,752,o),
(478,728,o),
(468,692,cs),
(410,486,l)
);
},
{
closed = 1;
nodes = (
(365,487,o),
(381,462,o),
(381,421,cs),
(381,294,o),
(265,55,o),
(174,55,cs),
(134,55,o),
(108,86,o),
(108,134,cs),
(108,274,o),
(227,487,o),
(331,487,cs)
);
}
);
width = 598;
}
);
unicode = 100;
},
{
color = 0;
glyphname = dcroat;
kernLeft = KERN_d_2ND;
kernRight = KERN_d_1ST;
lastChange = "2024-09-10 23:20:37 +0000";
layers = (
{
layerId = m001;
shapes = (
{
closed = 1;
nodes = (
(634,692,l),
(355,692,l),
(340,639,l),
(619,639,l)
);
},
{
ref = d;
}
);
width = 598;
}
);
unicode = 273;
},
{
color = 0;
glyphname = eth;
lastChange = "2024-09-10 23:20:37 +0000";
layers = (
{
layerId = m001;
shapes = (
{
closed = 1;
nodes = (
(364,449,o),
(399,405,o),
(399,330,cs),
(399,227,o),
(339,35,o),
(216,35,cs),
(167,35,o),
(141,77,o),
(141,152,cs),
(141,260,o),
(195,449,o),
(301,449,cs)
);
},
{
closed = 1;
nodes = (
(287,722,o),
(321,703,o),
(345,680,c),
(206,609,l),
(225,571,l),
(374,646,l),
(418,591,o),
(437,520,o),
(438,414,c),
(434,412,l),
(420,468,o),
(374,498,o),
(303,498,cs),
(162,498,o),
(21,349,o),
(21,180,cs),
(21,68,o),
(93,-10,o),
(204,-10,cs),
(379,-10,o),
(545,184,o),
(545,430,cs),
(545,534,o),
(513,621,o),
(443,681,c),
(577,749,l),
(557,787,l),
(408,712,l),
(368,740,o),
(310,762,o),
(252,780,c),
(225,746,l)
);
}
);
width = 581;
}
);
unicode = 240;
},
{
color = 0;
glyphname = e;
kernLeft = KERN_e_2ND;
kernRight = KERN_e_1ST;
lastChange = "2024-09-10 23:20:37 +0000";
layers = (
{
anchors = (
{
name = bottom;
pos = (152,0);
},
{
name = top;
pos = (360,651);
}
);
layerId = m001;
shapes = (
{
closed = 1;
nodes = (
(294,86,o),
(238,45,o),
(189,45,cs),
(139,45,o),
(112,83,o),
(112,154,cs),
(112,172,o),
(113,190,o),
(116,209,c),
(294,249,o),
(443,360,o),
(443,453,cs),
(443,504,o),
(398,540,o),
(334,540,cs),
(182,540,o),
(14,337,o),
(14,153,cs),
(14,50,o),
(66,-10,o),
(157,-10,cs),
(240,-10,o),
(314,39,o),
(371,133,c),
(339,154,l)
);
},
{
closed = 1;
nodes = (
(337,493,o),
(349,479,o),
(349,451,cs),
(349,371,o),
(254,289,o),
(126,254,c),
(160,376,o),
(244,493,o),
(314,493,cs)
);
}
);
width = 456;
}
);
unicode = 101;
},
{
color = 0;
glyphname = schwa;
lastChange = "2024-09-10 23:20:37 +0000";
layers = (
{
anchors = (
{
name = bottom;
pos = (136,0);
},
{
name = top;
pos = (344,651);
}
);
layerId = m001;
shapes = (
{
closed = 1;
nodes = (
(137,444,o),
(193,485,o),
(242,485,cs),
(292,485,o),
(319,447,o),
(319,376,cs),
(319,358,o),
(318,340,o),
(315,321,c),
(137,281,o),
(-12,170,o),
(-12,77,cs),
(-12,26,o),
(33,-10,o),
(97,-10,cs),
(249,-10,o),
(417,193,o),
(417,377,cs),
(417,480,o),
(365,540,o),
(274,540,cs),
(191,540,o),
(117,491,o),
(60,397,c),
(92,376,l)
);
},
{
closed = 1;
nodes = (
(94,37,o),
(82,51,o),
(82,79,cs),
(82,159,o),
(177,241,o),
(305,276,c),
(271,154,o),
(187,37,o),
(117,37,c)
);
}
);
width = 457;
}
);
unicode = 601;
},
{
color = 0;
glyphname = f;
kernLeft = KERN_f_2ND;
kernRight = KERN_f_1ST;
lastChange = "2024-09-10 23:20:37 +0000";
layers = (
{
layerId = m001;
shapes = (
{
closed = 1;
nodes = (
(344,450,l),
(358,496,l),
(257,496,l),
(291,664,o),
(344,785,o),
(397,785,cs),
(460,785,o),
(416,689,o),
(493,689,cs),
(523,689,o),
(541,714,o),
(541,744,cs),
(541,793,o),
(484,830,o),
(406,830,cs),
(302,830,o),
(224,735,o),
(165,496,c),
(70,496,l),
(57,450,l),
(153,450,l),
(8,-113,ls),
(-5,-165,o),
(-32,-200,o),
(-63,-200,cs),
(-115,-200,o),
(-89,-130,o),
(-145,-130,cs),
(-176,-130,o),
(-194,-151,o),
(-194,-184,cs),
(-194,-227,o),
(-153,-260,o),
(-98,-260,cs),
(16,-260,o),
(84,-198,o),
(152,73,cs),
(246,450,l)
);
}
);
width = 334;
}
);
unicode = 102;
},
{
color = 0;
glyphname = g;
kernLeft = KERN_g;
kernRight = KERN_g;
lastChange = "2024-09-10 23:20:37 +0000";
layers = (
{
anchors = (
{
name = top;
pos = (344,651);
}
);
layerId = m001;
shapes = (
{
closed = 1;
nodes = (
(435,87,o),
(131,28,o),
(131,111,cs),
(131,132,o),
(157,142,o),
(220,147,cs),
(362,158,o),
(449,250,o),
(449,396,cs),
(449,421,o),
(447,436,o),
(440,454,c),
(461,468,o),
(466,470,o),
(475,470,cs),
(511,470,o),
(506,428,o),
(547,428,cs),
(574,428,o),
(594,448,o),
(594,475,cs),
(594,509,o),
(556,540,o),
(514,540,cs),
(484,540,o),
(454,522,o),
(423,487,c),
(389,524,o),
(350,541,o),
(299,541,cs),
(170,541,o),
(61,437,o),
(61,313,cs),
(61,255,o),
(86,210,o),
(137,174,c),
(135,170,l),
(47,144,o),
(18,119,o),
(18,81,cs),
(18,21,o),
(84,-8,o),
(229,-33,cs),
(310,-47,o),
(357,-80,o),
(357,-117,cs),
(357,-163,o),
(281,-215,o),
(173,-215,cs),
(75,-215,o),
(14,-181,o),
(14,-125,cs),
(14,-84,o),
(34,-53,o),
(70,-38,c),
(48,-27,o),
(35,-24,o),
(19,-24,cs),
(-35,-24,o),
(-75,-65,o),
(-75,-119,cs),
(-75,-203,o),
(24,-260,o),
(170,-260,cs),
(332,-260,o),
(435,-188,o),
(435,-73,cs)
);
},
{
closed = 1;
nodes = (
(183,191,o),
(155,226,o),
(155,276,cs),
(155,381,o),
(227,501,o),
(289,501,cs),
(328,501,o),
(354,467,o),
(354,414,cs),
(354,302,o),
(289,191,o),
(225,191,cs)
);
}
);
width = 550;
}
);
unicode = 103;
},
{
color = 0;
glyphname = gcommaaccent;
kernLeft = KERN_g;
kernRight = KERN_g;
lastChange = "2024-09-10 23:20:37 +0000";
layers = (
{
layerId = m001;
shapes = (
{
closed = 1;
nodes = (
(308,810,o),
(282,773,o),
(282,730,cs),
(282,680,o),
(305,651,o),
(345,651,cs),
(380,651,o),
(404,673,o),
(404,704,cs),
(404,732,o),
(386,751,o),
(360,751,cs),
(349,751,o),
(340,748,o),
(334,743,c),
(334,772,o),
(354,796,o),
(399,821,c),
(377,847,l)
);
},
{
ref = g;
}
);
width = 550;
}
);
unicode = 291;
},
{
color = 0;
glyphname = h;
kernLeft = KERN_h_2ND;
kernRight = KERN_n_1ST;
lastChange = "2024-09-11 03:04:18 +0000";
layers = (
{
anchors = (
{
name = bottom;
pos = (182,0);
},
{
name = top;
pos = (418,651);
}
);
layerId = m001;
shapes = (
{
closed = 1;
nodes = (
(298,144,o),
(286,98,o),
(286,53,cs),
(286,9,o),
(301,-10,o),
(337,-10,cs),
(404,-10,o),
(495,55,o),
(537,133,c),
(509,154,l),
(469,99,o),
(427,65,o),
(400,65,cs),
(387,65,o),
(381,73,o),
(381,88,cs),
(381,100,o),
(384,108,o),
(436,253,cs),
(464,329,o),
(477,387,o),
(477,431,cs),
(477,501,o),
(442,540,o),
(379,540,cs),
(318,540,o),
(260,504,o),
(217,442,c),
(214,444,l),
(328,830,l),
(124,830,l),
(117,790,l),
(185,788,o),
(206,779,o),
(206,752,cs),
(206,738,o),
(200,711,o),
(191,678,cs),
(-7,0,l),
(77,0,l),
(100,69,ls),
(198,363,o),
(273,487,o),
(355,487,cs),
(379,487,o),
(388,476,o),
(388,445,cs),
(388,415,o),
(379,379,o),
(356,311,cs)
);
}
);
width = 574;
}
);
unicode = 104;
},
{
color = 0;
glyphname = hbar;
kernLeft = KERN_h_2ND;
kernRight = KERN_n_1ST;
lastChange = "2024-09-10 23:20:37 +0000";
layers = (
{
layerId = m001;
shapes = (
{
closed = 1;
nodes = (
(402,680,l),
(102,680,l),
(89,630,l),
(389,630,l)
);
},
{
ref = h;
}
);
width = 574;
}
);
unicode = 295;
},
{
color = 0;
glyphname = hcircumflex;
kernLeft = KERN_h_2ND;
kernRight = KERN_n_1ST;
lastChange = "2024-09-10 23:20:37 +0000";
layers = (
{
layerId = m001;
shapes = (
{
closed = 1;
nodes = (
(303,651,l),
(348,651,l),
(465,719,l),
(546,651,l),
(591,651,l),
(527,780,l),
(437,780,l)
);
},
{
ref = h;
}
);
width = 574;
}
);
unicode = 293;
},
{
color = 0;
glyphname = i;
kernLeft = KERN_i_2ND;
kernRight = KERN_i_1ST;
lastChange = "2024-09-11 03:03:03 +0000";
layers = (
{
anchors = (
{
name = bottom;
pos = (107,0);
},
{
name = top;
pos = (278,651);
}
);
layerId = m001;
shapes = (
{
closed = 1;
nodes = (
(62,134,o),
(49,93,o),
(49,55,cs),
(49,9,o),
(68,-10,o),
(107,-10,cs),
(195,-10,o),
(275,89,o),
(307,154,c),
(277,171,l),
(262,144,o),
(209,67,o),
(170,67,cs),
(155,67,o),
(149,78,o),
(149,90,cs),
(149,109,o),
(165,154,o),
(170,168,cs),
(207,269,ls),
(244,371,o),
(270,434,o),
(270,473,cs),
(270,523,o),
(253,540,o),
(220,540,cs),
(151,540,o),
(58,447,o),
(27,387,c),
(56,369,l),
(67,390,o),
(115,454,o),
(143,454,cs),
(150,454,o),
(157,449,o),
(157,431,cs),
(157,413,o),
(150,382,o),
(131,330,cs),
(86,202,ls)
);
},
{
closed = 1;
nodes = (
(313,704,o),
(342,731,o),
(342,766,cs),
(342,800,o),
(315,830,o),
(278,830,cs),
(243,830,o),
(216,801,o),
(216,765,cs),
(216,729,o),
(245,704,o),
(278,704,cs)
);
}
);
width = 344;
}
);
unicode = 105;
},
{
color = 0;
glyphname = idotless;
kernLeft = KERN_i_2ND;
kernRight = KERN_i_1ST;
lastChange = "2024-09-10 23:20:37 +0000";
layers = (
{
anchors = (
{
name = bottom;
pos = (107,0);
},
{
name = top;
pos = (264,651);
}
);
layerId = m001;
shapes = (
{
closed = 1;
nodes = (
(62,134,o),
(49,93,o),
(49,55,cs),
(49,9,o),
(68,-10,o),
(107,-10,cs),
(195,-10,o),
(275,89,o),
(307,154,c),
(277,171,l),
(262,144,o),
(209,67,o),
(170,67,cs),
(155,67,o),
(149,78,o),
(149,90,cs),
(149,109,o),
(165,154,o),
(170,168,cs),
(207,269,ls),
(245,373,o),
(270,434,o),
(270,473,cs),
(270,523,o),
(253,540,o),
(220,540,cs),
(151,540,o),
(58,447,o),
(27,387,c),
(56,369,l),
(67,390,o),
(115,454,o),
(143,454,cs),
(150,454,o),
(157,449,o),
(157,431,cs),
(157,413,o),
(150,382,o),
(131,330,cs),
(86,202,ls)
);
}
);
width = 344;
}
);
unicode = 305;
},
{
color = 0;
glyphname = j;
kernLeft = KERN_j_2ND;
kernRight = KERN_j_1ST;
lastChange = "2024-09-10 23:20:37 +0000";
layers = (
{
anchors = (
{
name = top;
pos = (134,651);
}
);
layerId = m001;
shapes = (
{
closed = 1;
nodes = (
(272,704,o),
(301,731,o),
(301,766,cs),
(301,800,o),
(274,830,o),
(237,830,cs),
(202,830,o),
(175,801,o),
(175,765,cs),
(175,729,o),
(204,704,o),
(237,704,cs)
);
},
{
closed = 1;
nodes = (
(135,383,o),
(143,415,o),
(143,434,cs),
(143,447,o),
(139,454,o),
(128,454,cs),
(99,454,o),
(53,390,o),
(42,369,c),
(13,387,l),
(44,447,o),
(137,540,o),
(206,540,cs),
(241,540,o),
(256,522,o),
(256,484,cs),
(256,440,o),
(236,368,o),
(208,267,cs),
(125,-34,ls),
(93,-148,o),
(0,-260,o),
(-95,-260,cs),
(-150,-260,o),
(-191,-227,o),
(-191,-184,cs),
(-191,-148,o),
(-173,-125,o),
(-142,-125,cs),
(-87,-125,o),
(-98,-200,o),
(-60,-200,cs),
(-28,-200,o),
(-2,-165,o),
(11,-113,cs),
(122,331,ls)
);
}
);
width = 299;
}
);
unicode = 106;
},
{
color = 0;
glyphname = jdotless;
kernLeft = KERN_j_2ND;
kernRight = KERN_j_1ST;
lastChange = "2024-09-10 23:20:37 +0000";
layers = (
{
anchors = (
{
name = top;
pos = (134,651);
}
);
layerId = m001;
shapes = (
{
closed = 1;
nodes = (
(135,383,o),
(143,415,o),
(143,434,cs),
(143,447,o),
(139,454,o),
(128,454,cs),
(99,454,o),
(53,390,o),
(42,369,c),
(13,387,l),
(44,447,o),
(137,540,o),
(206,540,cs),
(241,540,o),
(256,522,o),
(256,484,cs),
(256,440,o),
(236,368,o),
(208,267,cs),
(125,-34,ls),
(93,-148,o),
(0,-260,o),
(-95,-260,cs),
(-150,-260,o),
(-191,-227,o),
(-191,-184,cs),
(-191,-148,o),
(-173,-125,o),
(-142,-125,cs),
(-87,-125,o),
(-98,-200,o),
(-60,-200,cs),
(-28,-200,o),
(-2,-165,o),
(11,-113,cs),
(122,331,ls)
);
}
);
width = 299;
}
);
unicode = 567;
},
{
color = 0;
glyphname = k;
kernLeft = KERN_h_2ND;
kernRight = KERN_k_1ST;
lastChange = "2024-09-10 23:20:37 +0000";
layers = (
{
anchors = (
{
name = bottom;
pos = (162,0);
}
);
layerId = m001;
shapes = (
{
closed = 1;
nodes = (
(339,80,o),
(325,97,o),
(311,135,cs),
(260,267,l),
(286,279,ls),
(396,329,o),
(462,396,o),
(462,458,cs),
(462,509,o),
(423,541,o),
(361,541,cs),
(302,541,o),
(252,508,o),
(214,444,c),
(210,445,l),
(314,830,l),
(115,820,l),
(106,790,l),
(179,790,o),
(199,782,o),
(199,754,cs),
(199,746,o),
(197,736,o),
(192,717,cs),
(-1,0,l),
(90,0,l),
(153,218,l),
(175,228,l),
(242,68,ls),
(267,9,o),
(284,-10,o),
(316,-10,cs),
(367,-10,o),
(417,41,o),
(465,141,c),
(439,155,l),
(404,105,o),
(377,80,o),
(357,80,cs)
);
},
{
closed = 1;
nodes = (
(192,378,o),
(266,473,o),
(321,473,cs),
(347,473,o),
(362,458,o),
(362,432,cs),
(362,378,o),
(278,308,o),
(162,268,c)
);
}
);
width = 513;
}
);
unicode = 107;
},
{
color = 0;
glyphname = kgreenlandic;
lastChange = "2024-09-10 23:20:37 +0000";
layers = (
{
layerId = m001;
shapes = (
{
closed = 1;
nodes = (
(368,80,o),
(354,97,o),
(340,135,cs),
(289,267,l),
(315,279,ls),
(425,329,o),
(491,396,o),
(491,458,cs),
(491,509,o),
(452,541,o),
(390,541,cs),
(331,541,o),
(281,508,o),
(243,444,c),
(239,445,l),
(265,540,l),
(66,530,l),
(57,500,l),
(130,500,o),
(150,492,o),
(150,464,cs),
(150,456,o),
(148,446,o),
(143,427,cs),
(28,0,l),
(119,0,l),
(182,218,l),
(204,228,l),
(271,68,ls),
(296,8,o),
(313,-10,o),
(345,-10,cs),
(396,-10,o),
(446,41,o),
(494,141,c),
(468,155,l),
(433,105,o),
(406,80,o),
(386,80,cs)
);
},
{
closed = 1;
nodes = (
(221,378,o),
(295,473,o),
(350,473,cs),
(376,473,o),
(391,458,o),
(391,432,cs),
(391,378,o),
(307,308,o),
(191,268,c)
);
}
);
width = 542;
}
);
unicode = 312;
},
{
color = 0;
glyphname = l;
kernLeft = KERN_l_2ND;
kernRight = KERN_l_1ST;
lastChange = "2024-09-11 03:03:09 +0000";
layers = (
{
anchors = (
{
name = bottom;
pos = (55,0);
},
{
name = topcap;
pos = (267,830);
}
);
layerId = m001;
shapes = (
{
closed = 1;
nodes = (
(30,124,o),
(23,82,o),
(23,55,cs),
(23,9,o),
(45,-10,o),
(91,-10,cs),
(153,-10,o),
(245,73,o),
(286,164,c),
(256,181,l),
(240,151,o),
(182,67,o),
(139,67,cs),
(124,67,o),
(118,78,o),
(118,90,cs),
(118,109,o),
(124,136,o),
(134,172,cs),
(313,829,l),
(130,820,l),
(122,790,l),
(174,790,o),
(198,779,o),
(198,755,cs),
(198,743,o),
(189,715,o),
(183,691,cs),
(50,202,ls)
);
}
);
width = 313;
}
);
unicode = 108;
},
{
color = 0;
glyphname = lslash;
kernLeft = KERN_l_2ND;
kernRight = KERN_l_1ST;
lastChange = "2024-09-10 23:20:37 +0000";
layers = (
{
layerId = m001;
shapes = (
{
closed = 1;
nodes = (
(339,573,l),
(45,416,l),
(28,351,l),
(322,508,l)
);
},
{
pos = (15,0);
ref = l;
}
);
width = 328;
}
);
unicode = 322;
},
{
color = 0;
glyphname = m;
kernLeft = KERN_n_2ND;
lastChange = "2024-09-10 23:20:37 +0000";
layers = (
{
layerId = m001;
shapes = (
{
closed = 1;
nodes = (
(594,135,o),
(584,102,o),
(584,69,cs),
(584,21,o),
(605,-10,o),
(638,-10,cs),
(694,-10,o),
(799,82,o),
(844,171,c),
(818,185,l),
(754,105,o),
(715,68,o),
(695,68,cs),
(688,68,o),
(685,73,o),
(685,87,cs),
(685,110,o),
(689,125,o),
(735,262,cs),
(771,369,o),
(785,415,o),
(785,453,cs),
(785,513,o),
(759,540,o),
(707,540,cs),
(637,540,o),
(580,490,o),
(505,363,c),
(503,366,l),
(516,413,o),
(520,432,o),
(520,451,cs),
(520,506,o),
(489,540,o),
(437,540,cs),
(368,540,o),
(301,481,o),
(240,367,c),
(237,370,l),
(249,401,o),
(254,430,o),
(254,462,cs),
(254,518,o),
(238,540,o),
(195,540,cs),
(121,540,o),
(64,475,o),
(17,339,c),
(47,324,l),
(76,409,o),
(128,485,o),
(157,485,cs),
(168,485,o),
(174,475,o),
(174,457,cs),
(174,431,o),
(161,385,o),
(111,229,cs),
(37,0,l),
(125,0,l),
(209,227,ls),
(256,354,o),
(361,488,o),
(414,488,cs),
(430,488,o),
(439,476,o),
(439,455,cs),
(439,427,o),
(423,371,o),
(367,201,cs),
(301,0,l),
(395,0,l),
(477,234,o),
(496,281,o),
(537,346,cs),
(594,437,o),
(645,488,o),
(681,488,cs),
(695,488,o),
(701,480,o),
(701,459,cs),
(701,442,o),
(698,432,o),
(663,333,cs)
);
}
);
width = 870;
}
);
unicode = 109;
},
{
color = 0;
glyphname = n;
kernLeft = KERN_n_2ND;
kernRight = KERN_n_1ST;
lastChange = "2024-09-11 03:03:48 +0000";
layers = (
{
anchors = (
{
name = bottom;
pos = (391,0);
},
{
name = top;
pos = (401,651);
}
);
layerId = m001;
shapes = (
{
closed = 1;
nodes = (
(443,488,o),
(452,476,o),
(452,451,cs),
(452,427,o),
(445,402,o),
(421,333,cs),
(350,132,o),
(342,107,o),
(342,70,cs),
(342,22,o),
(363,-10,o),
(396,-10,cs),
(449,-10,o),
(549,72,o),
(592,151,c),
(566,165,l),
(505,97,o),
(471,68,o),
(452,68,cs),
(445,68,o),
(442,73,o),
(442,83,cs),
(442,108,o),
(464,172,o),
(495,262,cs),
(536,381,o),
(548,424,o),
(548,459,cs),
(548,511,o),
(516,540,o),
(458,540,cs),
(376,540,o),
(308,486,o),
(240,367,c),
(237,370,l),
(249,398,o),
(254,427,o),
(254,461,cs),
(254,518,o),
(238,540,o),
(195,540,cs),
(121,540,o),
(64,475,o),
(17,339,c),
(47,324,l),
(73,405,o),
(127,485,o),
(157,485,cs),
(168,485,o),
(174,475,o),
(174,458,cs),
(174,432,o),
(158,375,o),
(111,229,cs),
(37,0,l),
(125,0,l),
(199,200,ls),
(253,345,o),
(362,488,o),
(425,488,cs)
);
}
);
width = 627;
}
);
unicode = 110;
},
{
color = 0;
glyphname = eng;
kernLeft = KERN_n_2ND;
lastChange = "2024-09-10 23:20:37 +0000";
layers = (
{
layerId = m001;
shapes = (
{
closed = 1;
nodes = (
(284,-167,o),
(258,-200,o),
(230,-200,cs),
(188,-200,o),
(202,-125,o),
(146,-125,cs),
(116,-125,o),
(97,-147,o),
(97,-181,cs),
(97,-227,o),
(137,-260,o),
(191,-260,cs),
(279,-260,o),
(376,-162,o),
(414,-34,cs),
(531,359,o),
(548,428,o),
(548,461,cs),
(548,512,o),
(515,540,o),
(457,540,cs),
(376,540,o),
(307,485,o),
(240,367,c),
(237,370,l),
(249,397,o),
(254,425,o),
(254,460,cs),
(254,518,o),
(238,540,o),
(195,540,cs),
(121,540,o),
(64,475,o),
(17,339,c),
(47,324,l),
(73,405,o),
(127,485,o),
(157,485,cs),
(168,485,o),
(174,475,o),
(174,459,cs),
(174,432,o),
(159,377,o),
(111,229,cs),
(37,0,l),
(125,0,l),
(199,200,ls),
(252,344,o),
(362,488,o),
(424,488,cs),
(441,488,o),
(452,476,o),
(452,457,cs),
(452,440,o),
(443,406,o),
(299,-113,cs)
);
}
);
width = 590;
}
);
unicode = 331;
},
{
color = 0;
glyphname = o;
kernLeft = KERN_o_2ND;
kernRight = KERN_o_1ST;
lastChange = "2024-09-10 23:20:37 +0000";
layers = (
{
anchors = (
{
name = bottom;
pos = (180,0);
},
{
name = top;
pos = (351,651);
}
);
layerId = m001;
shapes = (
{
closed = 1;
nodes = (
(331,-10,o),
(476,180,o),
(476,348,cs),
(476,464,o),
(407,540,o),
(311,540,cs),
(165,540,o),
(24,365,o),
(24,191,cs),
(24,65,o),
(97,-10,o),
(187,-10,cs)
);
},
{
closed = 1;
nodes = (
(156,40,o),
(129,68,o),
(129,142,cs),
(129,290,o),
(221,493,o),
(311,493,cs),
(353,493,o),
(380,470,o),
(380,400,cs),
(380,249,o),
(283,40,o),
(193,40,cs)
);
}
);
width = 523;
}
);
unicode = 111;
},
{
color = 0;
glyphname = oslash;
kernLeft = KERN_o_2ND;
kernRight = KERN_o_1ST;
lastChange = "2024-09-10 23:20:37 +0000";
layers = (
{
layerId = m001;
shapes = (
{
closed = 1;
nodes = (
(331,-10,o),
(476,180,o),
(476,348,cs),
(476,395,o),
(464,436,o),
(444,468,c),
(542,592,l),
(473,592,l),
(407,508,l),
(380,529,o),
(348,540,o),
(311,540,cs),
(165,540,o),
(24,365,o),
(24,191,cs),
(24,140,o),
(36,97,o),
(56,64,c),
(-43,-61,l),
(25,-61,l),
(92,23,l),
(118,2,o),
(151,-10,o),
(187,-10,cs)
);
},
{
closed = 1;
nodes = (
(168,40,o),
(149,52,o),
(138,81,c),
(380,387,l),
(375,237,o),
(280,40,o),
(193,40,cs)
);
},
{
closed = 1;
nodes = (
(337,493,o),
(357,484,o),
(369,460,c),
(129,156,l),
(134,303,o),
(224,493,o),
(311,493,cs)
);
}
);
width = 523;
}
);
unicode = 248;
},
{
color = 0;
glyphname = oslashacute;
kernLeft = KERN_o_2ND;
kernRight = KERN_o_1ST;
lastChange = "2024-09-10 23:20:37 +0000";
layers = (
{
layerId = m001;
shapes = (
{
closed = 1;
nodes = (
(331,-10,o),
(476,180,o),
(476,348,cs),
(476,395,o),
(464,436,o),
(444,468,c),
(542,592,l),
(473,592,l),
(407,508,l),
(380,529,o),
(348,540,o),
(311,540,cs),
(165,540,o),
(24,365,o),
(24,191,cs),
(24,140,o),
(36,97,o),
(56,64,c),
(-43,-61,l),
(25,-61,l),
(92,23,l),
(118,2,o),
(151,-10,o),
(187,-10,cs)
);
},
{
closed = 1;
nodes = (
(168,40,o),
(149,52,o),
(138,81,c),
(380,387,l),
(375,237,o),
(280,40,o),
(193,40,cs)
);
},
{
closed = 1;
nodes = (
(337,493,o),
(357,484,o),
(369,460,c),
(129,156,l),
(134,303,o),
(224,493,o),
(311,493,cs)
);
},
{
pos = (252,0);
ref = acute;
}
);
width = 522;
}
);
unicode = 511;
},
{
color = 0;
glyphname = p;
kernRight = KERN_p_1ST;
lastChange = "2024-09-10 23:20:37 +0000";
layers = (
{
layerId = m001;
shapes = (
{
closed = 1;
nodes = (
(82,390,o),
(129,428,o),
(180,454,c),
(-1,-164,ls),
(-11,-199,o),
(-33,-210,o),
(-89,-210,c),
(-95,-250,l),
(188,-250,l),
(194,-210,l),
(125,-209,o),
(101,-197,o),
(101,-164,cs),
(101,-154,o),
(103,-141,o),
(109,-121,cs),
(146,18,l),
(344,44,o),
(525,188,o),
(525,364,cs),
(525,474,o),
(459,539,o),
(346,539,cs),
(325,539,o),
(304,536,o),
(283,532,c),
(318,665,l),
(242,665,l),
(195,505,l),
(128,477,o),
(64,431,o),
(15,375,c),
(42,347,l)
);
},
{
closed = 1;
nodes = (
(381,490,o),
(421,438,o),
(421,358,cs),
(421,214,o),
(291,87,o),
(157,61,c),
(270,485,l),
(286,488,o),
(303,490,o),
(320,490,cs)
);
}
);
width = 563;
}
);
unicode = 112;
},
{
color = 0;
glyphname = thorn;
kernLeft = KERN_h_2ND;
kernRight = KERN_b_1ST;
lastChange = "2024-09-10 23:20:37 +0000";
layers = (
{
layerId = m001;
shapes = (
{
closed = 1;
nodes = (
(326,-10,o),
(505,207,o),
(505,397,cs),
(505,484,o),
(459,539,o),
(378,539,cs),
(313,539,o),
(252,503,o),
(213,442,c),
(210,444,l),
(337,829,l),
(145,820,l),
(137,790,l),
(189,790,o),
(213,779,o),
(213,755,cs),
(213,743,o),
(205,715,o),
(198,691,cs),
(-59,-164,ls),
(-69,-199,o),
(-91,-210,o),
(-147,-210,c),
(-153,-250,l),
(130,-250,l),
(136,-210,l),
(67,-209,o),
(43,-197,o),
(43,-164,cs),
(43,-154,o),
(46,-141,o),
(51,-121,cs),
(88,24,l),
(91,25,l),
(109,1,o),
(133,-10,o),
(164,-10,cs)
);
},
{
closed = 1;
nodes = (
(146,41,o),
(129,69,o),
(129,123,cs),
(129,270,o),
(261,486,o),
(351,486,cs),
(382,486,o),
(406,451,o),
(406,405,cs),
(406,256,o),
(273,41,o),
(180,41,cs)
);
}
);
width = 540;
}
);
unicode = 254;
},
{
color = 0;
glyphname = q;
lastChange = "2024-09-10 23:20:37 +0000";
layers = (
{
layerId = m001;
shapes = (
{
closed = 1;
nodes = (
(220,-199,o),
(197,-210,o),
(142,-210,c),
(136,-250,l),
(394,-250,l),
(400,-210,l),
(341,-209,o),
(323,-198,o),
(323,-174,cs),
(323,-166,o),
(325,-157,o),
(330,-139,cs),
(514,540,l),
(438,540,l),
(414,469,l),
(385,519,o),
(354,540,o),
(308,540,cs),
(168,540,o),
(15,334,o),
(15,153,cs),
(15,50,o),
(63,-10,o),
(146,-10,cs),
(209,-10,o),
(264,24,o),
(300,87,c),
(303,85,l),
(230,-164,ls)
);
},
{
closed = 1;
nodes = (
(350,488,o),
(371,452,o),
(371,379,cs),
(371,232,o),
(266,50,o),
(177,50,cs),
(138,50,o),
(119,83,o),
(119,146,cs),
(119,293,o),
(227,488,o),
(313,488,cs)
);
}
);
width = 535;
}
);
unicode = 113;
},
{
color = 0;
glyphname = r;
kernLeft = KERN_r;
kernRight = KERN_r;
lastChange = "2024-09-10 23:20:37 +0000";
layers = (
{
anchors = (
{
name = bottom;
pos = (76,0);
},
{
name = top;
pos = (329,651);
}
);
layerId = m001;
shapes = (
{
closed = 1;
nodes = (
(64,416,o),
(118,462,o),
(145,462,cs),
(155,462,o),
(160,455,o),
(160,440,cs),
(160,412,o),
(148,366,o),
(97,207,cs),
(32,0,l),
(125,0,l),
(170,138,ls),
(229,319,o),
(317,463,o),
(368,463,cs),
(392,463,o),
(396,426,o),
(438,426,cs),
(472,426,o),
(497,451,o),
(497,486,cs),
(497,522,o),
(467,550,o),
(429,550,cs),
(369,550,o),
(279,473,o),
(246,395,c),
(243,398,l),
(248,424,o),
(250,443,o),
(250,464,cs),
(250,517,o),
(236,540,o),
(204,540,cs),
(151,540,o),
(51,458,o),
(21,391,c),
(47,378,l)
);
}
);
width = 463;
}
);
unicode = 114;
},
{
color = 0;
glyphname = s;
kernLeft = KERN_s_2ND;
kernRight = KERN_s_1ST;
lastChange = "2024-09-10 23:20:37 +0000";
layers = (
{
anchors = (
{
name = bottom;
pos = (108,0);
},
{
name = top;
pos = (282,651);
}
);
layerId = m001;
shapes = (
{
closed = 1;
nodes = (
(77,266,o),
(205,223,o),
(205,115,cs),
(205,65,o),
(175,34,o),
(127,34,cs),
(97,34,o),
(90,44,o),
(86,87,cs),
(82,126,o),
(65,146,o),
(37,146,cs),
(7,146,o),
(-13,122,o),
(-13,84,cs),
(-13,28,o),
(39,-10,o),
(118,-10,cs),
(209,-10,o),
(294,65,o),
(294,155,cs),
(294,289,o),
(168,342,o),
(168,431,cs),
(168,468,o),
(191,497,o),
(220,497,cs),
(270,497,o),
(251,409,o),
(312,409,cs),
(338,409,o),
(355,426,o),
(355,454,cs),
(355,504,o),
(307,540,o),
(243,540,cs),
(147,540,o),
(77,475,o),
(77,387,cs)
);
}
);
width = 381;
}
);
unicode = 115;
},
{
color = 0;
glyphname = germandbls;
kernLeft = KERN_h_2ND;
lastChange = "2024-09-10 23:20:37 +0000";
layers = (
{
layerId = m001;
shapes = (
{
closed = 1;
nodes = (
(-38,-168,o),
(-65,-200,o),
(-97,-200,cs),
(-145,-200,o),
(-122,-130,o),
(-177,-130,cs),
(-207,-130,o),
(-226,-151,o),
(-226,-183,cs),
(-226,-231,o),
(-186,-260,o),
(-120,-260,cs),
(-6,-260,o),
(62,-166,o),
(120,73,cs),
(245,592,ls),
(278,728,o),
(308,780,o),
(367,780,cs),
(435,780,o),
(467,754,o),
(467,691,cs),
(467,673,o),
(462,655,o),
(459,633,cs),
(430,535,o),
(373,487,o),
(278,487,c),
(265,436,l),
(373,436,o),
(421,387,o),
(421,278,cs),
(421,148,o),
(357,36,o),
(283,36,cs),
(225,36,o),
(269,118,o),
(220,118,cs),
(191,118,o),
(166,88,o),
(166,53,cs),
(166,14,o),
(200,-10,o),
(256,-10,cs),
(396,-10,o),
(526,133,o),
(526,288,cs),
(526,395,o),
(467,462,o),
(371,462,c),
(373,467,l),
(486,488,o),
(567,578,o),
(567,683,cs),
(567,774,o),
(503,830,o),
(399,830,cs),
(278,830,o),
(188,740,o),
(150,586,cs),
(-24,-113,ls)
);
}
);
width = 586;
}
);
unicode = 223;
},
{
color = 0;
glyphname = t;
kernLeft = KERN_t_2ND;
kernRight = KERN_t_1ST;
lastChange = "2024-09-11 03:03:33 +0000";
layers = (
{
anchors = (
{
name = bottom;
pos = (64,0);
}
);
layerId = m001;
shapes = (
{
closed = 1;
nodes = (
(358,493,l),
(249,493,l),
(301,665,l),
(209,665,l),
(157,493,l),
(70,493,l),
(57,447,l),
(143,447,l),
(69,202,ls),
(46,124,o),
(38,81,o),
(38,55,cs),
(38,9,o),
(58,-10,o),
(104,-10,cs),
(169,-10,o),
(268,73,o),
(314,164,c),
(285,181,l),
(267,151,o),
(201,67,o),
(154,67,cs),
(139,67,o),
(134,78,o),
(134,90,cs),
(135,109,o),
(141,136,o),
(152,172,cs),
(235,447,l),
(344,447,l)
);
}
);
width = 365;
}
);
unicode = 116;
},
{
color = 0;
glyphname = tbar;
kernLeft = KERN_t_2ND;
kernRight = KERN_t_1ST;
lastChange = "2024-09-10 23:20:37 +0000";
layers = (
{
layerId = m001;
shapes = (
{
closed = 1;
nodes = (
(328,381,l),
(49,381,l),
(34,328,l),
(313,328,l)
);
},
{
pos = (1,0);
ref = t;
}
);
width = 366;
}
);
unicode = 359;
},
{
color = 0;
glyphname = u;
kernLeft = KERN_u;
kernRight = KERN_u;
lastChange = "2024-09-10 23:20:37 +0000";
layers = (
{
anchors = (
{
name = bottom;
pos = (125,0);
},
{
name = top;
pos = (372,651);
}
);
layerId = m001;
shapes = (
{
closed = 1;
nodes = (
(157,62,o),
(148,72,o),
(148,100,cs),
(148,142,o),
(168,194,o),
(194,259,cs),
(235,361,o),
(264,435,o),
(264,482,cs),
(264,519,o),
(246,540,o),
(214,540,cs),
(149,540,o),
(61,457,o),
(21,379,c),
(47,365,l),
(103,433,o),
(134,462,o),
(151,462,cs),
(159,462,o),
(160,456,o),
(160,451,cs),
(160,430,o),
(143,387,o),
(95,268,cs),
(71,208,o),
(45,136,o),
(45,80,cs),
(45,29,o),
(67,-10,o),
(129,-10,cs),
(187,-10,o),
(252,26,o),
(323,153,c),
(326,150,l),
(321,125,o),
(319,97,o),
(319,75,cs),
(319,21,o),
(331,-10,o),
(372,-10,cs),
(441,-10,o),
(521,78,o),
(556,166,c),
(526,181,l),
(500,121,o),
(449,65,o),
(422,65,cs),
(410,65,o),
(404,75,o),
(404,91,cs),
(404,116,o),
(419,167,o),
(462,301,cs),
(536,530,l),
(443,530,l),
(369,330,ls),
(318,192,o),
(212,62,o),
(169,62,cs)
);
}
);
width = 593;
}
);
unicode = 117;
},
{
color = 0;
glyphname = v;
lastChange = "2024-09-10 23:20:37 +0000";
layers = (
{
layerId = m001;
shapes = (
{
closed = 1;
nodes = (
(461,238,o),
(350,59,o),
(276,59,cs),
(237,59,o),
(210,107,o),
(210,178,cs),
(210,269,o),
(254,389,o),
(315,463,cs),
(355,511,o),
(356,512,o),
(356,523,cs),
(356,534,o),
(349,540,o),
(336,540,cs),
(320,540,o),
(316,537,o),
(288,512,cs),
(277,501,o),
(268,497,o),
(254,497,cs),
(212,497,o),
(196,540,o),
(143,540,cs),
(77,540,o),
(19,482,o),
(19,416,cs),
(19,378,o),
(39,355,o),
(73,355,cs),
(102,355,o),
(123,372,o),
(123,396,cs),
(123,428,o),
(88,437,o),
(88,462,cs),
(88,472,o),
(94,479,o),
(105,479,cs),
(133,479,o),
(149,427,o),
(222,427,c),
(224,424,l),
(148,315,o),
(105,207,o),
(105,131,cs),
(105,50,o),
(159,-10,o),
(232,-10,cs),
(379,-10,o),
(548,233,o),
(548,445,cs),
(548,512,o),
(531,540,o),
(490,540,cs),
(456,540,o),
(438,520,o),
(438,483,cs),
(438,442,o),
(461,411,o),
(461,357,cs)
);
}
);
width = 578;
}
);
unicode = 118;
},
{
color = 0;
glyphname = w;
kernLeft = KERN_w;
kernRight = KERN_w;
lastChange = "2024-09-10 23:20:37 +0000";
layers = (
{
anchors = (
{
name = top;
pos = (565,651);
}
);
layerId = m001;
shapes = (
{
closed = 1;
nodes = (
(428,27,o),
(470,-10,o),
(525,-10,cs),
(663,-10,o),
(816,226,o),
(816,440,cs),
(816,511,o),
(799,540,o),
(758,540,cs),
(724,540,o),
(706,520,o),
(706,483,cs),
(706,440,o),
(729,416,o),
(729,354,cs),
(729,229,o),
(638,75,o),
(564,75,cs),
(525,75,o),
(489,120,o),
(477,183,c),
(550,287,o),
(590,386,o),
(590,457,cs),
(590,516,o),
(562,540,o),
(533,540,cs),
(461,540,o),
(389,393,o),
(389,248,cs),
(389,224,o),
(391,193,o),
(394,165,c),
(340,101,o),
(290,64,o),
(254,64,cs),
(216,64,o),
(193,103,o),
(193,168,cs),
(193,256,o),
(236,373,o),
(313,463,cs),
(350,506,o),
(354,511,o),
(354,520,cs),
(354,533,o),
(347,540,o),
(333,540,cs),
(314,540,o),
(300,527,o),
(286,512,cs),
(274,500,o),
(267,497,o),
(256,497,cs),
(216,497,o),
(200,540,o),
(145,540,cs),
(80,540,o),
(22,481,o),
(22,416,cs),
(22,378,o),
(42,355,o),
(76,355,cs),
(105,355,o),
(126,372,o),
(126,396,cs),
(126,428,o),
(91,437,o),
(91,462,cs),
(91,473,o),
(97,479,o),
(107,479,cs),
(137,479,o),
(152,427,o),
(225,427,c),
(227,424,l),
(141,308,o),
(98,208,o),
(98,125,cs),
(98,40,o),
(142,-10,o),
(215,-10,cs),
(280,-10,o),
(348,28,o),
(407,97,c)
);
},
{
closed = 1;
nodes = (
(459,262,o),
(458,278,o),
(458,296,cs),
(458,385,o),
(481,458,o),
(507,458,cs),
(518,458,o),
(522,444,o),
(522,420,cs),
(522,362,o),
(498,304,o),
(463,247,c)
);
}
);
width = 850;
}
);
unicode = 119;
},
{
color = 0;
glyphname = x;
lastChange = "2024-09-10 23:20:37 +0000";
layers = (
{
layerId = m001;
shapes = (
{
closed = 1;
nodes = (
(353,404,o),
(402,482,o),
(445,482,cs),
(486,482,o),
(461,407,o),
(518,407,cs),
(548,407,o),
(568,429,o),
(568,461,cs),
(568,505,o),
(531,540,o),
(485,540,cs),
(435,540,o),
(375,498,o),
(336,436,c),
(336,495,o),
(298,540,o),
(248,540,cs),
(185,540,o),
(80,456,o),
(44,377,c),
(74,359,l),
(117,423,o),
(189,481,o),
(226,481,cs),
(247,481,o),
(259,462,o),
(259,427,cs),
(259,403,o),
(253,371,o),
(241,330,cs),
(213,233,ls),
(180,121,o),
(131,48,o),
(88,48,cs),
(42,48,o),
(74,131,o),
(8,131,cs),
(-28,131,o),
(-51,106,o),
(-51,69,cs),
(-51,23,o),
(-15,-10,o),
(37,-10,cs),
(102,-10,o),
(174,39,o),
(214,110,c),
(217,109,l),
(225,35,o),
(267,-10,o),
(328,-10,cs),
(400,-10,o),
(485,53,o),
(533,143,c),
(503,161,l),
(441,80,o),
(395,44,o),
(351,44,cs),
(315,44,o),
(298,68,o),
(298,121,cs),
(298,150,o),
(303,186,o),
(314,233,cs),
(328,294,ls)
);
}
);
width = 578;
}
);
unicode = 120;
},
{
color = 0;
glyphname = y;
kernLeft = KERN_y;
kernRight = KERN_y;
lastChange = "2024-09-10 23:20:37 +0000";
layers = (
{
anchors = (
{
name = top;
pos = (347,651);
}
);
layerId = m001;
shapes = (
{
closed = 1;
nodes = (
(135,401,o),
(118,437,o),
(94,437,cs),
(69,437,o),
(49,400,o),
(28,318,c),
(-9,328,l),
(19,452,o),
(80,540,o),
(139,540,cs),
(164,540,o),
(180,524,o),
(199,474,cs),
(215,432,o),
(235,359,o),
(254,269,cs),
(288,108,l),
(292,108,l),
(342,171,o),
(402,278,o),
(402,359,cs),
(402,386,o),
(395,447,o),
(395,470,cs),
(395,518,o),
(424,540,o),
(451,540,cs),
(485,540,o),
(501,506,o),
(501,467,cs),
(501,358,o),
(374,106,o),
(241,-66,cs),
(140,-197,o),
(54,-260,o),
(-20,-260,cs),
(-75,-260,o),
(-111,-225,o),
(-111,-181,cs),
(-111,-148,o),
(-90,-125,o),
(-60,-125,cs),
(-6,-125,o),
(-20,-200,o),
(18,-200,cs),
(68,-200,o),
(185,-75,o),
(215,11,c),
(161,292,l)
);
}
);
width = 515;
}
);
unicode = 121;
},
{
color = 0;
glyphname = z;
kernLeft = KERN_z_2ND;
kernRight = KERN_z_1ST;
lastChange = "2024-09-10 23:20:37 +0000";
layers = (
{
anchors = (
{
name = bottom;
pos = (150,0);
},
{
name = top;
pos = (327,651);
}
);
layerId = m001;
shapes = (
{
closed = 1;
nodes = (
(162,152,l),
(221,152,o),
(288,85,o),
(350,85,cs),
(388,85,o),
(415,106,o),
(439,169,c),
(473,156,l),
(446,58,o),
(374,-10,o),
(296,-10,cs),
(204,-10,o),
(166,81,o),
(107,81,cs),
(51,81,o),
(82,0,o),
(24,0,cs),
(3,0,o),
(-9,11,o),
(-9,30,cs),
(-9,55,o),
(12,78,o),
(57,122,cs),
(333,389,l),
(331,392,l),
(278,392,o),
(208,476,o),
(151,476,cs),
(129,476,o),
(115,464,o),
(115,445,cs),
(115,408,o),
(166,416,o),
(166,368,cs),
(166,339,o),
(148,322,o),
(117,322,cs),
(75,322,o),
(50,351,o),
(50,399,cs),
(50,478,o),
(119,540,o),
(208,540,cs),
(307,540,o),
(333,462,o),
(382,462,cs),
(428,462,o),
(417,530,o),
(461,530,cs),
(479,530,o),
(490,518,o),
(490,499,cs),
(490,477,o),
(484,466,o),
(424,408,cs),
(160,155,l)
);
}
);
width = 519;
}
);
unicode = 122;
},
{
color = 0;
glyphname = c_t;
kernLeft = KERN_c_2ND;
kernRight = KERN_t_1ST;
lastChange = "2024-09-10 23:20:37 +0000";
layers = (
{
layerId = m001;
shapes = (
{
closed = 1;
nodes = (
(787,493,l),
(678,493,l),
(762,769,l),
(670,769,l),
(586,493,l),
(499,493,l),
(486,447,l),
(572,447,l),
(498,202,ls),
(476,128,o),
(467,83,o),
(467,55,cs),
(467,13,o),
(487,-10,o),
(527,-10,cs),
(598,-10,o),
(692,66,o),
(743,164,c),
(714,181,l),
(679,124,o),
(615,67,o),
(584,67,cs),
(570,67,o),
(563,75,o),
(563,90,cs),
(563,104,o),
(570,136,o),
(581,172,cs),
(664,447,l),
(773,447,l)
);
},
{
closed = 1;
nodes = (
(647,724,o),
(608,698,o),
(566,698,cs),
(517,698,o),
(464,730,o),
(412,730,cs),
(345,730,o),
(293,683,o),
(293,622,cs),
(293,549,o),
(361,491,o),
(361,491,c),
(392,519,l),
(359,540,o),
(343,566,o),
(343,602,cs),
(343,649,o),
(372,679,o),
(417,679,cs),
(461,679,o),
(500,648,o),
(564,648,cs),
(609,648,o),
(643,674,o),
(666,710,c),
(671,769,l)
);
},
{
ref = c;
}
);
width = 794;
}
);
},
{
color = 0;
glyphname = f_b;
kernLeft = KERN_f_2ND;
kernRight = KERN_b_1ST;
lastChange = "2024-09-10 23:20:37 +0000";
layers = (
{
layerId = m001;
shapes = (
{
closed = 1;
nodes = (
(513,804,l),
(493,814,o),
(463,820,o),
(432,820,cs),
(307,820,o),
(227,723,o),
(165,496,c),
(70,496,l),
(57,450,l),
(153,450,l),
(8,-113,ls),
(-6,-168,o),
(-33,-200,o),
(-65,-200,cs),
(-113,-200,o),
(-90,-130,o),
(-145,-130,cs),
(-175,-130,o),
(-194,-151,o),
(-194,-183,cs),
(-194,-230,o),
(-153,-260,o),
(-88,-260,cs),
(25,-260,o),
(92,-167,o),
(152,73,cs),
(246,450,l),
(351,450,l),
(365,496,l),
(257,496,l),
(302,676,o),
(364,775,o),
(433,775,cs),
(468,775,o),
(489,750,o),
(489,712,cs),
(489,702,o),
(487,688,o),
(484,679,c),
(626,829,l)
);
},
{
closed = 1;
nodes = (
(507,753,l),
(366,301,ls),
(338,213,o),
(323,149,o),
(323,114,cs),
(323,41,o),
(377,-10,o),
(453,-10,cs),
(615,-10,o),
(794,207,o),
(794,397,cs),
(794,484,o),
(748,539,o),
(667,539,cs),
(602,539,o),
(541,503,o),
(502,442,c),
(499,444,l),
(626,829,l)
);
},
{
closed = 1;
nodes = (
(435,41,o),
(418,69,o),
(418,123,cs),
(418,270,o),
(550,486,o),
(640,486,cs),
(671,486,o),
(695,451,o),
(695,405,cs),
(695,256,o),
(562,41,o),
(469,41,cs)
);
}
);
width = 829;
}
);
},
{
color = 0;
glyphname = f_f;
kernLeft = KERN_f_2ND;
kernRight = KERN_f_1ST;
lastChange = "2024-09-10 23:20:37 +0000";
layers = (
{
layerId = m001;
shapes = (
{
closed = 1;
nodes = (
(435,450,l),
(291,-113,ls),
(276,-171,o),
(254,-200,o),
(225,-200,cs),
(185,-200,o),
(191,-145,o),
(147,-145,cs),
(121,-145,o),
(103,-164,o),
(103,-192,cs),
(103,-234,o),
(141,-260,o),
(202,-260,cs),
(312,-260,o),
(375,-169,o),
(435,73,cs),
(528,450,l),
(646,450,l),
(660,496,l),
(539,496,l),
(577,683,o),
(628,785,o),
(683,785,cs),
(736,785,o),
(704,689,o),
(772,689,cs),
(802,689,o),
(823,711,o),
(823,743,cs),
(823,792,o),
(766,830,o),
(693,830,cs),
(634,830,o),
(587,804,o),
(546,747,c),
(515,768,o),
(467,780,o),
(410,780,cs),
(285,780,o),
(225,710,o),
(165,496,c),
(70,496,l),
(57,450,l),
(153,450,l),
(8,-113,ls),
(-6,-168,o),
(-33,-200,o),
(-65,-200,cs),
(-113,-200,o),
(-90,-130,o),
(-145,-130,cs),
(-175,-130,o),
(-194,-151,o),
(-194,-183,cs),
(-194,-230,o),
(-153,-260,o),
(-88,-260,cs),
(25,-260,o),
(92,-167,o),
(152,73,cs),
(246,450,l)
);
},
{
closed = 1;
nodes = (
(257,496,l),
(304,678,o),
(342,735,o),
(414,735,cs),
(454,735,o),
(490,717,o),
(510,686,c),
(488,636,o),
(463,562,o),
(447,496,c)
);
}
);
width = 633;
}
);
unicode = 64256;
},
{
color = 0;
glyphname = f_f_b;
kernLeft = KERN_f_2ND;
kernRight = KERN_b_1ST;
lastChange = "2024-09-10 23:20:37 +0000";
layers = (
{
layerId = m001;
shapes = (
{
closed = 1;
nodes = (
(795,804,l),
(775,814,o),
(745,820,o),
(714,820,cs),
(650,820,o),
(599,795,o),
(555,741,c),
(520,767,o),
(465,780,o),
(410,780,cs),
(285,780,o),
(225,710,o),
(165,496,c),
(70,496,l),
(57,450,l),
(153,450,l),
(8,-113,ls),
(-6,-168,o),
(-33,-200,o),
(-65,-200,cs),
(-113,-200,o),
(-90,-130,o),
(-145,-130,cs),
(-175,-130,o),
(-194,-151,o),
(-194,-183,cs),
(-194,-230,o),
(-153,-260,o),
(-88,-260,cs),
(25,-260,o),
(92,-167,o),
(152,73,cs),
(246,450,l),
(435,450,l),
(290,-113,ls),
(276,-168,o),
(249,-200,o),
(217,-200,cs),
(175,-200,o),
(195,-140,o),
(147,-140,cs),
(117,-140,o),
(98,-161,o),
(98,-193,cs),
(98,-234,o),
(135,-260,o),
(194,-260,cs),
(307,-260,o),
(374,-167,o),
(434,73,cs),
(528,450,l),
(633,450,l),
(647,496,l),
(539,496,l),
(584,676,o),
(646,775,o),
(715,775,cs),
(750,775,o),
(771,750,o),
(771,712,cs),
(771,702,o),
(769,691,o),
(766,679,c),
(908,829,l)
);
},
{
closed = 1;
nodes = (
(257,496,l),
(304,678,o),
(342,735,o),
(414,735,cs),
(451,735,o),
(494,715,o),
(514,678,c),
(489,630,o),
(467,570,o),
(447,496,c)
);
},
{
closed = 1;
nodes = (
(789,753,l),
(648,301,ls),
(620,213,o),
(605,149,o),
(605,114,cs),
(605,41,o),
(659,-10,o),
(735,-10,cs),
(897,-10,o),
(1076,207,o),
(1076,397,cs),
(1076,484,o),
(1030,539,o),
(949,539,cs),
(884,539,o),
(823,503,o),
(784,442,c),
(781,444,l),
(908,829,l)
);
},
{
closed = 1;
nodes = (
(717,41,o),
(700,69,o),
(700,123,cs),
(700,270,o),
(832,486,o),
(922,486,cs),
(953,486,o),
(977,451,o),
(977,405,cs),
(977,256,o),
(844,41,o),
(751,41,cs)
);
}
);
width = 1111;
}
);
},
{
color = 0;
glyphname = f_f_h;
kernLeft = KERN_f_2ND;
kernRight = KERN_n_1ST;
lastChange = "2024-09-10 23:20:37 +0000";
layers = (
{
layerId = m001;
shapes = (
{
closed = 1;
nodes = (
(795,804,l),
(775,814,o),
(745,820,o),
(714,820,cs),
(650,820,o),
(599,795,o),
(555,741,c),
(520,767,o),
(465,780,o),
(410,780,cs),
(285,780,o),
(225,710,o),
(165,496,c),
(70,496,l),
(57,450,l),
(153,450,l),
(8,-113,ls),
(-6,-168,o),
(-33,-200,o),
(-65,-200,cs),
(-113,-200,o),
(-90,-130,o),
(-145,-130,cs),
(-175,-130,o),
(-194,-151,o),
(-194,-183,cs),
(-194,-230,o),
(-153,-260,o),
(-88,-260,cs),
(25,-260,o),
(92,-167,o),
(152,73,cs),
(246,450,l),
(435,450,l),
(290,-113,ls),
(276,-168,o),
(249,-200,o),
(217,-200,cs),
(175,-200,o),
(195,-140,o),
(147,-140,cs),
(117,-140,o),
(98,-161,o),
(98,-193,cs),
(98,-234,o),
(135,-260,o),
(194,-260,cs),
(307,-260,o),
(374,-167,o),
(434,73,cs),
(528,450,l),
(633,450,l),
(647,496,l),
(539,496,l),
(584,676,o),
(646,775,o),
(715,775,cs),
(750,775,o),
(771,750,o),
(771,712,cs),
(771,702,o),
(769,691,o),
(766,679,c),
(903,830,l)
);
},
{
closed = 1;
nodes = (
(257,496,l),
(304,678,o),
(342,735,o),
(414,735,cs),
(451,735,o),
(494,715,o),
(514,678,c),
(489,630,o),
(467,570,o),
(447,496,c)
);
},
{
closed = 1;
nodes = (
(873,144,o),
(861,98,o),
(861,53,cs),
(861,9,o),
(876,-10,o),
(912,-10,cs),
(979,-10,o),
(1070,55,o),
(1112,133,c),
(1084,154,l),
(1044,99,o),
(1002,65,o),
(975,65,cs),
(962,65,o),
(956,73,o),
(956,88,cs),
(956,100,o),
(959,108,o),
(1011,253,cs),
(1039,329,o),
(1052,387,o),
(1052,431,cs),
(1052,501,o),
(1017,540,o),
(954,540,cs),
(893,540,o),
(835,504,o),
(792,442,c),
(789,444,l),
(903,830,l),
(798,789,l),
(568,0,l),
(652,0,l),
(675,69,ls),
(773,363,o),
(848,487,o),
(930,487,cs),
(954,487,o),
(963,476,o),
(963,445,cs),
(963,415,o),
(954,379,o),
(931,311,cs)
);
}
);
width = 1149;
}
);
},
{
color = 0;
glyphname = f_f_i;
kernLeft = KERN_f_2ND;
kernRight = KERN_i_1ST;
lastChange = "2024-09-10 23:20:37 +0000";
layers = (
{
layerId = m001;
shapes = (
{
closed = 1;
nodes = (
(663,450,o),
(689,445,o),
(689,408,cs),
(689,390,o),
(683,365,o),
(673,330,cs),
(635,202,ls),
(617,140,o),
(607,100,o),
(607,65,cs),
(607,12,o),
(628,-10,o),
(669,-10,cs),
(755,-10,o),
(827,89,o),
(854,154,c),
(823,171,l),
(810,144,o),
(761,67,o),
(722,67,cs),
(706,67,o),
(700,79,o),
(700,92,cs),
(700,112,o),
(712,154,o),
(716,168,cs),
(783,387,ls),
(797,434,o),
(804,462,o),
(804,479,cs),
(804,502,o),
(793,506,o),
(773,506,cs),
(741,506,o),
(696,496,o),
(605,496,cs),
(539,496,l),
(577,683,o),
(628,785,o),
(683,785,cs),
(736,785,o),
(704,689,o),
(772,689,cs),
(802,689,o),
(823,711,o),
(823,743,cs),
(823,792,o),
(766,830,o),
(693,830,cs),
(634,830,o),
(587,804,o),
(546,747,c),
(515,768,o),
(467,780,o),
(410,780,cs),
(285,780,o),
(225,710,o),
(165,496,c),
(70,496,l),
(57,450,l),
(153,450,l),
(8,-113,ls),
(-6,-168,o),
(-33,-200,o),
(-65,-200,cs),
(-113,-200,o),
(-90,-130,o),
(-145,-130,cs),
(-175,-130,o),
(-194,-151,o),
(-194,-183,cs),
(-194,-230,o),
(-153,-260,o),
(-88,-260,cs),
(25,-260,o),
(92,-167,o),
(152,73,cs),
(246,450,l),
(435,450,l),
(291,-113,ls),
(276,-171,o),
(254,-200,o),
(225,-200,cs),
(185,-200,o),
(191,-145,o),
(147,-145,cs),
(121,-145,o),
(103,-164,o),
(103,-192,cs),
(103,-234,o),
(141,-260,o),
(202,-260,cs),
(312,-260,o),
(375,-169,o),
(435,73,cs),
(528,450,l),
(602,450,ls)
);
},
{
closed = 1;
nodes = (
(257,496,l),
(304,678,o),
(342,735,o),
(414,735,cs),
(454,735,o),
(490,717,o),
(510,686,c),
(488,636,o),
(463,562,o),
(447,496,c)
);
}
);
width = 893;
}
);
unicode = 64259;
},
{
color = 0;
glyphname = f_f_j;
kernLeft = KERN_f_2ND;
kernRight = KERN_j_1ST;
lastChange = "2024-09-10 23:20:37 +0000";
layers = (
{
layerId = m001;
shapes = (
{
closed = 1;
nodes = (
(622,496,l),
(539,496,l),
(577,683,o),
(628,785,o),
(683,785,cs),
(736,785,o),
(704,689,o),
(772,689,cs),
(802,689,o),
(823,711,o),
(823,743,cs),
(823,792,o),
(766,830,o),
(693,830,cs),
(634,830,o),
(587,804,o),
(546,747,c),
(515,768,o),
(467,780,o),
(410,780,cs),
(285,780,o),
(225,710,o),
(165,496,c),
(70,496,l),
(57,450,l),
(153,450,l),
(8,-113,ls),
(-6,-168,o),
(-33,-200,o),
(-65,-200,cs),
(-113,-200,o),
(-90,-130,o),
(-145,-130,cs),
(-175,-130,o),
(-194,-151,o),
(-194,-183,cs),
(-194,-230,o),
(-153,-260,o),
(-88,-260,cs),
(25,-260,o),
(92,-167,o),
(152,73,cs),
(246,450,l),
(435,450,l),
(291,-113,ls),
(276,-171,o),
(254,-200,o),
(225,-200,cs),
(185,-200,o),
(191,-145,o),
(147,-145,cs),
(121,-145,o),
(103,-164,o),
(103,-192,cs),
(103,-234,o),
(141,-260,o),
(202,-260,cs),
(312,-260,o),
(375,-169,o),
(435,73,cs),
(528,450,l),
(619,450,l)
);
},
{
closed = 1;
nodes = (
(257,496,l),
(304,678,o),
(342,735,o),
(414,735,cs),
(454,735,o),
(490,717,o),
(510,686,c),
(488,636,o),
(463,562,o),
(447,496,c)
);
},
{
closed = 1;
nodes = (
(806,435,o),
(810,462,o),
(810,479,cs),
(810,502,o),
(799,506,o),
(779,506,cs),
(748,506,o),
(704,496,o),
(616,496,c),
(613,450,l),
(674,450,o),
(700,445,o),
(700,408,cs),
(700,390,o),
(693,365,o),
(684,330,cs),
(573,-113,ls),
(560,-165,o),
(539,-200,o),
(512,-200,cs),
(479,-200,o),
(488,-125,o),
(440,-125,cs),
(409,-125,o),
(391,-148,o),
(391,-184,cs),
(391,-227,o),
(428,-260,o),
(477,-260,cs),
(568,-260,o),
(658,-148,o),
(687,-34,cs),
(794,387,ls)
);
}
);
width = 858;
}
);
},
{
color = 0;
glyphname = f_f_k;
kernLeft = KERN_f_2ND;
kernRight = KERN_k_1ST;
lastChange = "2024-09-10 23:20:37 +0000";
layers = (
{
layerId = m001;
shapes = (
{
closed = 1;
nodes = (
(795,804,l),
(775,814,o),
(745,820,o),
(714,820,cs),
(650,820,o),
(599,795,o),
(555,741,c),
(520,767,o),
(465,780,o),
(410,780,cs),
(285,780,o),
(225,710,o),
(165,496,c),
(70,496,l),
(57,450,l),
(153,450,l),
(8,-113,ls),
(-6,-168,o),
(-33,-200,o),
(-65,-200,cs),
(-113,-200,o),
(-90,-130,o),
(-145,-130,cs),
(-175,-130,o),
(-194,-151,o),
(-194,-183,cs),
(-194,-230,o),
(-153,-260,o),
(-88,-260,cs),
(25,-260,o),
(92,-167,o),
(152,73,cs),
(246,450,l),
(435,450,l),
(290,-113,ls),
(276,-168,o),
(249,-200,o),
(217,-200,cs),
(175,-200,o),
(195,-140,o),
(147,-140,cs),
(117,-140,o),
(98,-161,o),
(98,-193,cs),
(98,-234,o),
(135,-260,o),
(194,-260,cs),
(307,-260,o),
(374,-167,o),
(434,73,cs),
(528,450,l),
(633,450,l),
(647,496,l),
(539,496,l),
(584,676,o),
(646,775,o),
(715,775,cs),
(750,775,o),
(771,750,o),
(771,712,cs),
(771,702,o),
(769,691,o),
(766,679,c),
(900,830,l)
);
},
{
closed = 1;
nodes = (
(257,496,l),
(304,678,o),
(342,735,o),
(414,735,cs),
(451,735,o),
(494,715,o),
(514,678,c),
(489,630,o),
(467,570,o),
(447,496,c)
);
},
{
closed = 1;
nodes = (
(925,80,o),
(911,97,o),
(897,135,cs),
(846,267,l),
(872,279,ls),
(982,329,o),
(1048,396,o),
(1048,458,cs),
(1048,509,o),
(1009,541,o),
(947,541,cs),
(888,541,o),
(838,508,o),
(800,444,c),
(796,445,l),
(900,830,l),
(789,767,l),
(585,0,l),
(676,0,l),
(739,218,l),
(761,228,l),
(828,68,ls),
(853,8,o),
(870,-10,o),
(902,-10,cs),
(953,-10,o),
(1003,41,o),
(1051,141,c),
(1025,155,l),
(990,105,o),
(963,80,o),
(943,80,cs)
);
},
{
closed = 1;
nodes = (
(778,378,o),
(852,473,o),
(907,473,cs),
(933,473,o),
(948,458,o),
(948,432,cs),
(948,378,o),
(864,308,o),
(748,268,c)
);
}
);
width = 1099;
}
);
},
{
color = 0;
glyphname = f_f_l;
kernLeft = KERN_f_2ND;
kernRight = KERN_l_1ST;
lastChange = "2024-09-10 23:20:37 +0000";
layers = (
{
layerId = m001;
shapes = (
{
closed = 1;
nodes = (
(616,130,o),
(609,83,o),
(609,56,cs),
(609,13,o),
(630,-10,o),
(670,-10,cs),
(739,-10,o),
(825,64,o),
(872,164,c),
(842,181,l),
(811,122,o),
(754,67,o),
(725,67,cs),
(711,67,o),
(704,76,o),
(704,93,cs),
(704,107,o),
(709,133,o),
(720,172,cs),
(899,829,l),
(795,804,l),
(775,814,o),
(745,820,o),
(714,820,cs),
(650,820,o),
(599,795,o),
(555,741,c),
(520,767,o),
(465,780,o),
(410,780,cs),
(285,780,o),
(225,710,o),
(165,496,c),
(70,496,l),
(57,450,l),
(153,450,l),
(8,-113,ls),
(-6,-168,o),
(-33,-200,o),
(-65,-200,cs),
(-113,-200,o),
(-90,-130,o),
(-145,-130,cs),
(-175,-130,o),
(-194,-151,o),
(-194,-183,cs),
(-194,-230,o),
(-153,-260,o),
(-88,-260,cs),
(25,-260,o),
(92,-167,o),
(152,73,cs),
(246,450,l),
(435,450,l),
(290,-113,ls),
(276,-168,o),
(249,-200,o),
(217,-200,cs),
(175,-200,o),
(195,-140,o),
(147,-140,cs),
(117,-140,o),
(98,-161,o),
(98,-193,cs),
(98,-234,o),
(135,-260,o),
(194,-260,cs),
(307,-260,o),
(374,-167,o),
(434,73,cs),
(528,450,l),
(633,450,l),
(647,496,l),
(539,496,l),
(584,676,o),
(646,775,o),
(715,775,cs),
(750,775,o),
(771,750,o),
(771,712,cs),
(771,702,o),
(769,691,o),
(766,679,cs),
(636,202,ls)
);
},
{
closed = 1;
nodes = (
(257,496,l),
(304,678,o),
(342,735,o),
(414,735,cs),
(451,735,o),
(494,715,o),
(514,678,c),
(489,630,o),
(467,570,o),
(447,496,c)
);
}
);
width = 899;
}
);
unicode = 64260;
},
{
color = 0;
glyphname = f_f_t;
kernLeft = KERN_f_2ND;
kernRight = KERN_t_1ST;
lastChange = "2024-09-10 23:20:37 +0000";
layers = (
{
layerId = m001;
shapes = (
{
closed = 1;
nodes = (
(435,450,l),
(291,-113,ls),
(276,-171,o),
(254,-200,o),
(225,-200,cs),
(185,-200,o),
(191,-145,o),
(147,-145,cs),
(121,-145,o),
(103,-164,o),
(103,-192,cs),
(103,-234,o),
(141,-260,o),
(202,-260,cs),
(312,-260,o),
(375,-169,o),
(435,73,cs),
(528,450,l),
(646,450,l),
(660,496,l),
(539,496,l),
(577,683,o),
(628,785,o),
(683,785,cs),
(736,785,o),
(704,689,o),
(772,689,cs),
(802,689,o),
(823,711,o),
(823,743,cs),
(823,792,o),
(766,830,o),
(693,830,cs),
(634,830,o),
(587,804,o),
(546,747,c),
(515,768,o),
(467,780,o),
(410,780,cs),
(285,780,o),
(225,710,o),
(165,496,c),
(70,496,l),
(57,450,l),
(153,450,l),
(8,-113,ls),
(-6,-168,o),
(-33,-200,o),
(-65,-200,cs),
(-113,-200,o),
(-90,-130,o),
(-145,-130,cs),
(-175,-130,o),
(-194,-151,o),
(-194,-183,cs),
(-194,-230,o),
(-153,-260,o),
(-88,-260,cs),
(25,-260,o),
(92,-167,o),
(152,73,cs),
(246,450,l)
);
},
{
closed = 1;
nodes = (
(257,496,l),
(304,678,o),
(342,735,o),
(414,735,cs),
(454,735,o),
(490,717,o),
(510,686,c),
(488,636,o),
(463,562,o),
(447,496,c)
);
},
{
closed = 1;
nodes = (
(928,496,l),
(819,496,l),
(845,582,l),
(753,582,l),
(727,496,l),
(640,496,l),
(627,450,l),
(713,450,l),
(638,202,ls),
(615,124,o),
(607,82,o),
(607,55,cs),
(607,9,o),
(627,-10,o),
(673,-10,cs),
(738,-10,o),
(837,73,o),
(883,164,c),
(854,181,l),
(836,151,o),
(770,67,o),
(723,67,cs),
(708,67,o),
(703,78,o),
(703,90,cs),
(704,109,o),
(710,136,o),
(721,172,cs),
(805,450,l),
(914,450,l)
);
}
);
width = 933;
}
);
},
{
color = 0;
glyphname = f_h;
kernLeft = KERN_f_2ND;
kernRight = KERN_n_1ST;
lastChange = "2024-09-10 23:20:37 +0000";
layers = (
{
layerId = m001;
shapes = (
{
closed = 1;
nodes = (
(513,804,l),
(493,814,o),
(463,820,o),
(432,820,cs),
(307,820,o),
(227,723,o),
(165,496,c),
(70,496,l),
(57,450,l),
(153,450,l),
(8,-113,ls),
(-6,-168,o),
(-33,-200,o),
(-65,-200,cs),
(-113,-200,o),
(-90,-130,o),
(-145,-130,cs),
(-175,-130,o),
(-194,-151,o),
(-194,-183,cs),
(-194,-230,o),
(-153,-260,o),
(-88,-260,cs),
(25,-260,o),
(92,-167,o),
(152,73,cs),
(246,450,l),
(351,450,l),
(365,496,l),
(257,496,l),
(302,676,o),
(364,775,o),
(433,775,cs),
(468,775,o),
(489,750,o),
(489,712,cs),
(489,702,o),
(487,691,o),
(484,679,c),
(621,830,l)
);
},
{
closed = 1;
nodes = (
(591,144,o),
(579,98,o),
(579,53,cs),
(579,9,o),
(594,-10,o),
(630,-10,cs),
(697,-10,o),
(788,55,o),
(830,133,c),
(802,154,l),
(762,99,o),
(720,65,o),
(693,65,cs),
(680,65,o),
(674,73,o),
(674,88,cs),
(674,100,o),
(677,108,o),
(729,253,cs),
(757,329,o),
(770,387,o),
(770,431,cs),
(770,501,o),
(735,540,o),
(672,540,cs),
(611,540,o),
(553,504,o),
(510,442,c),
(507,444,l),
(621,830,l),
(516,789,l),
(286,0,l),
(370,0,l),
(393,69,ls),
(491,363,o),
(566,487,o),
(648,487,cs),
(672,487,o),
(681,476,o),
(681,445,cs),
(681,415,o),
(672,379,o),
(649,311,cs)
);
}
);
width = 867;
}
);
},
{
color = 0;
glyphname = f_j;
kernLeft = KERN_f_2ND;
kernRight = KERN_j_1ST;
lastChange = "2024-09-10 23:20:37 +0000";
layers = (
{
layerId = m001;
shapes = (
{
closed = 1;
nodes = (
(516,435,o),
(520,462,o),
(520,479,cs),
(520,502,o),
(509,506,o),
(489,506,cs),
(458,506,o),
(414,496,o),
(326,496,c),
(323,450,l),
(384,450,o),
(410,445,o),
(410,408,cs),
(410,390,o),
(403,365,o),
(394,330,cs),
(283,-113,ls),
(269,-169,o),
(249,-200,o),
(222,-200,cs),
(189,-200,o),
(198,-125,o),
(150,-125,cs),
(119,-125,o),
(101,-148,o),
(101,-184,cs),
(101,-227,o),
(138,-260,o),
(187,-260,cs),
(278,-260,o),
(368,-148,o),
(397,-34,cs),
(504,387,ls)
);
},
{
ref = f;
}
);
width = 568;
}
);
},
{
color = 0;
glyphname = f_k;
kernLeft = KERN_f_2ND;
kernRight = KERN_k_1ST;
lastChange = "2024-09-10 23:20:37 +0000";
layers = (
{
layerId = m001;
shapes = (
{
closed = 1;
nodes = (
(513,804,l),
(493,814,o),
(463,820,o),
(432,820,cs),
(307,820,o),
(227,723,o),
(165,496,c),
(70,496,l),
(57,450,l),
(153,450,l),
(8,-113,ls),
(-6,-168,o),
(-33,-200,o),
(-65,-200,cs),
(-113,-200,o),
(-90,-130,o),
(-145,-130,cs),
(-175,-130,o),
(-194,-151,o),
(-194,-183,cs),
(-194,-230,o),
(-153,-260,o),
(-88,-260,cs),
(25,-260,o),
(92,-167,o),
(152,73,cs),
(246,450,l),
(351,450,l),
(365,496,l),
(257,496,l),
(302,676,o),
(364,775,o),
(433,775,cs),
(468,775,o),
(489,750,o),
(489,712,cs),
(489,702,o),
(487,691,o),
(484,679,c),
(618,830,l)
);
},
{
closed = 1;
nodes = (
(643,80,o),
(629,97,o),
(615,135,cs),
(564,267,l),
(590,279,ls),
(700,329,o),
(766,396,o),
(766,458,cs),
(766,509,o),
(727,541,o),
(665,541,cs),
(606,541,o),
(556,508,o),
(518,444,c),
(514,445,l),
(618,830,l),
(507,767,l),
(303,0,l),
(394,0,l),
(457,218,l),
(479,228,l),
(546,68,ls),
(571,8,o),
(588,-10,o),
(620,-10,cs),
(671,-10,o),
(721,41,o),
(769,141,c),
(743,155,l),
(708,105,o),
(681,80,o),
(661,80,cs)
);
},
{
closed = 1;
nodes = (
(496,378,o),
(570,473,o),
(625,473,cs),
(651,473,o),
(666,458,o),
(666,432,cs),
(666,378,o),
(582,308,o),
(466,268,c)
);
}
);
width = 817;
}
);
},
{
color = 0;
glyphname = f_t;
kernLeft = KERN_f_2ND;
kernRight = KERN_t_1ST;
lastChange = "2024-09-10 23:20:37 +0000";
layers = (
{
layerId = m001;
shapes = (
{
closed = 1;
nodes = (
(636,496,l),
(527,496,l),
(553,582,l),
(461,582,l),
(435,496,l),
(348,496,l),
(335,450,l),
(421,450,l),
(346,202,ls),
(323,124,o),
(315,82,o),
(315,55,cs),
(315,9,o),
(335,-10,o),
(381,-10,cs),
(446,-10,o),
(545,73,o),
(591,164,c),
(562,181,l),
(544,151,o),
(478,67,o),
(431,67,cs),
(416,67,o),
(411,78,o),
(411,90,cs),
(412,109,o),
(418,136,o),
(429,172,cs),
(513,450,l),
(622,450,l)
);
},
{
ref = f;
}
);
width = 641;
}
);
},
{
color = 0;
glyphname = fi;
kernRight = KERN_i_1ST;
lastChange = "2024-09-10 23:20:37 +0000";
layers = (
{
layerId = m001;
shapes = (
{
closed = 1;
nodes = (
(384,450,o),
(410,445,o),
(410,408,cs),
(410,390,o),
(404,365,o),
(394,330,cs),
(356,202,ls),
(338,140,o),
(328,100,o),
(328,65,cs),
(328,12,o),
(349,-10,o),
(390,-10,cs),
(476,-10,o),
(548,89,o),
(575,154,c),
(544,171,l),
(531,144,o),
(482,67,o),
(443,67,cs),
(427,67,o),
(421,79,o),
(421,92,cs),
(421,112,o),
(433,154,o),
(437,168,cs),
(504,387,ls),
(518,434,o),
(525,462,o),
(525,479,cs),
(525,502,o),
(514,506,o),
(494,506,cs),
(462,506,o),
(417,496,o),
(326,496,c),
(323,450,l)
);
},
{
ref = f;
}
);
width = 614;
}
);
unicode = 64257;
},
{
color = 0;
glyphname = fl;
kernRight = KERN_l_1ST;
lastChange = "2024-09-10 23:20:37 +0000";
layers = (
{
layerId = m001;
shapes = (
{
closed = 1;
nodes = (
(334,130,o),
(327,83,o),
(327,56,cs),
(327,13,o),
(348,-10,o),
(388,-10,cs),
(457,-10,o),
(543,64,o),
(590,164,c),
(560,181,l),
(529,122,o),
(472,67,o),
(443,67,cs),
(429,67,o),
(422,76,o),
(422,93,cs),
(422,107,o),
(427,133,o),
(438,172,cs),
(617,829,l),
(513,804,l),
(493,814,o),
(463,820,o),
(432,820,cs),
(307,820,o),
(227,723,o),
(165,496,c),
(70,496,l),
(57,450,l),
(153,450,l),
(8,-113,ls),
(-6,-168,o),
(-33,-200,o),
(-65,-200,cs),
(-113,-200,o),
(-90,-130,o),
(-145,-130,cs),
(-175,-130,o),
(-194,-151,o),
(-194,-183,cs),
(-194,-230,o),
(-153,-260,o),
(-88,-260,cs),
(25,-260,o),
(92,-167,o),
(152,73,cs),
(246,450,l),
(351,450,l),
(365,496,l),
(257,496,l),
(302,676,o),
(364,775,o),
(433,775,cs),
(468,775,o),
(489,750,o),
(489,712,cs),
(489,702,o),
(487,691,o),
(484,679,cs),
(354,202,ls)
);
}
);
width = 617;
}
);
unicode = 64258;
},
{
color = 0;
glyphname = s_p;
kernLeft = KERN_s_2ND;
kernRight = KERN_p_1ST;
lastChange = "2024-09-10 23:20:37 +0000";
layers = (
{
layerId = m001;
shapes = (
{
closed = 1;
nodes = (
(574,724,o),
(535,698,o),
(493,698,cs),
(444,698,o),
(391,730,o),
(339,730,cs),
(272,730,o),
(220,683,o),
(220,622,cs),
(220,549,o),
(288,491,o),
(288,491,c),
(319,519,l),
(286,540,o),
(270,566,o),
(270,602,cs),
(270,649,o),
(299,679,o),
(344,679,cs),
(388,679,o),
(427,648,o),
(491,648,cs),
(536,648,o),
(570,674,o),
(593,710,c),
(598,769,l)
);
},
{
closed = 1;
nodes = (
(456,426,o),
(481,442,o),
(505,454,c),
(324,-164,ls),
(314,-199,o),
(292,-210,o),
(236,-210,c),
(230,-250,l),
(513,-250,l),
(519,-210,l),
(450,-209,o),
(426,-197,o),
(426,-164,cs),
(426,-154,o),
(428,-141,o),
(434,-121,cs),
(471,18,l),
(669,44,o),
(850,188,o),
(850,364,cs),
(850,474,o),
(784,539,o),
(671,539,cs),
(650,539,o),
(629,536,o),
(608,532,c),
(674,770,l),
(598,770,l),
(520,505,l),
(481,489,o),
(438,466,o),
(410,435,c),
(437,407,l)
);
},
{
closed = 1;
nodes = (
(706,490,o),
(746,438,o),
(746,358,cs),
(746,214,o),
(616,87,o),
(482,61,c),
(595,485,l),
(611,488,o),
(628,490,o),
(645,490,cs)
);
},
{
ref = s;
}
);
width = 888;
}
);
},
{
color = 0;
glyphname = s_t;
kernLeft = KERN_s_2ND;
kernRight = KERN_t_1ST;
lastChange = "2024-09-10 23:20:37 +0000";
layers = (
{
layerId = m001;
shapes = (
{
closed = 1;
nodes = (
(714,493,l),
(605,493,l),
(689,769,l),
(597,769,l),
(513,493,l),
(426,493,l),
(413,447,l),
(499,447,l),
(425,202,ls),
(403,128,o),
(394,83,o),
(394,55,cs),
(394,13,o),
(414,-10,o),
(454,-10,cs),
(525,-10,o),
(619,66,o),
(670,164,c),
(641,181,l),
(606,124,o),
(542,67,o),
(511,67,cs),
(497,67,o),
(490,75,o),
(490,90,cs),
(490,104,o),
(497,136,o),
(508,172,cs),
(591,447,l),
(700,447,l)
);
},
{
closed = 1;
nodes = (
(574,724,o),
(535,698,o),
(493,698,cs),
(444,698,o),
(391,730,o),
(339,730,cs),
(272,730,o),
(220,683,o),
(220,622,cs),
(220,549,o),
(288,491,o),
(288,491,c),
(319,519,l),
(286,540,o),
(270,566,o),
(270,602,cs),
(270,649,o),
(299,679,o),
(344,679,cs),
(388,679,o),
(427,648,o),
(491,648,cs),
(536,648,o),
(570,674,o),
(593,710,c),
(598,769,l)
);
},
{
ref = s;
}
);
width = 721;
}
);
unicode = 64262;
},
{
color = 0;
glyphname = ordfeminine;
lastChange = "2024-09-10 23:20:37 +0000";
layers = (
{
layerId = m001;
shapes = (
{
closed = 1;
nodes = (
(306,749,o),
(315,741,o),
(315,718,cs),
(315,661,o),
(261,547,o),
(218,547,cs),
(202,547,o),
(191,562,o),
(191,589,cs),
(191,649,o),
(248,749,o),
(293,749,cs)
);
},
{
closed = 1;
nodes = (
(331,770,o),
(318,780,o),
(295,780,cs),
(219,780,o),
(129,669,o),
(129,581,cs),
(129,533,o),
(155,507,o),
(191,507,cs),
(226,507,o),
(263,532,o),
(281,566,c),
(285,566,l),
(284,555,o),
(283,545,o),
(283,538,cs),
(283,516,o),
(292,507,o),
(309,507,cs),
(339,507,o),
(378,536,o),
(408,584,c),
(395,599,l),
(373,568,o),
(356,548,o),
(345,548,cs),
(338,548,o),
(336,555,o),
(336,562,cs),
(336,583,o),
(355,650,o),
(373,699,cs),
(401,775,l),
(350,775,l),
(339,748,l)
);
}
);
width = 379;
}
);
unicode = 170;
},
{
color = 0;
glyphname = ordmasculine;
lastChange = "2024-09-10 23:20:37 +0000";
layers = (
{
layerId = m001;
shapes = (
{
closed = 1;
nodes = (
(301,507,o),
(378,602,o),
(378,685,cs),
(378,743,o),
(340,780,o),
(286,780,cs),
(208,780,o),
(133,693,o),
(133,607,cs),
(133,545,o),
(175,507,o),
(224,507,cs)
);
},
{
closed = 1;
nodes = (
(214,537,o),
(200,551,o),
(200,587,cs),
(200,658,o),
(240,752,o),
(281,752,cs),
(302,752,o),
(315,741,o),
(315,705,cs),
(315,635,o),
(273,537,o),
(232,537,cs)
);
}
);
width = 338;
}
);
unicode = 186;
},
{
color = 0;
glyphname = mu;
lastChange = "2024-09-10 23:20:37 +0000";
layers = (
{
layerId = m001;
shapes = (
{
closed = 1;
nodes = (
(155,367,o),
(164,403,o),
(164,428,cs),
(164,442,o),
(160,449,o),
(153,449,cs),
(137,449,o),
(105,420,o),
(60,365,c),
(34,379,l),
(77,464,o),
(168,540,o),
(227,540,cs),
(258,540,o),
(277,519,o),
(277,485,cs),
(277,454,o),
(272,437,o),
(211,259,cs),
(189,194,o),
(176,137,o),
(176,104,cs),
(176,75,o),
(185,62,o),
(203,62,cs),
(254,62,o),
(344,186,o),
(397,330,cs),
(471,530,l),
(564,530,l),
(490,301,ls),
(446,165,o),
(432,115,o),
(432,91,cs),
(432,74,o),
(438,65,o),
(449,65,cs),
(477,65,o),
(528,121,o),
(554,181,c),
(584,166,l),
(544,67,o),
(463,-10,o),
(399,-10,cs),
(362,-10,o),
(347,16,o),
(347,81,cs),
(347,101,o),
(349,119,o),
(352,138,c),
(349,141,l),
(306,44,o),
(252,-10,o),
(198,-10,cs),
(167,-10,o),
(146,2,o),
(135,26,c),
(132,25,l),
(98,-181,ls),
(89,-235,o),
(69,-260,o),
(31,-260,cs),
(0,-260,o),
(-14,-245,o),
(-14,-210,cs),
(-14,-198,o),
(-12,-185,o),
(-8,-169,cs),
(8,-104,o),
(75,119,o),
(123,268,cs)
);
}
);
width = 640;
}
);
unicode = 956;
},
{
color = 0;
glyphname = zero;
lastChange = "2024-09-10 23:20:37 +0000";
layers = (
{
layerId = m001;
shapes = (
{
closed = 1;
nodes = (
(435,-10,o),
(629,271,o),
(629,525,cs),
(629,678,o),
(552,780,o),
(437,780,cs),
(257,780,o),
(69,514,o),
(69,258,cs),
(69,98,o),
(146,-10,o),
(260,-10,cs)
);
},
{
closed = 1;
nodes = (
(485,728,o),
(517,681,o),
(517,598,cs),
(517,337,o),
(388,43,o),
(273,43,cs),
(214,43,o),
(180,93,o),
(180,179,cs),
(180,435,o),
(312,728,o),
(427,728,cs)
);
}
);
width = 656;
}
);
unicode = 48;
},
{
color = 0;
glyphname = one;
lastChange = "2024-09-10 23:20:37 +0000";
layers = (
{
layerId = m001;
shapes = (
{
closed = 1;
nodes = (
(389,780,l),
(317,709,o),
(236,645,o),
(121,645,c),
(115,603,l),
(192,603,o),
(239,619,o),
(261,619,cs),
(272,619,o),
(276,616,o),
(276,606,cs),
(276,602,o),
(275,596,o),
(274,590,cs),
(172,179,ls),
(145,69,o),
(100,40,o),
(7,40,c),
(-4,0,l),
(366,0,l),
(377,40,l),
(295,40,o),
(270,74,o),
(270,127,cs),
(270,166,o),
(284,215,o),
(297,268,cs),
(426,780,l)
);
}
);
width = 474;
}
);
unicode = 49;
},
{
color = 0;
glyphname = two;
lastChange = "2024-09-10 23:20:37 +0000";
layers = (
{
layerId = m001;
shapes = (
{
closed = 1;
nodes = (
(471,322,o),
(590,461,o),
(590,597,cs),
(590,708,o),
(506,781,o),
(380,781,cs),
(236,781,o),
(119,685,o),
(119,566,cs),
(119,493,o),
(163,443,o),
(228,443,cs),
(269,443,o),
(302,463,o),
(314,496,c),
(254,496,o),
(220,531,o),
(220,591,cs),
(220,666,o),
(281,728,o),
(359,728,cs),
(429,728,o),
(472,677,o),
(472,600,cs),
(472,461,o),
(354,319,o),
(20,53,c),
(11,0,l),
(475,0,l),
(538,173,l),
(501,173,l),
(464,115,o),
(434,98,o),
(369,98,cs),
(165,98,l),
(165,103,l)
);
}
);
width = 625;
}
);
unicode = 50;
},
{
color = 0;
glyphname = three;
lastChange = "2024-09-10 23:20:37 +0000";
layers = (
{
layerId = m001;
shapes = (
{
closed = 1;
nodes = (
(411,308,o),
(363,375,o),
(299,375,cs),
(276,375,o),
(242,367,o),
(220,367,cs),
(199,367,o),
(188,374,o),
(188,387,cs),
(188,454,o),
(455,384,o),
(455,618,cs),
(455,694,o),
(427,729,o),
(365,729,cs),
(295,729,o),
(246,686,o),
(246,626,cs),
(246,585,o),
(269,561,o),
(308,561,c),
(298,538,o),
(271,523,o),
(240,523,cs),
(189,523,o),
(155,560,o),
(155,616,cs),
(155,710,o),
(248,780,o),
(373,780,cs),
(490,780,o),
(565,720,o),
(565,626,cs),
(565,533,o),
(485,440,o),
(384,417,c),
(384,411,l),
(475,387,o),
(529,321,o),
(529,235,cs),
(529,100,o),
(395,-10,o),
(231,-10,cs),
(108,-10,o),
(24,53,o),
(24,145,cs),
(24,220,o),
(80,284,o),
(147,284,cs),
(182,284,o),
(210,266,o),
(215,240,c),
(166,240,o),
(124,192,o),
(124,134,cs),
(124,76,o),
(166,42,o),
(239,42,cs),
(342,42,o),
(411,113,o),
(411,219,cs)
);
}
);
width = 617;
}
);
unicode = 51;
},
{
color = 0;
glyphname = four;
lastChange = "2024-09-10 23:20:37 +0000";
layers = (
{
layerId = m001;
shapes = (
{
closed = 1;
nodes = (
(491,780,l),
(26,336,l),
(13,285,l),
(308,285,l),
(236,0,l),
(340,0,l),
(409,285,l),
(532,285,l),
(547,346,l),
(424,346,l),
(535,780,l)
);
},
{
closed = 1;
nodes = (
(394,609,l),
(397,608,l),
(325,346,l),
(117,346,l)
);
}
);
width = 578;
}
);
unicode = 52;
},
{
color = 0;
glyphname = five;
lastChange = "2024-09-10 23:20:37 +0000";
layers = (
{
layerId = m001;
shapes = (
{
closed = 1;
nodes = (
(283,491,o),
(233,484,o),
(215,476,c),
(211,482,l),
(278,679,l),
(320,669,o),
(378,661,o),
(417,661,cs),
(505,661,o),
(563,700,o),
(591,780,c),
(585,781,l),
(551,769,o),
(491,762,o),
(418,762,cs),
(347,762,o),
(287,769,o),
(255,780,c),
(130,412,ls),
(129,409,o),
(128,403,o),
(128,399,cs),
(128,389,o),
(135,382,o),
(143,382,cs),
(168,382,o),
(199,441,o),
(295,441,cs),
(387,441,o),
(435,385,o),
(435,280,cs),
(435,142,o),
(354,42,o),
(243,42,cs),
(172,42,o),
(126,82,o),
(126,145,cs),
(126,199,o),
(159,240,o),
(202,240,c),
(197,265,o),
(169,284,o),
(137,284,cs),
(79,284,o),
(31,222,o),
(31,149,cs),
(31,53,o),
(113,-10,o),
(237,-10,cs),
(411,-10,o),
(553,115,o),
(553,268,cs),
(553,397,o),
(453,491,o),
(318,491,cs)
);
}
);
width = 610;
}
);
unicode = 53;
},
{
color = 0;
glyphname = six;
lastChange = "2024-09-10 23:20:37 +0000";
layers = (
{
layerId = m001;
shapes = (
{
closed = 1;
nodes = (
(559,404,o),
(475,488,o),
(350,488,cs),
(301,488,o),
(257,475,o),
(213,448,c),
(210,450,l),
(254,617,o),
(361,735,o),
(468,735,cs),
(509,735,o),
(521,714,o),
(521,671,cs),
(521,634,o),
(542,616,o),
(570,616,cs),
(603,616,o),
(624,639,o),
(624,673,cs),
(624,734,o),
(557,780,o),
(468,780,cs),
(263,780,o),
(71,534,o),
(71,270,cs),
(71,98,o),
(153,-10,o),
(284,-10,cs),
(430,-10,o),
(559,125,o),
(559,279,cs)
);
},
{
closed = 1;
nodes = (
(403,439,o),
(440,387,o),
(440,285,cs),
(440,144,o),
(370,35,o),
(278,35,cs),
(209,35,o),
(172,94,o),
(172,202,cs),
(172,344,o),
(236,439,o),
(332,439,cs)
);
}
);
width = 635;
}
);
unicode = 54;
},
{
color = 0;
glyphname = seven;
lastChange = "2024-09-10 23:20:37 +0000";
layers = (
{
layerId = m001;
shapes = (
{
closed = 1;
nodes = (
(218,280,ls),
(83,88,o),
(62,57,o),
(62,31,cs),
(62,6,o),
(82,-10,o),
(110,-10,cs),
(149,-10,o),
(178,21,o),
(242,136,cs),
(413,442,o),
(516,634,o),
(596,750,c),
(599,770,l),
(296,770,ls),
(243,770,o),
(223,778,o),
(223,798,cs),
(223,802,o),
(224,803,o),
(224,806,c),
(194,806,l),
(101,569,l),
(144,569,l),
(165,608,ls),
(200,674,o),
(216,680,o),
(313,680,cs),
(499,680,l)
);
}
);
width = 524;
}
);
unicode = 55;
},
{
color = 0;
glyphname = eight;
lastChange = "2024-09-10 23:20:37 +0000";
layers = (
{
layerId = m001;
shapes = (
{
closed = 1;
nodes = (
(518,448,o),
(597,530,o),
(597,619,cs),
(597,711,o),
(508,780,o),
(392,780,cs),
(260,780,o),
(146,689,o),
(146,577,cs),
(146,512,o),
(184,450,o),
(253,404,c),
(112,364,o),
(43,291,o),
(43,182,cs),
(43,62,o),
(127,-10,o),
(266,-10,cs),
(427,-10,o),
(543,87,o),
(543,222,cs),
(543,303,o),
(505,374,o),
(416,429,c)
);
},
{
closed = 1;
nodes = (
(406,305,o),
(439,257,o),
(439,192,cs),
(439,105,o),
(370,43,o),
(272,43,cs),
(188,43,o),
(144,89,o),
(144,175,cs),
(144,270,o),
(192,339,o),
(290,383,c),
(342,349,l)
);
},
{
closed = 1;
nodes = (
(279,514,o),
(250,566,o),
(250,611,cs),
(250,680,o),
(309,728,o),
(384,728,cs),
(459,728,o),
(502,680,o),
(502,615,cs),
(502,546,o),
(458,493,o),
(378,450,c),
(337,476,ls)
);
}
);
width = 639;
}
);
unicode = 56;
},
{
color = 0;
glyphname = nine;
lastChange = "2024-09-10 23:20:37 +0000";
layers = (
{
layerId = m001;
shapes = (
{
closed = 1;
nodes = (
(113,376,o),
(197,292,o),
(322,292,cs),
(371,292,o),
(415,305,o),
(459,332,c),
(462,330,l),
(418,157,o),
(311,35,o),
(204,35,cs),
(163,35,o),
(151,56,o),
(151,99,cs),
(151,136,o),
(130,154,o),
(102,154,cs),
(69,154,o),
(48,131,o),
(48,97,cs),
(48,36,o),
(115,-10,o),
(204,-10,cs),
(409,-10,o),
(601,236,o),
(601,500,cs),
(601,672,o),
(519,780,o),
(388,780,cs),
(242,780,o),
(113,650,o),
(113,501,cs)
);
},
{
closed = 1;
nodes = (
(269,341,o),
(232,393,o),
(232,495,cs),
(232,630,o),
(302,735,o),
(394,735,cs),
(463,735,o),
(500,676,o),
(500,568,cs),
(500,432,o),
(436,341,o),
(340,341,c)
);
}
);
width = 634;
}
);
unicode = 57;
},
{
color = 0;
glyphname = fraction;
lastChange = "2024-09-10 23:20:37 +0000";
layers = (
{
layerId = m001;
shapes = (
{
closed = 1;
nodes = (
(322,770,l),
(-301,0,l),
(-234,0,l),
(380,770,l)
);
}
);
width = 40;
}
);
unicode = 8260;
},
{
color = 0;
glyphname = zeroinferior;
lastChange = "2024-09-10 23:20:37 +0000";
layers = (
{
layerId = m001;
shapes = (
{
closed = 1;
nodes = (
(149,-10,o),
(232,102,o),
(232,204,cs),
(232,265,o),
(197,306,o),
(145,306,cs),
(68,306,o),
(-12,200,o),
(-12,97,cs),
(-12,33,o),
(23,-10,o),
(74,-10,cs)
);
},
{
closed = 1;
nodes = (
(164,280,o),
(177,261,o),
(177,228,cs),
(177,128,o),
(126,16,o),
(80,16,cs),
(56,16,o),
(42,36,o),
(42,71,cs),
(42,169,o),
(95,280,o),
(141,280,cs)
);
}
);
width = 307;
}
);
unicode = 8320;
},
{
color = 0;
glyphname = oneinferior;
lastChange = "2024-09-10 23:20:37 +0000";
layers = (
{
layerId = m001;
shapes = (
{
closed = 1;
nodes = (
(142,312,l),
(114,286,o),
(84,263,o),
(40,263,c),
(33,241,l),
(63,241,o),
(82,248,o),
(91,248,cs),
(95,248,o),
(97,246,o),
(97,242,cs),
(97,241,o),
(97,238,o),
(96,236,cs),
(56,77,ls),
(45,33,o),
(28,21,o),
(-10,21,c),
(-15,0,l),
(138,0,l),
(143,21,l),
(111,21,o),
(101,35,o),
(101,56,cs),
(101,71,o),
(105,90,o),
(111,112,cs),
(162,312,l)
);
}
);
width = 273;
}
);
unicode = 8321;
},
{
color = 0;
glyphname = twoinferior;
lastChange = "2024-09-10 23:20:37 +0000";
layers = (
{
layerId = m001;
shapes = (
{
closed = 1;
nodes = (
(161,129,o),
(208,185,o),
(208,239,cs),
(208,283,o),
(173,313,o),
(119,313,cs),
(59,313,o),
(10,274,o),
(10,227,cs),
(10,197,o),
(29,177,o),
(58,177,cs),
(75,177,o),
(88,185,o),
(93,199,c),
(69,199,o),
(55,213,o),
(55,237,cs),
(55,264,o),
(80,286,o),
(111,286,cs),
(139,286,o),
(156,268,o),
(156,240,cs),
(156,185,o),
(109,128,o),
(-25,21,c),
(-28,0,l),
(157,0,l),
(182,69,l),
(163,69,l),
(148,46,o),
(136,39,o),
(110,39,cs),
(38,39,l),
(38,43,l)
);
}
);
width = 283;
}
);
unicode = 8322;
},
{
color = 0;
glyphname = threeinferior;
lastChange = "2024-09-10 23:20:37 +0000";
layers = (
{
layerId = m001;
shapes = (
{
closed = 1;
nodes = (
(132,117,o),
(113,144,o),
(87,144,cs),
(78,144,o),
(64,141,o),
(56,141,cs),
(47,141,o),
(43,144,o),
(43,149,cs),
(43,185,o),
(150,148,o),
(150,236,cs),
(150,267,o),
(138,281,o),
(114,281,cs),
(86,281,o),
(66,265,o),
(66,244,cs),
(66,228,o),
(75,218,o),
(91,218,c),
(87,209,o),
(76,203,o),
(64,203,cs),
(40,203,o),
(25,218,o),
(25,240,cs),
(25,278,o),
(64,306,o),
(117,306,cs),
(167,306,o),
(199,282,o),
(199,244,cs),
(199,207,o),
(167,171,o),
(126,162,c),
(126,158,l),
(163,149,o),
(184,122,o),
(184,88,cs),
(184,34,o),
(129,-10,o),
(60,-10,cs),
(8,-10,o),
(-28,15,o),
(-28,52,cs),
(-28,82,o),
(-3,108,o),
(26,108,cs),
(40,108,o),
(52,100,o),
(54,90,c),
(34,90,o),
(17,71,o),
(17,48,cs),
(17,27,o),
(34,16,o),
(63,16,cs),
(104,16,o),
(132,42,o),
(132,82,cs)
);
}
);
width = 287;
}
);
unicode = 8323;
},
{
color = 0;
glyphname = fourinferior;
lastChange = "2024-09-10 23:20:37 +0000";
layers = (
{
layerId = m001;
shapes = (
{
closed = 1;
nodes = (
(157,312,l),
(-29,134,l),
(-34,114,l),
(84,114,l),
(55,0,l),
(97,0,l),
(130,114,l),
(179,114,l),
(185,138,l),
(136,138,l),
(180,312,l)
);
},
{
closed = 1;
nodes = (
(117,244,l),
(120,243,l),
(91,138,l),
(8,138,l)
);
}
);
width = 259;
}
);
unicode = 8324;
},
{
color = 0;
glyphname = fiveinferior;
lastChange = "2024-09-10 23:20:37 +0000";
layers = (
{
layerId = m001;
shapes = (
{
closed = 1;
nodes = (
(84,191,o),
(65,188,o),
(58,185,c),
(55,187,l),
(82,264,l),
(99,260,o),
(122,257,o),
(137,257,cs),
(173,257,o),
(196,274,o),
(207,306,c),
(204,307,l),
(190,302,o),
(167,299,o),
(138,299,cs),
(109,299,o),
(83,302,o),
(71,306,c),
(25,174,ls),
(22,166,o),
(17,152,o),
(17,149,cs),
(17,145,o),
(20,142,o),
(23,142,cs),
(33,142,o),
(45,166,o),
(84,166,cs),
(123,166,o),
(145,145,o),
(145,106,cs),
(145,54,o),
(112,16,o),
(68,16,cs),
(39,16,o),
(21,30,o),
(21,52,cs),
(21,74,o),
(34,90,o),
(51,90,c),
(49,100,o),
(38,108,o),
(25,108,cs),
(-1,108,o),
(-22,83,o),
(-22,54,cs),
(-22,15,o),
(13,-10,o),
(65,-10,cs),
(138,-10,o),
(197,40,o),
(197,101,cs),
(197,153,o),
(155,191,o),
(98,191,cs)
);
}
);
width = 285;
}
);
unicode = 8325;
},
{
color = 0;
glyphname = sixinferior;
lastChange = "2024-09-10 23:20:37 +0000";
layers = (
{
layerId = m001;
shapes = (
{
closed = 1;
nodes = (
(194,156,o),
(158,189,o),
(105,189,cs),
(86,189,o),
(69,184,o),
(52,173,c),
(49,174,l),
(67,238,o),
(110,283,o),
(153,283,cs),
(169,283,o),
(174,276,o),
(174,257,cs),
(174,243,o),
(182,235,o),
(193,235,cs),
(210,235,o),
(220,247,o),
(220,263,cs),
(220,288,o),
(191,306,o),
(153,306,cs),
(68,306,o),
(-11,208,o),
(-11,102,cs),
(-11,33,o),
(24,-10,o),
(79,-10,cs),
(140,-10,o),
(194,44,o),
(194,106,cs)
);
},
{
closed = 1;
nodes = (
(127,165,o),
(141,144,o),
(141,103,cs),
(141,53,o),
(113,13,o),
(77,13,cs),
(49,13,o),
(34,37,o),
(34,80,cs),
(34,131,o),
(60,165,o),
(98,165,cs)
);
}
);
width = 293;
}
);
unicode = 8326;
},
{
color = 0;
glyphname = seveninferior;
lastChange = "2024-09-10 23:20:37 +0000";
layers = (
{
layerId = m001;
shapes = (
{
closed = 1;
nodes = (
(48,106,ls),
(-6,32,o),
(-14,20,o),
(-14,9,cs),
(-14,0,o),
(-8,-10,o),
(7,-10,cs),
(22,-10,o),
(37,1,o),
(63,48,cs),
(142,190,o),
(149,201,o),
(205,289,c),
(206,302,l),
(85,302,ls),
(64,302,o),
(55,305,o),
(55,313,cs),
(55,315,o),
(56,314,o),
(56,316,c),
(39,316,l),
(2,221,l),
(24,221,l),
(32,237,ls),
(44,260,o),
(60,261,o),
(91,261,cs),
(161,261,l)
);
}
);
width = 246;
}
);
unicode = 8327;
},
{
color = 0;
glyphname = eightinferior;
lastChange = "2024-09-10 23:20:37 +0000";
layers = (
{
layerId = m001;
shapes = (
{
closed = 1;
nodes = (
(180,173,o),
(212,206,o),
(212,242,cs),
(212,278,o),
(174,306,o),
(125,306,cs),
(69,306,o),
(21,270,o),
(21,225,cs),
(21,199,o),
(37,174,o),
(64,156,c),
(8,140,o),
(-20,110,o),
(-20,67,cs),
(-20,19,o),
(16,-10,o),
(74,-10,cs),
(142,-10,o),
(190,29,o),
(190,83,cs),
(190,115,o),
(175,144,o),
(139,166,c)
);
},
{
closed = 1;
nodes = (
(130,116,o),
(144,97,o),
(144,71,cs),
(144,39,o),
(116,16,o),
(77,16,cs),
(43,16,o),
(26,35,o),
(26,69,cs),
(26,105,o),
(45,131,o),
(84,147,c),
(105,134,l)
);
},
{
closed = 1;
nodes = (
(80,200,o),
(68,220,o),
(68,238,cs),
(68,263,o),
(92,280,o),
(122,280,cs),
(152,280,o),
(169,261,o),
(169,235,cs),
(169,209,o),
(151,190,o),
(119,174,c),
(103,184,ls)
);
}
);
width = 295;
}
);
unicode = 8328;
},
{
color = 0;
glyphname = nineinferior;
lastChange = "2024-09-10 23:20:37 +0000";
layers = (
{
layerId = m001;
shapes = (
{
closed = 1;
nodes = (
(10,140,o),
(46,107,o),
(99,107,cs),
(118,107,o),
(135,112,o),
(152,123,c),
(155,122,l),
(137,58,o),
(94,13,o),
(51,13,cs),
(18,13,o),
(41,61,o),
(11,61,cs),
(-6,61,o),
(-16,49,o),
(-16,33,cs),
(-16,8,o),
(13,-10,o),
(51,-10,cs),
(136,-10,o),
(215,88,o),
(215,194,cs),
(215,263,o),
(180,306,o),
(125,306,cs),
(64,306,o),
(10,252,o),
(10,190,cs)
);
},
{
closed = 1;
nodes = (
(77,131,o),
(63,152,o),
(63,193,cs),
(63,243,o),
(91,283,o),
(127,283,cs),
(155,283,o),
(170,259,o),
(170,216,cs),
(170,165,o),
(144,131,o),
(106,131,cs)
);
}
);
width = 293;
}
);
unicode = 8329;
},
{
color = 0;
glyphname = zerosuperior;
lastChange = "2024-09-10 23:20:37 +0000";
layers = (
{
layerId = m001;
shapes = (
{
closed = 1;
nodes = (
(276,465,o),
(359,577,o),
(359,679,cs),
(359,740,o),
(324,781,o),
(272,781,cs),
(195,781,o),
(115,675,o),
(115,572,cs),
(115,508,o),
(150,465,o),
(201,465,cs)
);
},
{
closed = 1;
nodes = (
(291,755,o),
(304,736,o),
(304,703,cs),
(304,603,o),
(253,491,o),
(207,491,cs),
(183,491,o),
(169,511,o),
(169,546,cs),
(169,644,o),
(222,755,o),
(268,755,cs)
);
}
);
width = 307;
}
);
unicode = 8304;
},
{
color = 0;
glyphname = onesuperior;
lastChange = "2024-09-10 23:20:37 +0000";
layers = (
{
layerId = m001;
shapes = (
{
closed = 1;
nodes = (
(267,780,l),
(239,754,o),
(209,731,o),
(165,731,c),
(158,709,l),
(188,709,o),
(207,716,o),
(216,716,cs),
(220,716,o),
(222,714,o),
(222,710,cs),
(222,709,o),
(222,706,o),
(221,704,cs),
(181,545,ls),
(170,502,o),
(153,489,o),
(115,489,c),
(110,468,l),
(263,468,l),
(268,489,l),
(236,489,o),
(226,503,o),
(226,524,cs),
(226,539,o),
(231,560,o),
(236,580,cs),
(287,780,l)
);
}
);
width = 273;
}
);
unicode = 185;
},
{
color = 0;
glyphname = twosuperior;
lastChange = "2024-09-10 23:20:37 +0000";
layers = (
{
layerId = m001;
shapes = (
{
closed = 1;
nodes = (
(285,595,o),
(333,653,o),
(333,707,cs),
(333,751,o),
(298,781,o),
(244,781,cs),
(184,781,o),
(135,742,o),
(135,695,cs),
(135,665,o),
(154,645,o),
(183,645,cs),
(200,645,o),
(213,653,o),
(218,667,c),
(194,667,o),
(180,681,o),
(180,705,cs),
(180,732,o),
(205,754,o),
(236,754,cs),
(264,754,o),
(281,736,o),
(281,708,cs),
(281,653,o),
(234,596,o),
(100,489,c),
(97,468,l),
(282,468,l),
(307,537,l),
(288,537,l),
(273,514,o),
(261,507,o),
(235,507,cs),
(163,507,l),
(163,511,l)
);
}
);
width = 282;
}
);
unicode = 178;
},
{
color = 0;
glyphname = threesuperior;
lastChange = "2024-09-10 23:20:37 +0000";
layers = (
{
layerId = m001;
shapes = (
{
closed = 1;
nodes = (
(258,591,o),
(239,618,o),
(213,618,cs),
(204,618,o),
(190,615,o),
(182,615,cs),
(173,615,o),
(169,618,o),
(169,623,cs),
(169,659,o),
(276,622,o),
(276,710,cs),
(276,741,o),
(264,755,o),
(240,755,cs),
(212,755,o),
(192,739,o),
(192,718,cs),
(192,702,o),
(201,692,o),
(217,692,c),
(213,683,o),
(202,677,o),
(190,677,cs),
(166,677,o),
(151,692,o),
(151,714,cs),
(151,752,o),
(190,780,o),
(243,780,cs),
(293,780,o),
(325,756,o),
(325,718,cs),
(325,681,o),
(293,645,o),
(252,636,c),
(252,632,l),
(289,623,o),
(310,596,o),
(310,562,cs),
(310,508,o),
(255,464,o),
(186,464,cs),
(134,464,o),
(98,489,o),
(98,526,cs),
(98,556,o),
(123,582,o),
(152,582,cs),
(166,582,o),
(178,574,o),
(180,564,c),
(160,564,o),
(143,545,o),
(143,522,cs),
(143,501,o),
(160,490,o),
(189,490,cs),
(230,490,o),
(258,516,o),
(258,556,cs)
);
}
);
width = 287;
}
);
unicode = 179;
},
{
color = 0;
glyphname = foursuperior;
lastChange = "2024-09-10 23:20:37 +0000";
layers = (
{
layerId = m001;
shapes = (
{
closed = 1;
nodes = (
(283,780,l),
(97,602,l),
(92,582,l),
(210,582,l),
(181,468,l),
(223,468,l),
(256,582,l),
(305,582,l),
(311,606,l),
(262,606,l),
(306,780,l)
);
},
{
closed = 1;
nodes = (
(243,712,l),
(246,711,l),
(217,606,l),
(134,606,l)
);
}
);
width = 260;
}
);
unicode = 8308;
},
{
color = 0;
glyphname = fivesuperior;
lastChange = "2024-09-10 23:20:37 +0000";
layers = (
{
layerId = m001;
shapes = (
{
closed = 1;
nodes = (
(211,665,o),
(192,662,o),
(185,659,c),
(182,661,l),
(209,738,l),
(226,734,o),
(249,731,o),
(264,731,cs),
(300,731,o),
(323,748,o),
(334,780,c),
(331,781,l),
(317,776,o),
(294,773,o),
(265,773,cs),
(236,773,o),
(210,776,o),
(198,780,c),
(148,637,ls),
(147,634,o),
(144,626,o),
(144,623,cs),
(144,619,o),
(147,616,o),
(150,616,cs),
(160,616,o),
(172,640,o),
(211,640,cs),
(250,640,o),
(272,619,o),
(272,580,cs),
(272,528,o),
(239,490,o),
(195,490,cs),
(166,490,o),
(148,504,o),
(148,526,cs),
(148,548,o),
(161,564,o),
(178,564,c),
(176,574,o),
(165,582,o),
(152,582,cs),
(126,582,o),
(105,557,o),
(105,528,cs),
(105,489,o),
(140,464,o),
(192,464,cs),
(265,464,o),
(324,514,o),
(324,575,cs),
(324,627,o),
(282,665,o),
(225,665,cs)
);
}
);
width = 286;
}
);
unicode = 8309;
},
{
color = 0;
glyphname = sixsuperior;
lastChange = "2024-09-10 23:20:37 +0000";
layers = (
{
layerId = m001;
shapes = (
{
closed = 1;
nodes = (
(321,630,o),
(285,663,o),
(232,663,cs),
(213,663,o),
(196,658,o),
(179,647,c),
(176,648,l),
(194,712,o),
(237,757,o),
(280,757,cs),
(296,757,o),
(301,750,o),
(301,731,cs),
(301,717,o),
(309,709,o),
(320,709,cs),
(337,709,o),
(347,721,o),
(347,737,cs),
(347,762,o),
(318,780,o),
(280,780,cs),
(195,780,o),
(116,682,o),
(116,576,cs),
(116,507,o),
(151,464,o),
(206,464,cs),
(267,464,o),
(321,518,o),
(321,580,cs)
);
},
{
closed = 1;
nodes = (
(254,639,o),
(268,618,o),
(268,577,cs),
(268,527,o),
(240,487,o),
(204,487,cs),
(176,487,o),
(161,511,o),
(161,554,cs),
(161,605,o),
(187,639,o),
(225,639,cs)
);
}
);
width = 291;
}
);
unicode = 8310;
},
{
color = 0;
glyphname = sevensuperior;
lastChange = "2024-09-10 23:20:37 +0000";
layers = (
{
layerId = m001;
shapes = (
{
closed = 1;
nodes = (
(173,574,ls),
(119,500,o),
(111,488,o),
(111,477,cs),
(111,468,o),
(117,458,o),
(132,458,cs),
(147,458,o),
(162,469,o),
(188,516,cs),
(267,658,o),
(274,669,o),
(330,757,c),
(331,770,l),
(210,770,ls),
(189,770,o),
(180,773,o),
(180,781,cs),
(180,783,o),
(181,782,o),
(181,784,c),
(164,784,l),
(127,689,l),
(149,689,l),
(157,705,ls),
(169,728,o),
(185,729,o),
(216,729,cs),
(286,729,l)
);
}
);
width = 245;
}
);
unicode = 8311;
},
{
color = 0;
glyphname = eightsuperior;
lastChange = "2024-09-10 23:20:37 +0000";
layers = (
{
layerId = m001;
shapes = (
{
closed = 1;
nodes = (
(307,647,o),
(339,680,o),
(339,716,cs),
(339,752,o),
(301,780,o),
(252,780,cs),
(196,780,o),
(148,744,o),
(148,699,cs),
(148,673,o),
(164,648,o),
(191,630,c),
(135,614,o),
(107,584,o),
(107,541,cs),
(107,493,o),
(143,464,o),
(201,464,cs),
(269,464,o),
(317,503,o),
(317,557,cs),
(317,589,o),
(302,618,o),
(266,640,c)
);
},
{
closed = 1;
nodes = (
(258,592,o),
(271,571,o),
(271,545,cs),
(271,513,o),
(243,490,o),
(204,490,cs),
(170,490,o),
(153,509,o),
(153,543,cs),
(153,579,o),
(172,605,o),
(211,621,c),
(232,608,ls)
);
},
{
closed = 1;
nodes = (
(207,674,o),
(195,694,o),
(195,712,cs),
(195,737,o),
(219,754,o),
(249,754,cs),
(279,754,o),
(296,735,o),
(296,709,cs),
(296,683,o),
(278,664,o),
(246,648,c),
(230,658,ls)
);
}
);
width = 296;
}
);
unicode = 8312;
},
{
color = 0;
glyphname = ninesuperior;
lastChange = "2024-09-10 23:20:37 +0000";
layers = (
{
layerId = m001;
shapes = (
{
closed = 1;
nodes = (
(136,614,o),
(172,581,o),
(225,581,cs),
(244,581,o),
(261,586,o),
(278,597,c),
(281,596,l),
(263,532,o),
(220,487,o),
(177,487,cs),
(144,487,o),
(167,535,o),
(137,535,cs),
(120,535,o),
(110,523,o),
(110,507,cs),
(110,482,o),
(139,464,o),
(177,464,cs),
(262,464,o),
(341,562,o),
(341,668,cs),
(341,737,o),
(306,780,o),
(251,780,cs),
(190,780,o),
(136,726,o),
(136,664,cs)
);
},
{
closed = 1;
nodes = (
(203,605,o),
(189,626,o),
(189,667,cs),
(189,717,o),
(217,757,o),
(253,757,cs),
(281,757,o),
(296,733,o),
(296,690,cs),
(296,639,o),
(270,605,o),
(232,605,cs)
);
}
);
width = 292;
}
);
unicode = 8313;
},
{
color = 0;
glyphname = .notdef;
lastChange = "2024-09-10 23:20:37 +0000";
layers = (
{
layerId = m001;
shapes = (
{
closed = 1;
nodes = (
(626,-260,l),
(626,970,l),
(130,970,l),
(130,-260,l)
);
},
{
closed = 1;
nodes = (
(515,911,l),
(515,-199,l),
(240,-199,l),
(240,911,l)
);
}
);
width = 756;
}
);
},
{
color = 0;
glyphname = period;
kernLeft = KERN_period_2ND;
kernRight = KERN_period_1ST;
lastChange = "2024-09-10 23:20:37 +0000";
layers = (
{
layerId = m001;
shapes = (
{
closed = 1;
nodes = (
(107,-10,o),
(139,20,o),
(139,59,cs),
(139,97,o),
(109,130,o),
(68,130,cs),
(29,130,o),
(-1,98,o),
(-1,58,cs),
(-1,18,o),
(31,-10,o),
(68,-10,cs)
);
}
);
width = 262;
}
);
unicode = 46;
},
{
color = 0;
glyphname = comma;
kernLeft = KERN_period_2ND;
kernRight = KERN_period_1ST;
lastChange = "2024-09-10 23:20:37 +0000";
layers = (
{
layerId = m001;
shapes = (
{
closed = 1;
nodes = (
(71,-36,o),
(32,-93,o),
(-39,-143,c),
(-16,-175,l),
(84,-103,o),
(139,-15,o),
(139,59,cs),
(139,97,o),
(109,130,o),
(68,130,cs),
(29,130,o),
(-1,98,o),
(-1,58,cs),
(-1,24,o),
(16,0,o),
(50,0,cs),
(56,0,o),
(63,1,o),
(71,3,c)
);
}
);
width = 265;
}
);
unicode = 44;
},
{
color = 0;
glyphname = colon;
kernLeft = KERN_colon;
kernRight = KERN_colon;
lastChange = "2024-09-10 23:20:37 +0000";
layers = (
{
layerId = m001;
shapes = (
{
closed = 1;
nodes = (
(123,-10,o),
(155,20,o),
(155,59,cs),
(155,97,o),
(125,130,o),
(84,130,cs),
(45,130,o),
(15,98,o),
(15,58,cs),
(15,18,o),
(47,-10,o),
(84,-10,cs)
);
},
{
closed = 1;
nodes = (
(205,300,o),
(237,330,o),
(237,369,cs),
(237,407,o),
(207,440,o),
(166,440,cs),
(127,440,o),
(97,408,o),
(97,368,cs),
(97,328,o),
(129,300,o),
(166,300,cs)
);
}
);
width = 304;
}
);
unicode = 58;
},
{
color = 0;
glyphname = semicolon;
kernLeft = KERN_colon;
kernRight = KERN_colon;
lastChange = "2024-09-10 23:20:37 +0000";
layers = (
{
layerId = m001;
shapes = (
{
closed = 1;
nodes = (
(205,300,o),
(237,330,o),
(237,369,cs),
(237,407,o),
(207,440,o),
(166,440,cs),
(127,440,o),
(97,408,o),
(97,368,cs),
(97,328,o),
(129,300,o),
(166,300,cs)
);
},
{
closed = 1;
nodes = (
(87,-36,o),
(48,-93,o),
(-23,-143,c),
(0,-175,l),
(100,-103,o),
(155,-15,o),
(155,59,cs),
(155,97,o),
(125,130,o),
(84,130,cs),
(45,130,o),
(15,98,o),
(15,58,cs),
(15,24,o),
(32,0,o),
(66,0,cs),
(72,0,o),
(79,1,o),
(87,3,c)
);
}
);
width = 306;
}
);
unicode = 59;
},
{
color = 0;
glyphname = ellipsis;
kernLeft = KERN_period_2ND;
lastChange = "2024-09-10 23:20:37 +0000";
layers = (
{
layerId = m001;
shapes = (
{
closed = 1;
nodes = (
(107,-10,o),
(139,20,o),
(139,59,cs),
(139,97,o),
(109,130,o),
(68,130,cs),
(29,130,o),
(-1,98,o),
(-1,58,cs),
(-1,18,o),
(31,-10,o),
(68,-10,cs)
);
},
{
closed = 1;
nodes = (
(337,-10,o),
(369,20,o),
(369,59,cs),
(369,97,o),
(339,130,o),
(298,130,cs),
(259,130,o),
(229,98,o),
(229,58,cs),
(229,18,o),
(261,-10,o),
(298,-10,cs)
);
},
{
closed = 1;
nodes = (
(567,-10,o),
(599,20,o),
(599,59,cs),
(599,97,o),
(569,130,o),
(528,130,cs),
(489,130,o),
(459,98,o),
(459,58,cs),
(459,18,o),
(491,-10,o),
(528,-10,cs)
);
}
);
width = 722;
}
);
unicode = 8230;
},
{
color = 0;
glyphname = exclam;
lastChange = "2024-09-10 23:20:37 +0000";
layers = (
{
layerId = m001;
shapes = (
{
closed = 1;
nodes = (
(175,280,o),
(206,401,o),
(243,494,cs),
(291,614,o),
(307,655,o),
(307,705,cs),
(307,758,o),
(289,780,o),
(252,780,cs),
(206,780,o),
(186,747,o),
(177,662,cs),
(129,207,l),
(164,207,l)
);
},
{
closed = 1;
nodes = (
(154,-10,o),
(183,17,o),
(183,52,cs),
(183,86,o),
(156,116,o),
(120,116,cs),
(84,116,o),
(57,87,o),
(57,51,cs),
(57,15,o),
(86,-10,o),
(119,-10,cs)
);
}
);
width = 317;
}
);
unicode = 33;
},
{
color = 0;
glyphname = exclamdown;
lastChange = "2024-09-10 23:20:37 +0000";
layers = (
{
layerId = m001;
shapes = (
{
closed = 1;
nodes = (
(181,490,o),
(150,369,o),
(113,276,cs),
(65,156,o),
(49,115,o),
(49,65,cs),
(49,12,o),
(67,-10,o),
(104,-10,cs),
(150,-10,o),
(170,23,o),
(179,108,cs),
(226,563,l),
(192,563,l)
);
},
{
closed = 1;
nodes = (
(202,780,o),
(173,753,o),
(173,718,cs),
(173,684,o),
(200,654,o),
(236,654,cs),
(272,654,o),
(299,683,o),
(299,719,cs),
(299,755,o),
(270,780,o),
(237,780,c)
);
}
);
width = 318;
}
);
unicode = 161;
},
{
color = 0;
glyphname = question;
lastChange = "2024-09-10 23:20:37 +0000";
layers = (
{
layerId = m001;
shapes = (
{
closed = 1;
nodes = (
(231,-10,o),
(259,18,o),
(259,52,cs),
(259,87,o),
(231,116,o),
(196,116,cs),
(161,116,o),
(133,88,o),
(133,52,cs),
(133,17,o),
(160,-10,o),
(195,-10,cs)
);
},
{
closed = 1;
nodes = (
(142,226,o),
(174,191,o),
(232,191,cs),
(280,191,o),
(317,216,o),
(343,269,c),
(316,285,l),
(297,250,o),
(274,234,o),
(242,234,cs),
(212,234,o),
(196,248,o),
(196,274,cs),
(196,384,o),
(486,419,o),
(486,621,cs),
(486,717,o),
(420,781,o),
(319,781,cs),
(217,781,o),
(134,715,o),
(134,634,cs),
(134,577,o),
(176,533,o),
(230,533,cs),
(264,533,o),
(285,551,o),
(285,582,cs),
(285,640,o),
(215,606,o),
(215,660,cs),
(215,702,o),
(258,733,o),
(314,733,cs),
(377,733,o),
(422,693,o),
(422,638,cs),
(422,501,o),
(142,480,o),
(142,290,cs)
);
}
);
width = 468;
}
);
unicode = 63;
},
{
color = 0;
glyphname = questiondown;
lastChange = "2024-09-10 23:20:37 +0000";
layers = (
{
layerId = m001;
shapes = (
{
closed = 1;
nodes = (
(276,781,o),
(248,753,o),
(248,719,cs),
(248,684,o),
(276,655,o),
(311,655,cs),
(346,655,o),
(374,683,o),
(374,719,cs),
(374,754,o),
(347,781,o),
(312,781,cs)
);
},
{
closed = 1;
nodes = (
(365,545,o),
(333,580,o),
(275,580,cs),
(227,580,o),
(190,555,o),
(164,502,c),
(191,486,l),
(210,521,o),
(233,537,o),
(265,537,cs),
(295,537,o),
(311,523,o),
(311,497,cs),
(311,387,o),
(21,352,o),
(21,150,cs),
(21,54,o),
(87,-10,o),
(188,-10,cs),
(290,-10,o),
(373,56,o),
(373,137,cs),
(373,194,o),
(331,238,o),
(277,238,cs),
(243,238,o),
(222,220,o),
(222,189,cs),
(222,131,o),
(292,165,o),
(292,111,cs),
(292,69,o),
(249,38,o),
(193,38,cs),
(130,38,o),
(85,78,o),
(85,133,cs),
(85,270,o),
(365,291,o),
(365,481,cs)
);
}
);
width = 470;
}
);
unicode = 191;
},
{
color = 0;
glyphname = periodcentered;
lastChange = "2024-09-10 23:20:37 +0000";
layers = (
{
layerId = m001;
shapes = (
{
closed = 1;
nodes = (
(61,238,o),
(90,209,o),
(126,209,cs),
(163,209,o),
(192,238,o),
(192,274,cs),
(192,311,o),
(163,340,o),
(126,340,cs),
(90,340,o),
(61,311,o),
(61,274,cs)
);
}
);
width = 275;
}
);
unicode = 183;
},
{
color = 0;
glyphname = bullet;
lastChange = "2024-09-10 23:20:37 +0000";
layers = (
{
layerId = m001;
shapes = (
{
closed = 1;
nodes = (
(337,216,o),
(407,284,o),
(407,369,cs),
(407,454,o),
(337,521,o),
(255,521,cs),
(170,521,o),
(99,454,o),
(99,369,cs),
(99,284,o),
(170,216,o),
(250,216,cs)
);
}
);
width = 485;
}
);
unicode = 8226;
},
{
color = 0;
glyphname = asterisk;
lastChange = "2024-09-10 23:20:37 +0000";
layers = (
{
layerId = m001;
shapes = (
{
closed = 1;
nodes = (
(315,486,o),
(314,459,o),
(313,421,cs),
(312,382,o),
(298,360,o),
(268,360,cs),
(236,360,o),
(222,384,o),
(222,408,cs),
(222,425,o),
(229,433,o),
(251,455,cs),
(270,474,o),
(280,488,o),
(303,546,c),
(194,527,o),
(188,491,o),
(157,491,cs),
(132,491,o),
(112,514,o),
(112,538,cs),
(112,561,o),
(130,583,o),
(161,583,cs),
(184,583,o),
(207,570,o),
(242,570,cs),
(256,570,o),
(276,572,o),
(298,576,c),
(222,663,o),
(172,644,o),
(172,693,cs),
(172,727,o),
(196,740,o),
(219,740,cs),
(270,740,o),
(256,674,o),
(322,595,c),
(338,641,o),
(339,675,o),
(339,713,cs),
(339,749,o),
(358,770,o),
(384,770,cs),
(412,770,o),
(431,746,o),
(431,725,cs),
(431,690,o),
(379,661,o),
(350,584,c),
(445,602,o),
(466,640,o),
(496,640,cs),
(519,640,o),
(540,617,o),
(540,593,cs),
(540,574,o),
(526,549,o),
(494,549,cs),
(473,549,o),
(455,560,o),
(419,560,cs),
(403,560,o),
(380,558,o),
(356,554,c),
(417,481,o),
(484,487,o),
(484,435,cs),
(484,405,o),
(462,390,o),
(438,390,cs),
(402,390,o),
(392,424,o),
(387,446,cs),
(382,467,o),
(358,509,o),
(332,536,c)
);
}
);
width = 532;
}
);
unicode = 42;
},
{
color = 0;
glyphname = numbersign;
lastChange = "2024-09-10 23:20:37 +0000";
layers = (
{
layerId = m001;
shapes = (
{
closed = 1;
nodes = (
(483,305,l),
(506,475,l),
(641,475,l),
(649,525,l),
(515,525,l),
(549,770,l),
(489,770,l),
(455,525,l),
(304,525,l),
(339,770,l),
(279,770,l),
(244,525,l),
(100,525,l),
(92,475,l),
(235,475,l),
(211,305,l),
(69,305,l),
(61,255,l),
(201,255,l),
(163,0,l),
(223,0,l),
(261,255,l),
(412,255,l),
(377,0,l),
(436,0,l),
(473,255,l),
(612,255,l),
(620,305,l)
);
},
{
closed = 1;
nodes = (
(422,305,l),
(271,305,l),
(295,475,l),
(445,475,l)
);
}
);
width = 670;
}
);
unicode = 35;
},
{
color = 0;
glyphname = slash;
lastChange = "2024-09-10 23:20:37 +0000";
layers = (
{
layerId = m001;
shapes = (
{
closed = 1;
nodes = (
(395,770,l),
(-29,0,l),
(40,0,l),
(457,770,l)
);
}
);
width = 390;
}
);
unicode = 47;
},
{
color = 0;
glyphname = backslash;
lastChange = "2024-09-10 23:20:37 +0000";
layers = (
{
layerId = m001;
shapes = (
{
closed = 1;
nodes = (
(351,0,l),
(205,770,l),
(150,770,l),
(287,0,l)
);
}
);
width = 463;
}
);
unicode = 92;
},
{
color = 0;
glyphname = hyphen;
kernLeft = KERN_hyphen;
kernRight = KERN_hyphen;
lastChange = "2024-09-10 23:20:37 +0000";
layers = (
{
layerId = m001;
shapes = (
{
closed = 1;
nodes = (
(392,331,l),
(83,331,l),
(60,248,l),
(369,248,l)
);
}
);
width = 465;
}
);
unicode = 45;
},
{
color = 0;
glyphname = softhyphen;
kernLeft = KERN_hyphen;
kernRight = KERN_hyphen;
lastChange = "2024-09-10 23:20:37 +0000";
layers = (
{
layerId = m001;
shapes = (
{
closed = 1;
nodes = (
(390,331,l),
(81,331,l),
(81,248,l),
(390,248,l)
);
}
);
width = 488;
}
);
unicode = 173;
},
{
color = 0;
glyphname = endash;
kernLeft = KERN_hyphen;
kernRight = KERN_hyphen;
lastChange = "2024-09-10 23:20:37 +0000";
layers = (
{
layerId = m001;
shapes = (
{
closed = 1;
nodes = (
(653,331,l),
(83,331,l),
(60,248,l),
(630,248,l)
);
}
);
width = 726;
}
);
unicode = 8211;
},
{
color = 0;
glyphname = emdash;
kernLeft = KERN_hyphen;
kernRight = KERN_hyphen;
lastChange = "2024-09-10 23:20:37 +0000";
layers = (
{
layerId = m001;
shapes = (
{
closed = 1;
nodes = (
(1041,331,l),
(83,331,l),
(60,248,l),
(1018,248,l)
);
}
);
width = 1114;
}
);
unicode = 8212;
},
{
color = 0;
glyphname = underscore;
lastChange = "2024-09-10 23:20:37 +0000";
layers = (
{
layerId = m001;
shapes = (
{
closed = 1;
nodes = (
(548,-75,l),
(-22,-75,l),
(-45,-143,l),
(525,-143,l)
);
}
);
width = 731;
}
);
unicode = 95;
},
{
color = 0;
glyphname = parenleft;
lastChange = "2024-09-10 23:20:37 +0000";
layers = (
{
layerId = m001;
shapes = (
{
closed = 1;
nodes = (
(170,633,o),
(32,400,o),
(32,167,cs),
(32,39,o),
(75,-83,o),
(160,-194,c),
(198,-166,l),
(146,-85,o),
(122,0,o),
(122,101,cs),
(122,385,o),
(219,576,o),
(443,803,c),
(419,831,l)
);
}
);
width = 337;
}
);
unicode = 40;
},
{
color = 0;
glyphname = parenright;
lastChange = "2024-09-10 23:20:37 +0000";
layers = (
{
layerId = m001;
shapes = (
{
closed = 1;
nodes = (
(201,701,o),
(224,623,o),
(224,537,cs),
(224,268,o),
(72,-7,o),
(-115,-166,c),
(-92,-194,l),
(163,4,o),
(310,245,o),
(310,482,cs),
(310,605,o),
(271,723,o),
(192,831,c),
(153,803,l)
);
}
);
width = 335;
}
);
unicode = 41;
},
{
color = 0;
glyphname = braceleft;
lastChange = "2024-09-10 23:20:37 +0000";
layers = (
{
layerId = m001;
shapes = (
{
closed = 1;
nodes = (
(186,224,o),
(190,247,o),
(190,266,cs),
(190,306,o),
(172,330,o),
(120,340,c),
(121,345,l),
(211,363,o),
(239,419,o),
(261,501,cs),
(309,680,ls),
(328,751,o),
(360,791,o),
(426,807,c),
(432,830,l),
(289,830,o),
(249,786,o),
(214,659,cs),
(166,484,ls),
(145,408,o),
(123,370,o),
(43,355,c),
(36,330,l),
(82,326,o),
(98,293,o),
(98,254,cs),
(98,237,o),
(95,218,o),
(90,200,cs),
(37,4,ls),
(29,-25,o),
(25,-48,o),
(25,-68,cs),
(25,-131,o),
(68,-150,o),
(171,-150,c),
(177,-128,l),
(133,-115,o),
(116,-93,o),
(116,-58,cs),
(116,-42,o),
(120,-22,o),
(126,0,cs),
(179,198,ls)
);
}
);
width = 336;
}
);
unicode = 123;
},
{
color = 0;
glyphname = braceright;
lastChange = "2024-09-10 23:20:37 +0000";
layers = (
{
layerId = m001;
shapes = (
{
closed = 1;
nodes = (
(22,-72,o),
(-8,-109,o),
(-79,-128,c),
(-85,-150,l),
(48,-150,o),
(99,-117,o),
(132,4,cs),
(185,200,ls),
(201,260,o),
(239,324,o),
(309,330,c),
(316,355,l),
(268,365,o),
(250,386,o),
(250,422,cs),
(250,439,o),
(254,459,o),
(261,484,cs),
(309,659,ls),
(318,694,o),
(324,722,o),
(324,746,cs),
(324,807,o),
(286,830,o),
(183,830,c),
(177,807,l),
(216,796,o),
(233,773,o),
(233,737,cs),
(233,720,o),
(230,702,o),
(224,680,cs),
(176,501,ls),
(168,472,o),
(163,446,o),
(163,424,cs),
(163,384,o),
(180,356,o),
(232,345,c),
(231,340,l),
(146,326,o),
(115,278,o),
(94,198,cs),
(41,0,ls)
);
}
);
width = 336;
}
);
unicode = 125;
},
{
color = 0;
glyphname = bracketleft;
lastChange = "2024-09-10 23:20:37 +0000";
layers = (
{
layerId = m001;
shapes = (
{
closed = 1;
nodes = (
(483,820,l),
(242,820,l),
(-20,-150,l),
(220,-150,l),
(233,-103,l),
(82,-103,l),
(319,773,l),
(470,773,l)
);
}
);
width = 369;
}
);
unicode = 91;
},
{
color = 0;
glyphname = bracketright;
lastChange = "2024-09-10 23:20:37 +0000";
layers = (
{
layerId = m001;
shapes = (
{
closed = 1;
nodes = (
(-102,-150,l),
(138,-150,l),
(401,820,l),
(160,820,l),
(147,773,l),
(298,773,l),
(61,-103,l),
(-89,-103,l)
);
}
);
width = 369;
}
);
unicode = 93;
},
{
color = 0;
glyphname = quotesinglbase;
kernLeft = KERN_period_2ND;
kernRight = KERN_period_1ST;
lastChange = "2024-09-10 23:20:37 +0000";
layers = (
{
layerId = m001;
shapes = (
{
closed = 1;
nodes = (
(81,-90,o),
(131,-34,o),
(131,53,cs),
(131,87,o),
(113,106,o),
(79,106,cs),
(34,106,o),
(-8,73,o),
(-8,29,cs),
(-8,5,o),
(6,-10,o),
(32,-10,cs),
(43,-10,o),
(55,-7,o),
(64,-2,c),
(50,-53,o),
(16,-92,o),
(-58,-138,c),
(-42,-165,l)
);
}
);
width = 260;
}
);
unicode = 8218;
},
{
color = 0;
glyphname = quotedblbase;
kernLeft = KERN_period_2ND;
kernRight = KERN_period_1ST;
lastChange = "2024-09-10 23:20:37 +0000";
layers = (
{
layerId = m001;
shapes = (
{
closed = 1;
nodes = (
(81,-90,o),
(131,-34,o),
(131,53,cs),
(131,87,o),
(113,106,o),
(79,106,cs),
(34,106,o),
(-8,73,o),
(-8,29,cs),
(-8,5,o),
(6,-10,o),
(32,-10,cs),
(43,-10,o),
(55,-7,o),
(64,-2,c),
(50,-53,o),
(16,-92,o),
(-58,-138,c),
(-42,-165,l)
);
},
{
closed = 1;
nodes = (
(273,-90,o),
(323,-34,o),
(323,53,cs),
(323,87,o),
(305,106,o),
(271,106,cs),
(226,106,o),
(184,73,o),
(184,29,cs),
(184,5,o),
(198,-10,o),
(224,-10,cs),
(235,-10,o),
(247,-7,o),
(256,-2,c),
(242,-53,o),
(208,-92,o),
(134,-138,c),
(150,-165,l)
);
}
);
width = 452;
}
);
unicode = 8222;
},
{
color = 0;
glyphname = quotedblleft;
kernLeft = KERN_quoteleft;
kernRight = KERN_quoteleft;
lastChange = "2024-09-10 23:20:37 +0000";
layers = (
{
layerId = m001;
shapes = (
{
closed = 1;
nodes = (
(378,754,o),
(328,698,o),
(328,612,cs),
(328,577,o),
(345,559,o),
(380,559,cs),
(425,559,o),
(467,592,o),
(467,636,cs),
(467,659,o),
(452,675,o),
(427,675,cs),
(416,675,o),
(404,672,o),
(395,667,c),
(409,718,o),
(443,757,o),
(517,803,c),
(501,830,l)
);
},
{
closed = 1;
nodes = (
(186,754,o),
(136,698,o),
(136,612,cs),
(136,577,o),
(153,559,o),
(188,559,cs),
(233,559,o),
(275,592,o),
(275,636,cs),
(275,659,o),
(260,675,o),
(235,675,cs),
(224,675,o),
(212,672,o),
(203,667,c),
(217,718,o),
(251,757,o),
(325,803,c),
(309,830,l)
);
}
);
width = 443;
}
);
unicode = 8220;
},
{
color = 0;
glyphname = quotedblright;
kernLeft = KERN_quoteright;
kernRight = KERN_quoteright;
lastChange = "2024-09-10 23:20:37 +0000";
layers = (
{
layerId = m001;
shapes = (
{
closed = 1;
nodes = (
(268,634,o),
(318,690,o),
(318,777,cs),
(318,811,o),
(300,830,o),
(266,830,cs),
(221,830,o),
(179,797,o),
(179,753,cs),
(179,729,o),
(193,714,o),
(219,714,cs),
(230,714,o),
(242,717,o),
(251,722,c),
(237,671,o),
(203,632,o),
(129,586,c),
(145,559,l)
);
},
{
closed = 1;
nodes = (
(460,634,o),
(510,690,o),
(510,777,cs),
(510,811,o),
(492,830,o),
(458,830,cs),
(413,830,o),
(371,797,o),
(371,753,cs),
(371,729,o),
(385,714,o),
(411,714,cs),
(422,714,o),
(434,717,o),
(443,722,c),
(429,671,o),
(395,632,o),
(321,586,c),
(337,559,l)
);
}
);
width = 441;
}
);
unicode = 8221;
},
{
color = 0;
glyphname = quoteleft;
kernLeft = KERN_quoteleft;
kernRight = KERN_quoteleft;
lastChange = "2024-09-10 23:20:37 +0000";
layers = (
{
layerId = m001;
shapes = (
{
closed = 1;
nodes = (
(186,754,o),
(136,698,o),
(136,612,cs),
(136,577,o),
(153,559,o),
(188,559,cs),
(233,559,o),
(275,592,o),
(275,636,cs),
(275,659,o),
(260,675,o),
(235,675,cs),
(224,675,o),
(212,672,o),
(203,667,c),
(217,718,o),
(251,757,o),
(325,803,c),
(309,830,l)
);
}
);
width = 251;
}
);
unicode = 8216;
},
{
color = 0;
glyphname = quoteright;
kernLeft = KERN_quoteright;
kernRight = KERN_quoteright;
lastChange = "2024-09-10 23:20:37 +0000";
layers = (
{
layerId = m001;
shapes = (
{
closed = 1;
nodes = (
(268,634,o),
(318,690,o),
(318,777,cs),
(318,811,o),
(300,830,o),
(266,830,cs),
(221,830,o),
(179,797,o),
(179,753,cs),
(179,729,o),
(193,714,o),
(219,714,cs),
(230,714,o),
(242,717,o),
(251,722,c),
(237,671,o),
(203,632,o),
(129,586,c),
(145,559,l)
);
}
);
width = 249;
}
);
unicode = 8217;
},
{
color = 0;
glyphname = guillemetleft;
kernLeft = KERN_guilsinglleft;
kernRight = KERN_guilsinglleft;
lastChange = "2024-09-10 23:20:37 +0000";
layers = (
{
layerId = m001;
shapes = (
{
closed = 1;
nodes = (
(181,124,l),
(120,262,l),
(256,400,l),
(242,421,l),
(29,262,l),
(157,104,l)
);
},
{
closed = 1;
nodes = (
(352,124,l),
(291,262,l),
(427,400,l),
(413,421,l),
(200,262,l),
(328,104,l)
);
}
);
width = 478;
}
);
unicode = 171;
},
{
color = 0;
glyphname = guillemetright;
kernLeft = KERN_guilsinglright;
kernRight = KERN_guilsinglright;
lastChange = "2024-09-10 23:20:37 +0000";
layers = (
{
layerId = m001;
shapes = (
{
closed = 1;
nodes = (
(294,421,l),
(268,400,l),
(330,262,l),
(195,124,l),
(209,104,l),
(421,262,l)
);
},
{
closed = 1;
nodes = (
(123,421,l),
(97,400,l),
(159,262,l),
(24,124,l),
(38,104,l),
(250,262,l)
);
}
);
width = 478;
}
);
unicode = 187;
},
{
color = 0;
glyphname = guilsinglleft;
kernLeft = KERN_guilsinglleft;
kernRight = KERN_guilsinglleft;
lastChange = "2024-09-10 23:20:37 +0000";
layers = (
{
layerId = m001;
shapes = (
{
closed = 1;
nodes = (
(181,124,l),
(120,262,l),
(256,400,l),
(242,421,l),
(29,262,l),
(157,104,l)
);
}
);
width = 307;
}
);
unicode = 8249;
},
{
color = 0;
glyphname = guilsinglright;
kernLeft = KERN_guilsinglright;
kernRight = KERN_guilsinglright;
lastChange = "2024-09-10 23:20:37 +0000";
layers = (
{
layerId = m001;
shapes = (
{
closed = 1;
nodes = (
(123,421,l),
(97,400,l),
(159,262,l),
(24,124,l),
(38,104,l),
(250,262,l)
);
}
);
width = 307;
}
);
unicode = 8250;
},
{
color = 0;
glyphname = quotedbl;
kernLeft = KERN_quotesingle;
kernRight = KERN_quotesingle;
lastChange = "2024-09-10 23:20:37 +0000";
layers = (
{
layerId = m001;
shapes = (
{
closed = 1;
nodes = (
(221,661,o),
(275,779,o),
(275,795,cs),
(275,816,o),
(261,830,o),
(239,830,cs),
(159,830,o),
(175,724,o),
(154,564,c),
(183,564,l)
);
},
{
closed = 1;
nodes = (
(373,661,o),
(427,779,o),
(427,795,cs),
(427,816,o),
(413,830,o),
(391,830,cs),
(311,830,o),
(327,724,o),
(306,564,c),
(335,564,l)
);
}
);
width = 359;
}
);
unicode = 34;
},
{
color = 0;
glyphname = quotesingle;
kernLeft = KERN_quotesingle;
kernRight = KERN_quotesingle;
lastChange = "2024-09-10 23:20:37 +0000";
layers = (
{
layerId = m001;
shapes = (
{
closed = 1;
nodes = (
(221,661,o),
(275,779,o),
(275,795,cs),
(275,816,o),
(261,830,o),
(239,830,cs),
(159,830,o),
(175,724,o),
(154,564,c),
(183,564,l)
);
}
);
width = 207;
}
);
unicode = 39;
},
{
color = 0;
glyphname = florin;
lastChange = "2024-09-10 23:20:37 +0000";
layers = (
{
layerId = m001;
shapes = (
{
closed = 1;
nodes = (
(52,-96,o),
(37,-81,o),
(37,-56,cs),
(37,-30,o),
(50,-10,o),
(69,-6,c),
(60,13,o),
(48,21,o),
(27,21,cs),
(-15,21,o),
(-45,-11,o),
(-45,-55,cs),
(-45,-110,o),
(-3,-145,o),
(63,-145,cs),
(165,-145,o),
(218,-63,o),
(253,153,cs),
(308,490,l),
(396,490,l),
(404,531,l),
(314,531,l),
(334,703,o),
(374,790,o),
(433,790,cs),
(460,790,o),
(479,772,o),
(479,747,cs),
(479,720,o),
(459,695,o),
(435,691,c),
(444,675,o),
(456,669,o),
(476,669,cs),
(520,669,o),
(553,700,o),
(553,742,cs),
(553,793,o),
(503,830,o),
(434,830,cs),
(326,830,o),
(267,742,o),
(232,531,c),
(147,531,l),
(139,490,l),
(225,490,l),
(138,-13,ls),
(129,-66,o),
(110,-96,o),
(77,-96,cs)
);
}
);
width = 460;
}
);
unicode = 402;
},
{
color = 0;
glyphname = at;
lastChange = "2024-09-10 23:20:37 +0000";
layers = (
{
layerId = m001;
shapes = (
{
closed = 1;
nodes = (
(803,530,l),
(736,293,ls),
(721,240,o),
(710,187,o),
(710,167,cs),
(710,142,o),
(727,127,o),
(754,127,cs),
(842,127,o),
(935,277,o),
(935,420,cs),
(935,601,o),
(787,735,o),
(585,735,cs),
(344,735,o),
(157,545,o),
(157,299,cs),
(157,70,o),
(321,-86,o),
(564,-86,cs),
(676,-86,o),
(781,-53,o),
(878,14,c),
(899,-17,l),
(782,-98,o),
(676,-134,o),
(551,-134,cs),
(267,-134,o),
(66,46,o),
(66,300,cs),
(66,570,o),
(291,780,o),
(579,780,cs),
(818,780,o),
(980,635,o),
(980,422,cs),
(980,239,o),
(861,77,o),
(726,77,cs),
(661,77,o),
(625,115,o),
(619,191,c),
(616,192,l),
(575,123,o),
(509,77,o),
(448,77,cs),
(362,77,o),
(298,149,o),
(298,248,cs),
(298,394,o),
(431,540,o),
(564,540,cs),
(626,540,o),
(662,509,o),
(681,442,c),
(684,441,l),
(707,530,l)
);
},
{
closed = 1;
nodes = (
(484,498,o),
(396,362,o),
(396,227,cs),
(396,158,o),
(419,122,o),
(463,122,cs),
(549,122,o),
(648,267,o),
(648,394,cs),
(648,459,o),
(620,498,o),
(572,498,cs)
);
}
);
width = 1030;
}
);
unicode = 64;
},
{
color = 0;
glyphname = ampersand;
lastChange = "2024-09-10 23:20:37 +0000";
layers = (
{
layerId = m001;
shapes = (
{
closed = 1;
nodes = (
(284,780,o),
(211,712,o),
(211,614,cs),
(211,582,o),
(218,542,o),
(228,520,c),
(124,494,o),
(59,405,o),
(59,289,cs),
(59,119,o),
(210,-10,o),
(409,-10,cs),
(613,-10,o),
(774,126,o),
(774,297,cs),
(774,364,o),
(750,425,o),
(715,446,c),
(717,450,l),
(830,453,o),
(910,521,o),
(910,614,cs),
(910,697,o),
(849,758,o),
(766,758,cs),
(709,758,o),
(673,730,o),
(673,686,cs),
(673,654,o),
(692,635,o),
(724,635,cs),
(790,635,o),
(749,704,o),
(795,704,cs),
(822,704,o),
(847,673,o),
(847,639,cs),
(847,583,o),
(795,547,o),
(715,547,cs),
(610,547,ls),
(496,547,o),
(416,480,o),
(416,384,cs),
(416,310,o),
(463,256,o),
(527,256,cs),
(584,256,o),
(630,295,o),
(630,342,cs),
(630,376,o),
(607,404,o),
(579,404,cs),
(556,404,o),
(540,387,o),
(540,364,cs),
(540,355,o),
(542,342,o),
(542,333,cs),
(542,317,o),
(534,309,o),
(519,309,cs),
(489,309,o),
(465,340,o),
(465,380,cs),
(465,434,o),
(509,470,o),
(574,470,cs),
(653,470,o),
(714,405,o),
(714,321,cs),
(714,199,o),
(587,95,o),
(437,95,cs),
(275,95,o),
(146,204,o),
(146,342,cs),
(146,411,o),
(181,463,o),
(227,463,cs),
(276,463,o),
(283,406,o),
(338,406,cs),
(368,406,o),
(386,423,o),
(386,452,cs),
(386,483,o),
(370,496,o),
(305,517,cs),
(283,524,o),
(271,546,o),
(271,579,cs),
(271,643,o),
(315,688,o),
(376,688,cs),
(426,688,o),
(469,657,o),
(491,607,c),
(511,611,o),
(524,635,o),
(524,667,cs),
(524,734,o),
(469,780,o),
(388,780,cs)
);
}
);
width = 898;
}
);
unicode = 38;
},
{
color = 0;
glyphname = paragraph;
lastChange = "2024-09-10 23:20:37 +0000";
layers = (
{
layerId = m001;
shapes = (
{
closed = 1;
nodes = (
(517,722,o),
(531,732,o),
(592,732,c),
(602,770,l),
(436,770,ls),
(243,770,o),
(102,672,o),
(102,501,cs),
(102,383,o),
(192,332,o),
(283,332,cs),
(297,332,o),
(312,333,o),
(326,336,c),
(210,-113,ls),
(196,-165,o),
(170,-200,o),
(139,-200,cs),
(87,-200,o),
(113,-130,o),
(57,-130,cs),
(26,-130,o),
(8,-151,o),
(8,-184,cs),
(8,-227,o),
(49,-260,o),
(104,-260,cs),
(218,-260,o),
(286,-198,o),
(354,73,cs),
(480,573,ls)
);
}
);
width = 548;
}
);
unicode = 182;
},
{
color = 0;
glyphname = section;
lastChange = "2024-09-10 23:20:37 +0000";
layers = (
{
layerId = m001;
shapes = (
{
closed = 1;
nodes = (
(121,5,o),
(103,28,o),
(64,28,cs),
(24,28,o),
(-1,1,o),
(-1,-42,cs),
(-1,-129,o),
(84,-173,o),
(181,-173,cs),
(317,-173,o),
(502,-93,o),
(502,132,cs),
(502,307,o),
(381,539,o),
(381,693,cs),
(381,761,o),
(412,790,o),
(445,790,cs),
(491,790,o),
(505,764,o),
(505,732,cs),
(505,719,o),
(502,704,o),
(502,693,cs),
(502,640,o),
(531,628,o),
(557,628,cs),
(590,628,o),
(613,656,o),
(613,698,cs),
(613,781,o),
(530,830,o),
(442,830,cs),
(302,830,o),
(133,750,o),
(133,529,cs),
(133,383,o),
(237,138,o),
(237,2,cs),
(237,-82,o),
(215,-127,o),
(169,-127,cs),
(140,-127,o),
(121,-104,o),
(121,-47,cs)
);
},
{
closed = 1;
nodes = (
(401,-20,o),
(360,-98,o),
(263,-122,c),
(316,-84,o),
(330,-38,o),
(330,36,cs),
(330,195,o),
(233,453,o),
(233,589,cs),
(233,677,o),
(266,734,o),
(344,771,c),
(301,725,o),
(299,689,o),
(299,621,cs),
(299,482,o),
(401,232,o),
(401,89,cs)
);
}
);
width = 621;
}
);
unicode = 167;
},
{
color = 0;
glyphname = copyright;
lastChange = "2024-09-10 23:20:37 +0000";
layers = (
{
layerId = m001;
shapes = (
{
closed = 1;
nodes = (
(865,605,o),
(691,780,o),
(475,780,cs),
(262,780,o),
(91,602,o),
(91,385,cs),
(91,168,o),
(263,-10,o),
(476,-10,cs),
(691,-10,o),
(865,166,o),
(865,386,cs)
);
},
{
closed = 1;
nodes = (
(817,194,o),
(664,38,o),
(476,38,cs),
(288,38,o),
(139,194,o),
(139,385,cs),
(139,575,o),
(287,732,o),
(475,732,cs),
(664,732,o),
(817,579,o),
(817,386,cs)
);
},
{
closed = 1;
nodes = (
(599,235,o),
(556,198,o),
(491,198,cs),
(398,198,o),
(347,262,o),
(347,379,cs),
(347,498,o),
(399,569,o),
(489,569,cs),
(554,569,o),
(604,532,o),
(620,472,c),
(646,472,l),
(641,603,l),
(620,603,l),
(610,568,l),
(564,597,o),
(528,609,o),
(484,609,cs),
(351,609,o),
(260,514,o),
(260,375,cs),
(260,243,o),
(345,157,o),
(478,157,cs),
(577,157,o),
(632,217,o),
(651,305,c),
(618,305,l)
);
}
);
width = 918;
}
);
unicode = 169;
},
{
color = 0;
glyphname = registered;
lastChange = "2024-09-10 23:20:37 +0000";
layers = (
{
layerId = m001;
shapes = (
{
closed = 1;
nodes = (
(865,605,o),
(691,780,o),
(475,780,cs),
(262,780,o),
(91,602,o),
(91,385,cs),
(91,168,o),
(263,-10,o),
(476,-10,cs),
(691,-10,o),
(865,166,o),
(865,386,cs)
);
},
{
closed = 1;
nodes = (
(817,194,o),
(664,38,o),
(476,38,cs),
(288,38,o),
(139,194,o),
(139,385,cs),
(139,575,o),
(287,732,o),
(475,732,cs),
(664,732,o),
(817,579,o),
(817,386,cs)
);
},
{
closed = 1;
nodes = (
(626,574,o),
(565,615,o),
(458,615,cs),
(283,615,l),
(283,590,l),
(326,588,o),
(333,578,o),
(333,527,cs),
(333,268,ls),
(333,217,o),
(325,207,o),
(277,205,c),
(277,183,l),
(475,183,l),
(475,205,l),
(411,205,o),
(403,217,o),
(403,271,cs),
(403,383,l),
(435,383,o),
(445,379,o),
(463,354,cs),
(601,183,l),
(709,183,l),
(709,205,l),
(679,210,o),
(661,220,o),
(642,243,cs),
(518,393,l),
(593,405,o),
(626,447,o),
(626,507,cs)
);
},
{
closed = 1;
nodes = (
(403,581,o),
(405,585,o),
(412,585,cs),
(458,585,ls),
(517,585,o),
(543,563,o),
(543,504,cs),
(543,442,o),
(510,416,o),
(443,416,cs),
(403,416,l),
(403,576,ls)
);
}
);
width = 918;
}
);
unicode = 174;
},
{
color = 0;
glyphname = trademark;
lastChange = "2024-09-10 23:20:37 +0000";
layers = (
{
layerId = m001;
shapes = (
{
closed = 1;
nodes = (
(178,770,l),
(178,694,l),
(198,694,l),
(200,745,o),
(227,748,o),
(262,748,cs),
(296,748,o),
(302,745,o),
(302,735,cs),
(302,531,ls),
(302,497,o),
(295,484,o),
(250,482,c),
(250,462,l),
(411,462,l),
(411,482,l),
(366,484,o),
(359,496,o),
(359,531,cs),
(359,735,ls),
(359,745,o),
(365,748,o),
(404,748,cs),
(445,748,o),
(459,736,o),
(463,694,c),
(484,694,l),
(480,770,l)
);
},
{
closed = 1;
nodes = (
(810,770,l),
(910,770,l),
(910,750,l),
(875,749,o),
(870,738,o),
(870,689,cs),
(870,543,ls),
(870,490,o),
(876,483,o),
(914,482,c),
(914,462,l),
(779,462,l),
(779,482,l),
(818,483,o),
(823,490,o),
(823,540,cs),
(823,720,l),
(819,720,l),
(702,458,l),
(694,458,l),
(581,720,l),
(577,720,l),
(577,543,ls),
(577,490,o),
(583,483,o),
(621,482,c),
(621,462,l),
(504,462,l),
(504,482,l),
(542,483,o),
(548,490,o),
(548,540,cs),
(548,692,ls),
(548,737,o),
(543,748,o),
(508,750,c),
(508,770,l),
(614,770,l),
(708,544,l),
(712,544,l)
);
}
);
width = 939;
}
);
unicode = 8482;
},
{
color = 0;
glyphname = degree;
lastChange = "2024-09-10 23:20:37 +0000";
layers = (
{
layerId = m001;
shapes = (
{
closed = 1;
nodes = (
(139,594,o),
(193,540,o),
(259,540,cs),
(325,540,o),
(379,594,o),
(379,660,cs),
(379,726,o),
(325,780,o),
(259,780,cs),
(193,780,o),
(139,726,o),
(139,660,cs)
);
},
{
closed = 1;
nodes = (
(169,709,o),
(210,749,o),
(259,749,cs),
(308,749,o),
(348,709,o),
(348,660,cs),
(348,611,o),
(308,570,o),
(259,570,cs),
(210,570,o),
(169,611,o),
(169,660,cs)
);
}
);
width = 342;
}
);
unicode = 176;
},
{
color = 0;
glyphname = bar;
lastChange = "2024-09-10 23:20:37 +0000";
layers = (
{
layerId = m001;
shapes = (
{
closed = 1;
nodes = (
(127,-250,l),
(207,-250,l),
(207,820,l),
(127,820,l)
);
}
);
width = 350;
}
);
unicode = 124;
},
{
color = 0;
glyphname = brokenbar;
lastChange = "2024-09-10 23:20:37 +0000";
layers = (
{
layerId = m001;
shapes = (
{
closed = 1;
nodes = (
(122,365,l),
(202,365,l),
(202,750,l),
(122,750,l)
);
},
{
closed = 1;
nodes = (
(122,-180,l),
(202,-180,l),
(202,205,l),
(122,205,l)
);
}
);
width = 338;
}
);
unicode = 166;
},
{
color = 0;
glyphname = dagger;
lastChange = "2024-09-10 23:20:37 +0000";
layers = (
{
layerId = m001;
shapes = (
{
closed = 1;
nodes = (
(174,429,o),
(210,461,o),
(304,469,c),
(276,370,o),
(245,317,o),
(193,261,c),
(193,153,o),
(153,-93,o),
(108,-260,c),
(148,-260,l),
(193,-93,o),
(285,153,o),
(343,261,c),
(332,290,o),
(325,318,o),
(325,352,cs),
(325,384,o),
(331,421,o),
(344,469,c),
(430,461,o),
(450,429,o),
(496,429,cs),
(536,429,o),
(576,466,o),
(576,508,cs),
(576,534,o),
(558,553,o),
(529,553,cs),
(483,553,o),
(447,521,o),
(355,512,c),
(395,642,o),
(454,673,o),
(454,735,cs),
(454,761,o),
(436,780,o),
(407,780,cs),
(357,780,o),
(323,734,o),
(323,683,cs),
(323,662,o),
(327,641,o),
(327,612,cs),
(327,587,o),
(324,555,o),
(314,512,c),
(225,520,o),
(206,553,o),
(161,553,cs),
(122,553,o),
(80,517,o),
(80,475,cs),
(80,448,o),
(99,429,o),
(128,429,cs)
);
}
);
width = 560;
}
);
unicode = 8224;
},
{
color = 0;
glyphname = daggerdbl;
lastChange = "2024-09-10 23:20:37 +0000";
layers = (
{
layerId = m001;
shapes = (
{
closed = 1;
nodes = (
(352,290,o),
(345,318,o),
(345,352,cs),
(345,384,o),
(351,421,o),
(364,469,c),
(450,461,o),
(470,429,o),
(516,429,cs),
(556,429,o),
(596,466,o),
(596,508,cs),
(596,534,o),
(578,553,o),
(549,553,cs),
(503,553,o),
(467,521,o),
(375,512,c),
(415,642,o),
(474,673,o),
(474,735,cs),
(474,761,o),
(456,780,o),
(427,780,cs),
(377,780,o),
(343,734,o),
(343,683,cs),
(343,662,o),
(347,641,o),
(347,612,cs),
(347,587,o),
(344,555,o),
(334,512,c),
(245,520,o),
(226,553,o),
(181,553,cs),
(142,553,o),
(100,517,o),
(100,475,cs),
(100,448,o),
(119,429,o),
(148,429,cs),
(194,429,o),
(230,461,o),
(324,469,c),
(296,370,o),
(265,317,o),
(213,261,c),
(223,232,o),
(230,203,o),
(230,170,cs),
(230,137,o),
(224,100,o),
(211,51,c),
(123,59,o),
(103,91,o),
(57,91,cs),
(17,91,o),
(-23,54,o),
(-23,11,cs),
(-23,-15,o),
(-4,-33,o),
(24,-33,cs),
(69,-33,o),
(106,0,o),
(199,8,c),
(161,-121,o),
(100,-152,o),
(100,-216,cs),
(100,-242,o),
(119,-260,o),
(148,-260,cs),
(198,-260,o),
(231,-214,o),
(231,-163,cs),
(231,-142,o),
(228,-121,o),
(228,-91,cs),
(228,-66,o),
(230,-35,o),
(240,8,c),
(328,-1,o),
(346,-33,o),
(392,-33,cs),
(431,-33,o),
(473,3,o),
(473,45,cs),
(473,72,o),
(454,91,o),
(425,91,cs),
(379,91,o),
(343,59,o),
(251,51,c),
(278,150,o),
(311,205,o),
(363,261,c)
);
}
);
width = 595;
}
);
unicode = 8225;
},
{
color = 0;
glyphname = servicemark;
lastChange = "2024-09-10 23:20:37 +0000";
layers = (
{
layerId = m001;
shapes = (
{
closed = 1;
nodes = (
(691,770,l),
(791,770,l),
(791,750,l),
(756,749,o),
(751,738,o),
(751,689,cs),
(751,543,ls),
(751,490,o),
(757,483,o),
(795,482,c),
(795,462,l),
(660,462,l),
(660,482,l),
(699,483,o),
(704,490,o),
(704,540,cs),
(704,720,l),
(700,720,l),
(583,458,l),
(575,458,l),
(462,720,l),
(458,720,l),
(458,543,ls),
(458,490,o),
(464,483,o),
(502,482,c),
(502,462,l),
(385,462,l),
(385,482,l),
(423,483,o),
(429,490,o),
(429,540,cs),
(429,692,ls),
(429,737,o),
(424,748,o),
(389,750,c),
(389,770,l),
(495,770,l),
(589,544,l),
(593,544,l)
);
},
{
closed = 1;
nodes = (
(167,472,l),
(178,492,l),
(201,473,o),
(224,464,o),
(255,464,cs),
(308,464,o),
(365,493,o),
(365,554,cs),
(365,657,o),
(207,639,o),
(207,716,cs),
(207,743,o),
(230,755,o),
(255,755,cs),
(295,755,o),
(312,725,o),
(322,695,c),
(339,695,l),
(339,774,l),
(328,774,l),
(317,756,l),
(296,773,o),
(276,780,o),
(254,780,cs),
(207,780,o),
(164,750,o),
(164,696,cs),
(164,586,o),
(316,616,o),
(316,536,cs),
(316,505,o),
(289,489,o),
(256,489,cs),
(204,489,o),
(178,523,o),
(171,562,c),
(153,562,l),
(153,472,l)
);
}
);
width = 812;
}
);
unicode = 8480;
},
{
color = 0;
glyphname = cent;
lastChange = "2024-09-10 23:20:37 +0000";
layers = (
{
layerId = m001;
shapes = (
{
closed = 1;
nodes = (
(306,105,o),
(244,49,o),
(197,49,cs),
(153,49,o),
(127,88,o),
(127,152,cs),
(127,311,o),
(229,493,o),
(318,493,cs),
(334,493,o),
(342,488,o),
(342,479,cs),
(342,470,o),
(334,460,o),
(334,443,cs),
(334,415,o),
(356,393,o),
(386,393,cs),
(416,393,o),
(438,416,o),
(438,449,cs),
(438,495,o),
(400,531,o),
(348,539,c),
(400,698,l),
(348,698,l),
(294,536,l),
(162,507,o),
(22,317,o),
(22,153,cs),
(22,71,o),
(61,13,o),
(124,-4,c),
(79,-147,l),
(131,-147,l),
(175,-9,l),
(255,-5,o),
(328,55,o),
(381,161,c),
(346,181,l)
);
}
);
width = 468;
}
);
unicode = 162;
},
{
color = 0;
glyphname = currency;
lastChange = "2024-09-10 23:20:37 +0000";
layers = (
{
layerId = m001;
shapes = (
{
closed = 1;
nodes = (
(128,23,l),
(199,94,l),
(236,63,o),
(282,46,o),
(335,46,cs),
(387,46,o),
(433,62,o),
(471,93,c),
(542,22,l),
(577,57,l),
(506,128,l),
(536,165,o),
(553,211,o),
(553,263,cs),
(553,315,o),
(536,361,o),
(505,399,c),
(577,471,l),
(542,506,l),
(470,434,l),
(432,464,o),
(387,481,o),
(335,481,cs),
(283,481,o),
(237,464,o),
(200,434,c),
(128,506,l),
(93,471,l),
(165,399,l),
(134,361,o),
(118,315,o),
(118,263,cs),
(118,211,o),
(135,165,o),
(165,128,c),
(94,57,l)
);
},
{
closed = 1;
nodes = (
(168,355,o),
(243,431,o),
(335,431,cs),
(427,431,o),
(503,355,o),
(503,263,cs),
(503,171,o),
(427,96,o),
(335,96,cs),
(243,96,o),
(168,171,o),
(168,263,cs)
);
}
);
width = 697;
}
);
unicode = 164;
},
{
color = 0;
glyphname = dollar;
lastChange = "2024-09-10 23:20:37 +0000";
layers = (
{
layerId = m001;
shapes = (
{
closed = 1;
nodes = (
(198,-146,l),
(231,-10,l),
(235,-10,ls),
(381,-10,o),
(503,101,o),
(503,233,cs),
(503,348,o),
(419,407,o),
(345,461,c),
(409,726,l),
(455,717,o),
(480,690,o),
(480,650,cs),
(480,610,o),
(456,574,o),
(425,565,c),
(433,550,o),
(444,544,o),
(466,544,cs),
(522,544,o),
(561,583,o),
(561,641,cs),
(561,710,o),
(505,762,o),
(421,776,c),
(443,865,l),
(386,865,l),
(365,780,l),
(233,776,o),
(132,687,o),
(132,574,cs),
(132,482,o),
(198,426,o),
(267,374,c),
(188,49,l),
(137,64,o),
(107,101,o),
(107,154,cs),
(107,200,o),
(131,240,o),
(168,255,c),
(156,270,o),
(139,279,o),
(119,279,cs),
(68,279,o),
(22,223,o),
(22,162,cs),
(22,85,o),
(88,18,o),
(175,-3,c),
(141,-146,l)
);
},
{
closed = 1;
nodes = (
(414,106,o),
(341,46,o),
(244,43,c),
(315,337,l),
(369,294,o),
(414,249,o),
(414,185,cs)
);
},
{
closed = 1;
nodes = (
(230,676,o),
(279,720,o),
(352,727,c),
(297,498,l),
(258,531,o),
(230,565,o),
(230,613,cs)
);
}
);
width = 584;
}
);
unicode = 36;
},
{
color = 0;
glyphname = euro;
lastChange = "2024-09-10 23:20:37 +0000";
layers = (
{
layerId = m001;
shapes = (
{
closed = 1;
nodes = (
(285,43,o),
(238,98,o),
(238,193,cs),
(238,226,o),
(244,263,o),
(254,300,c),
(487,300,l),
(501,352,l),
(266,352,l),
(272,381,o),
(283,417,o),
(290,436,c),
(524,436,l),
(537,488,l),
(306,488,l),
(367,646,o),
(451,729,o),
(551,729,cs),
(609,729,o),
(642,701,o),
(642,651,cs),
(642,610,o),
(619,574,o),
(587,565,c),
(595,550,o),
(606,544,o),
(628,544,cs),
(685,544,o),
(723,583,o),
(723,643,cs),
(723,725,o),
(656,780,o),
(555,780,cs),
(405,780,o),
(260,666,o),
(181,488,c),
(91,488,l),
(79,436,l),
(162,436,l),
(153,414,o),
(142,379,o),
(137,352,c),
(57,352,l),
(43,300,l),
(128,300,l),
(124,266,o),
(124,254,o),
(124,237,cs),
(124,80,o),
(206,-10,o),
(348,-10,cs),
(486,-10,o),
(616,74,o),
(616,173,cs),
(616,219,o),
(596,244,o),
(562,244,cs),
(542,244,o),
(522,235,o),
(502,220,c),
(519,210,o),
(528,195,o),
(528,167,cs),
(528,98,o),
(452,43,o),
(368,43,cs)
);
}
);
width = 712;
}
);
unicode = 8364;
},
{
color = 0;
glyphname = sterling;
lastChange = "2024-09-10 23:20:37 +0000";
layers = (
{
layerId = m001;
shapes = (
{
closed = 1;
nodes = (
(347,780,o),
(228,650,o),
(228,470,cs),
(228,431,l),
(108,431,l),
(94,381,l),
(233,381,l),
(236,356,o),
(237,328,o),
(237,276,cs),
(237,211,o),
(230,173,o),
(211,132,c),
(179,153,o),
(143,165,o),
(108,165,cs),
(37,165,o),
(-18,119,o),
(-18,58,cs),
(-18,14,o),
(10,-10,o),
(63,-10,cs),
(119,-10,o),
(183,18,o),
(220,59,c),
(307,7,o),
(352,-10,o),
(406,-10,cs),
(505,-10,o),
(569,45,o),
(598,154,c),
(589,158,l),
(540,110,o),
(489,89,o),
(422,89,cs),
(379,89,o),
(309,98,o),
(260,111,c),
(312,177,o),
(346,285,o),
(346,381,c),
(550,381,l),
(564,431,l),
(347,431,l),
(347,534,ls),
(347,659,o),
(399,729,o),
(493,729,cs),
(547,729,o),
(574,708,o),
(574,665,cs),
(574,639,o),
(561,602,o),
(549,593,c),
(555,586,o),
(575,581,o),
(591,581,cs),
(640,581,o),
(675,620,o),
(675,675,cs),
(675,739,o),
(611,780,o),
(511,780,cs)
);
},
{
closed = 1;
nodes = (
(152,58,o),
(121,45,o),
(88,45,cs),
(61,45,o),
(48,53,o),
(48,70,cs),
(48,93,o),
(70,109,o),
(101,109,cs),
(123,109,o),
(148,101,o),
(181,83,c)
);
}
);
width = 682;
}
);
unicode = 163;
},
{
color = 0;
glyphname = yen;
lastChange = "2024-09-10 23:20:37 +0000";
layers = (
{
layerId = m001;
shapes = (
{
closed = 1;
nodes = (
(461,243,l),
(486,336,l),
(665,336,l),
(679,386,l),
(516,386,l),
(703,649,ls),
(750,716,o),
(763,730,o),
(817,730,c),
(828,770,l),
(581,770,l),
(570,730,l),
(616,730,o),
(644,715,o),
(644,687,cs),
(644,663,o),
(632,646,o),
(603,604,cs),
(464,401,l),
(357,659,ls),
(351,673,o),
(349,686,o),
(349,695,cs),
(349,721,o),
(370,730,o),
(420,730,c),
(431,770,l),
(150,770,l),
(139,730,l),
(205,730,o),
(222,720,o),
(262,624,cs),
(361,386,l),
(225,386,l),
(211,336,l),
(382,336,l),
(358,243,l),
(184,243,l),
(170,193,l),
(345,193,l),
(336,158,ls),
(310,59,o),
(277,40,o),
(191,40,c),
(180,0,l),
(519,0,l),
(531,40,l),
(460,40,o),
(430,53,o),
(430,98,cs),
(430,116,o),
(434,139,o),
(442,168,cs),
(448,193,l),
(624,193,l),
(638,243,l)
);
}
);
width = 765;
}
);
unicode = 165;
},
{
color = 0;
glyphname = bulletoperator;
lastChange = "2024-09-10 23:20:37 +0000";
layers = (
{
layerId = m001;
shapes = (
{
closed = 1;
nodes = (
(61,238,o),
(90,209,o),
(126,209,cs),
(163,209,o),
(192,238,o),
(192,274,cs),
(192,311,o),
(163,340,o),
(126,340,cs),
(90,340,o),
(61,311,o),
(61,274,cs)
);
}
);
width = 275;
}
);
unicode = 8729;
},
{
color = 0;
glyphname = divisionslash;
lastChange = "2024-09-10 23:20:37 +0000";
layers = (
{
layerId = m001;
shapes = (
{
closed = 1;
nodes = (
(534,770,l),
(-89,0,l),
(-22,0,l),
(592,770,l)
);
}
);
width = 464;
}
);
unicode = 8725;
},
{
color = 0;
glyphname = plus;
lastChange = "2024-09-10 23:20:37 +0000";
layers = (
{
layerId = m001;
shapes = (
{
closed = 1;
nodes = (
(55,363,l),
(55,313,l),
(523,313,l),
(523,363,l)
);
},
{
closed = 1;
nodes = (
(315,572,l),
(263,572,l),
(263,104,l),
(315,104,l)
);
}
);
width = 578;
}
);
unicode = 43;
},
{
color = 0;
glyphname = minus;
lastChange = "2024-09-10 23:20:37 +0000";
layers = (
{
layerId = m001;
shapes = (
{
closed = 1;
nodes = (
(98,363,l),
(98,313,l),
(566,313,l),
(566,363,l)
);
}
);
width = 657;
}
);
unicode = 8722;
},
{
color = 0;
glyphname = multiply;
lastChange = "2024-09-10 23:20:37 +0000";
layers = (
{
layerId = m001;
shapes = (
{
closed = 1;
nodes = (
(118,528,l),
(83,493,l),
(428,148,l),
(463,183,l)
);
},
{
closed = 1;
nodes = (
(464,492,l),
(427,529,l),
(82,184,l),
(119,147,l)
);
}
);
width = 543;
}
);
unicode = 215;
},
{
color = 0;
glyphname = divide;
lastChange = "2024-09-10 23:20:37 +0000";
layers = (
{
layerId = m001;
shapes = (
{
closed = 1;
nodes = (
(243,126,o),
(272,97,o),
(308,97,cs),
(345,97,o),
(374,126,o),
(374,162,cs),
(374,199,o),
(345,228,o),
(308,228,cs),
(272,228,o),
(243,199,o),
(243,162,cs)
);
},
{
closed = 1;
nodes = (
(243,476,o),
(272,447,o),
(308,447,cs),
(345,447,o),
(374,476,o),
(374,512,cs),
(374,549,o),
(345,578,o),
(308,578,cs),
(272,578,o),
(243,549,o),
(243,512,cs)
);
},
{
closed = 1;
nodes = (
(72,363,l),
(72,313,l),
(540,313,l),
(540,363,l)
);
}
);
width = 602;
}
);
unicode = 247;
},
{
color = 0;
glyphname = equal;
lastChange = "2024-09-10 23:20:37 +0000";
layers = (
{
layerId = m001;
shapes = (
{
closed = 1;
nodes = (
(84,302,l),
(70,252,l),
(524,252,l),
(538,302,l)
);
},
{
closed = 1;
nodes = (
(134,472,l),
(120,422,l),
(574,422,l),
(588,472,l)
);
}
);
width = 637;
}
);
unicode = 61;
},
{
color = 0;
glyphname = greater;
lastChange = "2024-09-10 23:20:37 +0000";
layers = (
{
layerId = m001;
shapes = (
{
closed = 1;
nodes = (
(122,72,l),
(580,304,l),
(580,368,l),
(122,600,l),
(122,544,l),
(535,336,l),
(122,126,l)
);
}
);
width = 621;
}
);
unicode = 62;
},
{
color = 0;
glyphname = less;
lastChange = "2024-09-10 23:20:37 +0000";
layers = (
{
layerId = m001;
shapes = (
{
closed = 1;
nodes = (
(514,544,l),
(514,600,l),
(56,368,l),
(56,304,l),
(514,72,l),
(514,126,l),
(101,336,l)
);
}
);
width = 618;
}
);
unicode = 60;
},
{
color = 0;
glyphname = plusminus;
lastChange = "2024-09-10 23:20:37 +0000";
layers = (
{
layerId = m001;
shapes = (
{
closed = 1;
nodes = (
(91,493,l),
(91,443,l),
(559,443,l),
(559,493,l)
);
},
{
closed = 1;
nodes = (
(351,702,l),
(299,702,l),
(299,234,l),
(351,234,l)
);
},
{
closed = 1;
nodes = (
(91,145,l),
(91,95,l),
(559,95,l),
(559,145,l)
);
}
);
width = 659;
}
);
unicode = 177;
},
{
color = 0;
glyphname = asciitilde;
lastChange = "2024-09-10 23:20:37 +0000";
layers = (
{
layerId = m001;
shapes = (
{
closed = 1;
nodes = (
(113,278,o),
(125,289,o),
(146,289,cs),
(167,289,o),
(189,286,o),
(253,266,cs),
(310,248,o),
(335,241,o),
(359,241,cs),
(383,241,o),
(403,252,o),
(424,277,cs),
(441,302,o),
(453,332,o),
(456,359,c),
(423,359,l),
(414,329,o),
(402,317,o),
(380,317,cs),
(359,317,o),
(334,323,o),
(286,339,cs),
(232,357,o),
(200,363,o),
(174,363,cs),
(125,363,o),
(81,315,o),
(70,249,c),
(104,249,l)
);
}
);
width = 533;
}
);
unicode = 126;
},
{
color = 0;
glyphname = logicalnot;
lastChange = "2024-09-10 23:20:37 +0000";
layers = (
{
layerId = m001;
shapes = (
{
closed = 1;
nodes = (
(554,110,l),
(554,363,l),
(96,363,l),
(96,313,l),
(504,313,l),
(504,110,l)
);
}
);
width = 676;
}
);
unicode = 172;
},
{
color = 0;
glyphname = asciicircum;
lastChange = "2024-09-10 23:20:37 +0000";
layers = (
{
layerId = m001;
shapes = (
{
closed = 1;
nodes = (
(60,230,l),
(104,230,l),
(254,348,l),
(342,230,l),
(387,230,l),
(315,409,l),
(225,409,l)
);
}
);
width = 481;
}
);
unicode = 94;
},
{
color = 0;
glyphname = micro;
lastChange = "2024-09-10 23:20:37 +0000";
layers = (
{
layerId = m001;
shapes = (
{
closed = 1;
nodes = (
(175,367,o),
(184,403,o),
(184,428,cs),
(184,442,o),
(180,449,o),
(173,449,cs),
(157,449,o),
(125,420,o),
(80,365,c),
(54,379,l),
(97,464,o),
(188,540,o),
(247,540,cs),
(278,540,o),
(297,519,o),
(297,485,cs),
(297,454,o),
(292,437,o),
(231,259,cs),
(209,194,o),
(196,137,o),
(196,104,cs),
(196,75,o),
(205,62,o),
(223,62,cs),
(274,62,o),
(364,186,o),
(417,330,cs),
(491,530,l),
(584,530,l),
(510,301,ls),
(466,165,o),
(452,115,o),
(452,91,cs),
(452,74,o),
(458,65,o),
(469,65,cs),
(497,65,o),
(548,121,o),
(574,181,c),
(604,166,l),
(564,67,o),
(483,-10,o),
(419,-10,cs),
(382,-10,o),
(367,16,o),
(367,81,cs),
(367,101,o),
(369,119,o),
(372,138,c),
(369,141,l),
(326,44,o),
(272,-10,o),
(218,-10,cs),
(187,-10,o),
(166,2,o),
(155,26,c),
(152,25,l),
(118,-181,ls),
(109,-235,o),
(89,-260,o),
(51,-260,cs),
(20,-260,o),
(6,-245,o),
(6,-210,cs),
(6,-198,o),
(8,-185,o),
(12,-169,cs),
(28,-104,o),
(95,119,o),
(143,268,cs)
);
}
);
width = 685;
}
);
unicode = 181;
},
{
color = 0;
glyphname = dieresis;
lastChange = "2024-09-10 23:20:37 +0000";
layers = (
{
anchors = (
{
name = _top;
pos = (160,651);
}
);
layerId = m001;
shapes = (
{
closed = 1;
nodes = (
(17,703,o),
(17,698,o),
(17,693,cs),
(17,668,o),
(34,651,o),
(61,651,cs),
(98,651,o),
(137,684,o),
(137,724,cs),
(137,749,o),
(120,767,o),
(92,767,cs),
(59,767,o),
(27,742,o),
(19,709,cs)
);
},
{
closed = 1;
nodes = (
(184,703,o),
(184,698,o),
(184,693,cs),
(184,668,o),
(201,651,o),
(228,651,cs),
(265,651,o),
(304,684,o),
(304,724,cs),
(304,749,o),
(287,767,o),
(259,767,cs),
(226,767,o),
(194,742,o),
(186,709,cs)
);
}
);
width = 323;
}
);
unicode = 168;
},
{
color = 0;
glyphname = dotaccent;
lastChange = "2024-09-11 03:06:42 +0000";
layers = (
{
anchors = (
{
name = _top;
pos = (55,651);
}
);
layerId = m001;
shapes = (
{
closed = 1;
nodes = (
(20,708,o),
(47,681,o),
(82,681,cs),
(117,681,o),
(144,708,o),
(144,743,cs),
(144,778,o),
(117,805,o),
(82,805,cs),
(47,805,o),
(20,778,o),
(20,743,cs)
);
}
);
width = 164;
}
);
unicode = 729;
},
{
color = 0;
glyphname = grave;
lastChange = "2024-09-10 23:20:37 +0000";
layers = (
{
anchors = (
{
name = _top;
pos = (155,651);
}
);
layerId = m001;
shapes = (
{
closed = 1;
nodes = (
(136,770,ls),
(117,793,o),
(99,803,o),
(78,803,cs),
(54,803,o),
(29,787,o),
(29,760,cs),
(29,743,o),
(44,729,o),
(68,716,cs),
(187,651,l),
(234,651,l)
);
}
);
width = 275;
}
);
unicode = 96;
},
{
color = 0;
glyphname = acute;
lastChange = "2024-09-11 03:05:13 +0000";
layers = (
{
anchors = (
{
name = _top;
pos = (103,651);
}
);
layerId = m001;
shapes = (
{
closed = 1;
nodes = (
(204,716,ls),
(236,731,o),
(255,747,o),
(255,768,cs),
(255,790,o),
(240,803,o),
(217,803,cs),
(196,803,o),
(175,793,o),
(150,770,cs),
(20,651,l),
(67,651,l)
);
}
);
width = 275;
}
);
unicode = 180;
},
{
color = 0;
glyphname = hungarumlaut;
lastChange = "2024-09-10 23:20:37 +0000";
layers = (
{
anchors = (
{
name = _top;
pos = (205,651);
}
);
layerId = m001;
shapes = (
{
closed = 1;
nodes = (
(204,716,ls),
(236,731,o),
(255,747,o),
(255,768,cs),
(255,790,o),
(240,803,o),
(217,803,cs),
(196,803,o),
(175,793,o),
(150,770,cs),
(20,651,l),
(67,651,l)
);
},
{
closed = 1;
nodes = (
(402,716,ls),
(434,731,o),
(453,747,o),
(453,768,cs),
(453,790,o),
(438,803,o),
(415,803,cs),
(394,803,o),
(373,793,o),
(348,770,cs),
(218,651,l),
(265,651,l)
);
}
);
width = 473;
}
);
unicode = 733;
},
{
color = 0;
glyphname = circumflex;
lastChange = "2024-09-11 03:05:39 +0000";
layers = (
{
anchors = (
{
name = _top;
pos = (165,651);
}
);
layerId = m001;
shapes = (
{
closed = 1;
nodes = (
(2,651,l),
(47,651,l),
(184,719,l),
(285,651,l),
(330,651,l),
(246,780,l),
(156,780,l)
);
}
);
width = 368;
}
);
unicode = 710;
},
{
color = 0;
glyphname = caron;
lastChange = "2024-09-11 03:05:25 +0000";
layers = (
{
anchors = (
{
name = _top;
pos = (167,651);
}
);
layerId = m001;
shapes = (
{
closed = 1;
nodes = (
(365,780,l),
(320,780,l),
(183,712,l),
(82,780,l),
(37,780,l),
(121,651,l),
(211,651,l)
);
}
);
width = 368;
}
);
unicode = 711;
},
{
color = 0;
glyphname = breve;
lastChange = "2024-09-10 23:20:37 +0000";
layers = (
{
anchors = (
{
name = _top;
pos = (158,651);
}
);
layerId = m001;
shapes = (
{
closed = 1;
nodes = (
(255,739,o),
(208,715,o),
(158,715,cs),
(109,715,o),
(75,739,o),
(73,776,c),
(37,776,l),
(34,765,o),
(33,754,o),
(33,744,cs),
(33,686,o),
(74,646,o),
(140,646,cs),
(215,646,o),
(288,700,o),
(313,776,c),
(276,776,l)
);
}
);
width = 316;
}
);
unicode = 728;
},
{
color = 0;
glyphname = ring;
lastChange = "2024-09-10 23:20:37 +0000";
layers = (
{
anchors = (
{
name = _top;
pos = (106,651);
}
);
layerId = m001;
shapes = (
{
closed = 1;
nodes = (
(16,681,o),
(41,656,o),
(82,656,cs),
(141,656,o),
(197,707,o),
(197,768,cs),
(197,805,o),
(171,830,o),
(129,830,cs),
(68,830,o),
(16,774,o),
(16,718,cs)
);
},
{
closed = 1;
nodes = (
(140,788,o),
(154,775,o),
(154,756,cs),
(154,723,o),
(124,696,o),
(95,696,cs),
(72,696,o),
(58,710,o),
(58,730,cs),
(58,763,o),
(90,788,o),
(119,788,cs)
);
}
);
width = 214;
}
);
unicode = 730;
},
{
color = 0;
glyphname = tilde;
lastChange = "2024-09-10 23:20:37 +0000";
layers = (
{
anchors = (
{
name = _top;
pos = (191,651);
}
);
layerId = m001;
shapes = (
{
closed = 1;
nodes = (
(63,689,o),
(74,700,o),
(96,700,cs),
(112,700,o),
(133,694,o),
(178,677,cs),
(225,658,o),
(244,652,o),
(262,652,cs),
(288,652,o),
(312,665,o),
(329,688,cs),
(345,709,o),
(358,743,o),
(361,770,c),
(328,770,l),
(319,740,o),
(306,728,o),
(284,728,cs),
(267,728,o),
(250,733,o),
(211,750,cs),
(172,767,o),
(145,774,o),
(125,774,cs),
(74,774,o),
(31,727,o),
(20,660,c),
(54,660,l)
);
}
);
width = 381;
}
);
unicode = 732;
},
{
color = 0;
glyphname = macron;
lastChange = "2024-09-10 23:20:37 +0000";
layers = (
{
anchors = (
{
name = _top;
pos = (155,651);
}
);
layerId = m001;
shapes = (
{
closed = 1;
nodes = (
(296,752,l),
(26,752,l),
(13,702,l),
(283,702,l)
);
}
);
width = 310;
}
);
unicode = 175;
},
{
color = 0;
glyphname = cedilla;
lastChange = "2024-09-10 23:20:37 +0000";
layers = (
{
anchors = (
{
name = _bottom;
pos = (122,0);
}
);
layerId = m001;
shapes = (
{
closed = 1;
nodes = (
(137,12,l),
(52,-112,l),
(53,-115,l),
(59,-114,o),
(75,-113,o),
(88,-113,cs),
(131,-113,o),
(155,-127,o),
(155,-154,cs),
(155,-190,o),
(122,-217,o),
(90,-217,cs),
(43,-217,o),
(63,-148,o),
(30,-148,cs),
(7,-148,o),
(-11,-169,o),
(-11,-197,cs),
(-11,-233,o),
(29,-260,o),
(88,-260,cs),
(163,-260,o),
(240,-204,o),
(240,-135,cs),
(240,-94,o),
(203,-72,o),
(136,-72,c),
(190,12,l)
);
}
);
width = 232;
}
);
unicode = 184;
},
{
color = 0;
glyphname = ogonek;
lastChange = "2024-09-10 23:20:37 +0000";
layers = (
{
anchors = (
{
name = _bottom;
pos = (166,0);
}
);
layerId = m001;
shapes = (
{
closed = 1;
nodes = (
(190,-155,o),
(155,-174,o),
(130,-174,cs),
(102,-174,o),
(79,-153,o),
(79,-126,cs),
(79,-84,o),
(130,-29,o),
(202,6,c),
(202,10,l),
(149,10,l),
(55,-27,o),
(0,-86,o),
(0,-149,cs),
(0,-202,o),
(36,-234,o),
(97,-234,cs),
(157,-234,o),
(213,-205,o),
(254,-152,c),
(225,-121,l)
);
}
);
width = 265;
}
);
unicode = 731;
},
{
color = 0;
glyphname = caron.alt;
lastChange = "2024-09-10 23:20:37 +0000";
layers = (
{
anchors = (
{
name = _top;
pos = (79,651);
}
);
layerId = m001;
shapes = (
{
closed = 1;
nodes = (
(117,629,o),
(151,677,o),
(151,733,cs),
(151,763,o),
(135,780,o),
(105,780,cs),
(65,780,o),
(30,750,o),
(30,711,cs),
(30,692,o),
(42,680,o),
(63,680,cs),
(74,680,o),
(84,683,o),
(91,688,c),
(83,659,o),
(57,635,o),
(5,610,c),
(20,584,l)
);
}
);
width = 162;
}
);
},
{
color = 0;
glyphname = dieresis.case;
lastChange = "2024-09-11 03:00:24 +0000";
layers = (
{
anchors = (
{
name = _top;
pos = (161,830);
}
);
layerId = m001;
shapes = (
{
closed = 1;
nodes = (
(18,905,o),
(18,900,o),
(18,895,cs),
(18,874,o),
(33,859,o),
(56,859,cs),
(88,859,o),
(123,888,o),
(123,923,cs),
(123,944,o),
(107,960,o),
(83,960,cs),
(55,960,o),
(27,938,o),
(20,910,c)
);
},
{
closed = 1;
nodes = (
(200,905,o),
(200,900,o),
(200,895,cs),
(200,874,o),
(215,859,o),
(239,859,cs),
(270,859,o),
(305,888,o),
(305,923,cs),
(305,944,o),
(289,960,o),
(266,960,cs),
(237,960,o),
(209,938,o),
(202,910,c)
);
}
);
width = 323;
}
);
},
{
color = 0;
glyphname = dotaccent.case;
lastChange = "2024-09-11 03:00:32 +0000";
layers = (
{
anchors = (
{
name = _top;
pos = (82,830);
}
);
layerId = m001;
shapes = (
{
closed = 1;
nodes = (
(30,876,o),
(54,852,o),
(82,852,cs),
(113,852,o),
(137,876,o),
(137,904,cs),
(137,935,o),
(113,959,o),
(82,959,cs),
(54,959,o),
(30,935,o),
(30,904,cs)
);
}
);
width = 165;
}
);
},
{
color = 0;
glyphname = grave.case;
lastChange = "2024-09-11 03:00:40 +0000";
layers = (
{
anchors = (
{
name = _top;
pos = (169,830);
}
);
layerId = m001;
shapes = (
{
closed = 1;
nodes = (
(150,927,ls),
(119,949,o),
(99,960,o),
(72,960,cs),
(50,960,o),
(24,944,o),
(24,919,cs),
(24,901,o),
(49,887,o),
(87,878,cs),
(200,850,l),
(260,850,l)
);
}
);
width = 295;
}
);
},
{
color = 0;
glyphname = acute.case;
lastChange = "2024-09-11 03:00:45 +0000";
layers = (
{
anchors = (
{
name = _top;
pos = (120,830);
}
);
layerId = m001;
shapes = (
{
closed = 1;
nodes = (
(192,878,ls),
(249,890,o),
(281,908,o),
(281,935,cs),
(281,951,o),
(270,960,o),
(251,960,cs),
(224,960,o),
(198,949,o),
(155,927,cs),
(5,850,l),
(65,850,l)
);
}
);
width = 295;
}
);
},
{
color = 0;
glyphname = hungarumlaut.case;
lastChange = "2024-09-11 03:00:50 +0000";
layers = (
{
anchors = (
{
name = _top;
pos = (205,830);
}
);
layerId = m001;
shapes = (
{
closed = 1;
nodes = (
(190,878,ls),
(235,889,o),
(265,904,o),
(265,925,cs),
(265,947,o),
(250,960,o),
(227,960,cs),
(200,960,o),
(176,950,o),
(140,927,cs),
(20,850,l),
(80,850,l)
);
},
{
closed = 1;
nodes = (
(377,878,ls),
(422,889,o),
(452,904,o),
(452,925,cs),
(452,947,o),
(437,960,o),
(414,960,cs),
(387,960,o),
(363,950,o),
(327,927,cs),
(207,850,l),
(267,850,l)
);
}
);
width = 473;
}
);
},
{
color = 0;
glyphname = circumflex.case;
lastChange = "2024-09-11 03:00:55 +0000";
layers = (
{
anchors = (
{
name = _top;
pos = (184,830);
}
);
layerId = m001;
shapes = (
{
closed = 1;
nodes = (
(5,851,l),
(50,851,l),
(183,905,l),
(288,851,l),
(333,851,l),
(253,960,l),
(143,960,l)
);
}
);
width = 368;
}
);
},
{
color = 0;
glyphname = caron.case;
lastChange = "2024-09-11 03:01:02 +0000";
layers = (
{
anchors = (
{
name = _top;
pos = (184,830);
}
);
layerId = m001;
shapes = (
{
closed = 1;
nodes = (
(362,960,l),
(317,960,l),
(184,906,l),
(79,960,l),
(34,960,l),
(114,851,l),
(224,851,l)
);
}
);
width = 368;
}
);
},
{
color = 0;
glyphname = breve.case;
lastChange = "2024-09-11 03:01:07 +0000";
layers = (
{
anchors = (
{
name = _top;
pos = (158,830);
}
);
layerId = m001;
shapes = (
{
closed = 1;
nodes = (
(255,932,o),
(210,914,o),
(160,914,cs),
(110,914,o),
(74,932,o),
(71,960,c),
(35,960,l),
(33,951,o),
(32,943,o),
(32,935,cs),
(32,882,o),
(75,845,o),
(142,845,cs),
(217,845,o),
(288,893,o),
(311,960,c),
(274,960,l)
);
}
);
width = 316;
}
);
},
{
color = 0;
glyphname = ring.case;
lastChange = "2024-09-11 03:01:13 +0000";
layers = (
{
anchors = (
{
name = _top;
pos = (85,830);
}
);
layerId = m001;
shapes = (
{
closed = 1;
nodes = (
(17,849,o),
(36,830,o),
(66,830,cs),
(110,830,o),
(152,869,o),
(152,911,cs),
(152,941,o),
(132,960,o),
(102,960,cs),
(58,960,o),
(17,920,o),
(17,878,cs)
);
},
{
closed = 1;
nodes = (
(109,928,o),
(119,918,o),
(119,903,cs),
(119,881,o),
(97,861,o),
(74,861,cs),
(59,861,o),
(49,870,o),
(49,885,cs),
(49,907,o),
(70,928,o),
(93,928,cs)
);
}
);
width = 170;
}
);
},
{
color = 0;
glyphname = tilde.case;
lastChange = "2024-09-11 03:01:18 +0000";
layers = (
{
anchors = (
{
name = _top;
pos = (191,830);
}
);
layerId = m001;
shapes = (
{
closed = 1;
nodes = (
(63,875,o),
(74,886,o),
(96,886,cs),
(140,886,o),
(203,838,o),
(262,838,cs),
(315,838,o),
(354,896,o),
(361,956,c),
(328,956,l),
(319,926,o),
(306,914,o),
(284,914,cs),
(236,914,o),
(185,960,o),
(125,960,cs),
(74,960,o),
(31,913,o),
(20,846,c),
(54,846,l)
);
}
);
width = 381;
}
);
},
{
color = 0;
glyphname = macron.case;
lastChange = "2024-09-11 03:01:24 +0000";
layers = (
{
anchors = (
{
name = _top;
pos = (155,830);
}
);
layerId = m001;
shapes = (
{
closed = 1;
nodes = (
(296,930,l),
(26,930,l),
(13,880,l),
(283,880,l)
);
}
);
width = 310;
}
);
},
{
color = 0;
glyphname = apostrophemod;
lastChange = "2024-09-10 23:20:37 +0000";
layers = (
{
layerId = m001;
shapes = (
{
closed = 1;
nodes = (
(107,667,o),
(153,757,o),
(159,780,cs),
(160,785,o),
(161,791,o),
(161,795,cs),
(161,816,o),
(148,830,o),
(126,830,cs),
(50,830,o),
(65,751,o),
(53,611,c),
(82,611,l)
);
}
);
width = 194;
}
);
unicode = 700;
},
{
color = 0;
glyphname = commaaccentcomb.case;
lastChange = "2024-09-10 23:20:37 +0000";
layers = (
{
anchors = (
{
name = _bottom;
pos = (79,-10);
}
);
layerId = m001;
shapes = (
{
closed = 1;
nodes = (
(116,-223,o),
(142,-186,o),
(142,-143,cs),
(142,-93,o),
(119,-64,o),
(79,-64,cs),
(44,-64,o),
(20,-86,o),
(20,-117,cs),
(20,-145,o),
(38,-164,o),
(64,-164,cs),
(75,-164,o),
(84,-161,o),
(90,-156,c),
(90,-185,o),
(70,-209,o),
(25,-234,c),
(47,-260,l)
);
}
);
width = 162;
}
);
unicode = 63171;
},
